<svg width="33" height="34" viewBox="0 0 33 34" fill="none" xmlns="http://www.w3.org/2000/svg">
<g id="solar:copy-outline">
<path id="Vector" fill-rule="evenodd" clip-rule="evenodd" d="M20.625 1.77084H15.048C12.5208 1.77084 10.5188 1.77084 8.95263 1.98759C7.34113 2.21143 6.03625 2.68176 5.00638 3.74143C3.97787 4.80251 3.52138 6.14693 3.30413 7.80726C3.09375 9.42226 3.09375 11.4835 3.09375 14.0873V22.6667C3.09378 23.9324 3.53229 25.1565 4.33034 26.1187C5.12839 27.0809 6.23358 27.718 7.447 27.9154C7.63538 28.9978 7.99975 29.9214 8.7285 30.6737C9.55625 31.5265 10.5985 31.892 11.836 32.0648C13.0281 32.2292 14.5447 32.2292 16.4244 32.2292H20.7006C22.5802 32.2292 24.0969 32.2292 25.289 32.0648C26.5265 31.892 27.5688 31.5265 28.3965 30.6737C29.2243 29.8208 29.579 28.747 29.7468 27.472C29.9063 26.2438 29.9062 24.6812 29.9062 22.7446V15.5054C29.9062 13.5688 29.9063 12.0063 29.7468 10.778C29.579 9.50301 29.2243 8.42918 28.3965 7.57634C27.6664 6.82551 26.7699 6.45009 25.7194 6.25601C25.5278 5.00582 24.9094 3.86714 23.9755 3.0449C23.0416 2.22267 21.8535 1.77088 20.625 1.77084ZM23.5537 6.05059C23.3447 5.42159 22.9499 4.87569 22.4248 4.48932C21.8996 4.10295 21.2703 3.89544 20.625 3.89584H15.125C12.5029 3.89584 10.6411 3.89868 9.22625 4.09418C7.84438 4.28543 7.04688 4.64526 6.46525 5.24451C5.88363 5.84376 5.53438 6.66543 5.34875 8.09059C5.159 9.54693 5.15625 11.4651 5.15625 14.1667V22.6667C5.15586 23.3315 5.35726 23.9799 5.73227 24.521C6.10728 25.062 6.63712 25.4688 7.24762 25.6842C7.21875 24.82 7.21875 23.8425 7.21875 22.7446V15.5054C7.21875 13.5688 7.21875 12.0063 7.37963 10.778C7.54463 9.50301 7.90212 8.42918 8.7285 7.57634C9.55625 6.72351 10.5985 6.35801 11.836 6.18659C13.0281 6.02084 14.5447 6.02084 16.4244 6.02084H20.7006C21.7663 6.02084 22.715 6.02084 23.5537 6.05059ZM10.186 9.08084C10.5669 8.68843 11.1004 8.43343 12.111 8.29318C13.1477 8.15009 14.5255 8.14726 16.4986 8.14726H20.6236C22.5968 8.14726 23.9731 8.15009 25.0126 8.29318C26.0219 8.43343 26.5554 8.68984 26.9363 9.08084C27.3171 9.47326 27.5646 10.0229 27.7008 11.0642C27.8396 12.1323 27.8424 13.5518 27.8424 15.5848V22.6681C27.8424 24.701 27.8396 26.1191 27.7008 27.1901C27.5646 28.2299 27.3158 28.7796 26.9363 29.172C26.5554 29.5644 26.0219 29.8194 25.0113 29.9597C23.9731 30.1028 22.5968 30.1056 20.6236 30.1056H16.4986C14.5255 30.1056 13.1477 30.1028 12.1096 29.9597C11.1004 29.8194 10.5669 29.563 10.186 29.172C9.80512 28.7796 9.55763 28.2299 9.4215 27.1887C9.28263 26.1191 9.27988 24.701 9.27988 22.6681V15.5848C9.27988 13.5518 9.28263 12.1323 9.4215 11.0628C9.55763 10.0229 9.8065 9.47326 10.186 9.08084Z" fill="#495162"/>
</g>
</svg>
