<svg width="21" height="20" viewBox="0 0 21 20" fill="none" xmlns="http://www.w3.org/2000/svg">
<g id="solar:copy-outline">
<path id="Vector" fill-rule="evenodd" clip-rule="evenodd" d="M13.125 1.04167H9.576C7.96775 1.04167 6.69375 1.04167 5.69713 1.16917C4.67163 1.30084 3.84125 1.57751 3.18588 2.20084C2.53137 2.82501 2.24088 3.61584 2.10263 4.59251C1.96875 5.54251 1.96875 6.755 1.96875 8.28667V13.3333C1.96877 14.0779 2.24782 14.7979 2.75567 15.3639C3.26352 15.9299 3.96682 16.3047 4.739 16.4208C4.85887 17.0575 5.09075 17.6008 5.5545 18.0433C6.08125 18.545 6.7445 18.76 7.532 18.8617C8.29062 18.9583 9.25575 18.9583 10.4519 18.9583H13.1731C14.3693 18.9583 15.3344 18.9583 16.093 18.8617C16.8805 18.76 17.5438 18.545 18.0705 18.0433C18.5972 17.5417 18.823 16.91 18.9298 16.16C19.0312 15.4375 19.0312 14.5183 19.0312 13.3792V9.12084C19.0312 7.98167 19.0312 7.0625 18.9298 6.34C18.823 5.59 18.5972 4.95834 18.0705 4.45667C17.6059 4.01501 17.0354 3.79417 16.3669 3.68C16.245 2.9446 15.8514 2.27479 15.2571 1.79112C14.6628 1.30745 13.9067 1.04169 13.125 1.04167ZM14.9887 3.55917C14.8557 3.18917 14.6045 2.86805 14.2703 2.64078C13.9361 2.4135 13.5357 2.29143 13.125 2.29167H9.625C7.95638 2.29167 6.77163 2.29334 5.87125 2.40834C4.99187 2.52084 4.48438 2.7325 4.11425 3.08501C3.74413 3.43751 3.52188 3.92084 3.40375 4.75917C3.283 5.61584 3.28125 6.74417 3.28125 8.33334V13.3333C3.281 13.7244 3.40917 14.1058 3.64781 14.4241C3.88645 14.7424 4.22362 14.9816 4.61212 15.1083C4.59375 14.6 4.59375 14.025 4.59375 13.3792V9.12084C4.59375 7.98167 4.59375 7.0625 4.69613 6.34C4.80113 5.59 5.02863 4.95834 5.5545 4.45667C6.08125 3.95501 6.7445 3.74001 7.532 3.63917C8.29062 3.54167 9.25575 3.54167 10.4519 3.54167H13.1731C13.8513 3.54167 14.455 3.54167 14.9887 3.55917ZM6.482 5.34167C6.72437 5.11084 7.06387 4.96084 7.707 4.87834C8.36675 4.79417 9.2435 4.79251 10.4991 4.79251H13.1241C14.3797 4.79251 15.2556 4.79417 15.9171 4.87834C16.5594 4.96084 16.8989 5.11167 17.1413 5.34167C17.3836 5.5725 17.5411 5.89584 17.6278 6.50834C17.7161 7.13667 17.7179 7.97167 17.7179 9.16751V13.3342C17.7179 14.53 17.7161 15.3642 17.6278 15.9942C17.5411 16.6058 17.3828 16.9292 17.1413 17.16C16.8989 17.3908 16.5594 17.5408 15.9163 17.6233C15.2556 17.7075 14.3797 17.7092 13.1241 17.7092H10.4991C9.2435 17.7092 8.36675 17.7075 7.70613 17.6233C7.06388 17.5408 6.72437 17.39 6.482 17.16C6.23962 16.9292 6.08213 16.6058 5.9955 15.9933C5.90713 15.3642 5.90538 14.53 5.90538 13.3342V9.16751C5.90538 7.97167 5.90713 7.13667 5.9955 6.5075C6.08213 5.89584 6.2405 5.5725 6.482 5.34167Z" fill="#495162"/>
</g>
</svg>
