<svg width="62" height="59" viewBox="0 0 62 59" fill="none" xmlns="http://www.w3.org/2000/svg">
<g id="spb-icon.8f254bbf 1">
<g id="Clip path group">
<mask id="mask0_1_29" style="mask-type:luminance" maskUnits="userSpaceOnUse" x="12" y="6" width="39" height="47">
<g id="clip0_4909_95176">
<path id="Vector" d="M50.1007 6.85339H12.525V52.1463H50.1007V6.85339Z" fill="white"/>
</g>
</mask>
<g mask="url(#mask0_1_29)">
<g id="Group">
<path id="Vector_2" d="M12.525 17.4056L18.0478 27.0738V32.9712L12.5314 42.6205L12.525 17.4056Z" fill="#5B57A2"/>
<path id="Vector_3" d="M33.7282 23.5564L38.9033 20.4497L49.4946 20.4401L33.7282 29.8996V23.5564Z" fill="#D90751"/>
<path id="Vector_4" d="M33.6967 17.3471L33.726 30.1476L28.1901 26.8162V7.68185L33.6967 17.3471Z" fill="#FAB718"/>
<path id="Vector_5" d="M49.4922 20.438L38.9005 20.4476L33.6967 17.3471L28.1901 7.68185L49.4922 20.438Z" fill="#ED6F26"/>
<path id="Vector_6" d="M33.726 42.6738V36.4634L28.1901 33.1954L28.1931 52.3487L33.726 42.6738Z" fill="#63B22F"/>
<path id="Vector_7" d="M38.8926 39.5958L18.0474 27.0738L12.525 17.4056L49.4743 39.5833L38.8926 39.5958Z" fill="#1487C9"/>
<path id="Vector_8" d="M28.1901 52.3466L33.722 42.6717L38.8842 39.5935L49.4659 39.5808L28.1901 52.3466Z" fill="#017F36"/>
<path id="Vector_9" d="M12.525 42.6212L28.2335 33.1968L22.9522 30.0233L18.0413 32.9721L12.525 42.6212Z" fill="#984995"/>
</g>
</g>
</g>
</g>
</svg>
