<svg width="23.133301" height="25.800049" viewBox="0 0 23.1333 25.8" fill="none" xmlns="http://www.w3.org/2000/svg" xmlns:xlink="http://www.w3.org/1999/xlink">
	<desc>
			Created with Pixso.
	</desc>
	<defs>
		<filter id="filter_7_8_dd" x="0.000000" y="0.000000" width="23.133301" height="25.800049" filterUnits="userSpaceOnUse" color-interpolation-filters="sRGB">
			<feFlood flood-opacity="0" result="BackgroundImageFix"/>
			<feBlend mode="normal" in="SourceGraphic" in2="BackgroundImageFix" result="shape"/>
			<feColorMatrix in="SourceAlpha" type="matrix" values="0 0 0 0 0 0 0 0 0 0 0 0 0 0 0 0 0 0 127 0" result="hardAlpha"/>
			<feOffset dx="0" dy="2"/>
			<feGaussianBlur stdDeviation="0.666667"/>
			<feComposite in2="hardAlpha" operator="arithmetic" k2="-1" k3="1"/>
			<feColorMatrix type="matrix" values="0 0 0 0 1 0 0 0 0 1 0 0 0 0 1 0 0 0 0.47 0"/>
			<feBlend mode="normal" in2="shape" result="effect_innerShadow_1"/>
		</filter>
	</defs>
	<g filter="url(#filter_7_8_dd)"/>
	<path id="Icon" d="M4.90002 10.2334L4.90002 7.56665C4.90002 3.88477 7.88477 0.900024 11.5667 0.900024C15.2485 0.900024 18.2334 3.88477 18.2334 7.56665L18.2334 10.2334M11.5667 16.2334L11.5667 18.9M15.8334 10.2334C18.0736 10.2334 19.1937 10.2334 20.0493 10.6693C20.802 11.0529 21.4139 11.6648 21.7974 12.4174C22.2334 13.2731 22.2334 14.3932 22.2334 16.6333L22.2334 18.5C22.2334 20.7402 22.2334 21.8604 21.7974 22.7159C21.4139 23.4686 20.802 24.0806 20.0493 24.464C19.1937 24.9 18.0736 24.9 15.8334 24.9L7.30005 24.9C5.05981 24.9 3.9397 24.9 3.08411 24.464C2.33142 24.0806 1.71948 23.4686 1.33594 22.7159C0.900024 21.8604 0.900024 20.7402 0.900024 18.5L0.900024 16.6333C0.900024 14.3932 0.900024 13.2731 1.33594 12.4174C1.71948 11.6648 2.33142 11.0529 3.08411 10.6693C3.9397 10.2334 5.05981 10.2334 7.30005 10.2334L15.8334 10.2334Z" stroke="#52C5FA" stroke-opacity="1.000000" stroke-width="1.800000" stroke-linejoin="round"/>
</svg>
