<svg width="22.799988" height="22.799805" viewBox="0 0 22.8 22.7998" fill="none" xmlns="http://www.w3.org/2000/svg" xmlns:xlink="http://www.w3.org/1999/xlink">
	<desc>
			Created with Pixso.
	</desc>
	<defs>
		<filter id="filter_7_1_dd" x="0.000000" y="0.000000" width="22.799988" height="22.799805" filterUnits="userSpaceOnUse" color-interpolation-filters="sRGB">
			<feFlood flood-opacity="0" result="BackgroundImageFix"/>
			<feBlend mode="normal" in="SourceGraphic" in2="BackgroundImageFix" result="shape"/>
			<feColorMatrix in="SourceAlpha" type="matrix" values="0 0 0 0 0 0 0 0 0 0 0 0 0 0 0 0 0 0 127 0" result="hardAlpha"/>
			<feOffset dx="0" dy="2"/>
			<feGaussianBlur stdDeviation="0.666667"/>
			<feComposite in2="hardAlpha" operator="arithmetic" k2="-1" k3="1"/>
			<feColorMatrix type="matrix" values="0 0 0 0 1 0 0 0 0 1 0 0 0 0 1 0 0 0 0.47 0"/>
			<feBlend mode="normal" in2="shape" result="effect_innerShadow_1"/>
		</filter>
	</defs>
	<g filter="url(#filter_7_1_dd)"/>
	<path id="Icon" d="M21.9 11.3999C21.9 5.60083 17.199 0.899902 11.4 0.899902C5.60101 0.899902 0.899994 5.60083 0.899994 11.3999C0.899994 12.7966 1.1727 14.1296 1.66772 15.3484C1.76248 15.5818 1.80984 15.6985 1.83099 15.7927C1.85165 15.885 1.85922 15.9531 1.85922 16.0479C1.85925 16.1443 1.84171 16.2498 1.80661 16.4602L1.11481 20.6111C1.04236 21.0457 1.00613 21.2629 1.07355 21.4202C1.13254 21.5576 1.24216 21.6672 1.3797 21.7263C1.53687 21.7937 1.75421 21.7576 2.18887 21.6851L6.33975 20.9932C6.55026 20.9583 6.65552 20.9407 6.75214 20.9407C6.84668 20.9407 6.91492 20.9482 7.00717 20.969C7.10147 20.99 7.21811 21.0374 7.45139 21.1321C8.67035 21.6272 10.0033 21.8999 11.4 21.8999C17.199 21.8999 21.9 17.199 21.9 11.3999ZM6.14999 11.3999L6.16165 11.3999M6.14999 11.9832C5.82782 11.9832 5.56665 11.7222 5.56665 11.3999C5.56665 11.0776 5.82782 10.8167 6.14999 10.8167C6.47217 10.8167 6.73334 11.0776 6.73334 11.3999C6.73334 11.7222 6.47217 11.9832 6.14999 11.9832ZM11.4 11.3999L11.4117 11.3999M11.4 11.9832C11.0778 11.9832 10.8167 11.7222 10.8167 11.3999C10.8167 11.0776 11.0778 10.8167 11.4 10.8167C11.7222 10.8167 11.9833 11.0776 11.9833 11.3999C11.9833 11.7222 11.7222 11.9832 11.4 11.9832ZM16.65 11.3999L16.6617 11.3999M16.65 11.9832C16.3278 11.9832 16.0667 11.7222 16.0667 11.3999C16.0667 11.0776 16.3278 10.8167 16.65 10.8167C16.9722 10.8167 17.2333 11.0776 17.2333 11.3999C17.2333 11.7222 16.9722 11.9832 16.65 11.9832Z" stroke="#52C5FA" stroke-opacity="1.000000" stroke-width="1.800000" stroke-linejoin="round"/>
</svg>
