<svg width="25.133301" height="25.140625" viewBox="0 0 25.1333 25.1406" fill="none" xmlns="http://www.w3.org/2000/svg" xmlns:xlink="http://www.w3.org/1999/xlink">
	<desc>
			Created with Pixso.
	</desc>
	<defs>
		<filter id="filter_7_4_dd" x="0.000000" y="0.000000" width="25.133301" height="25.140625" filterUnits="userSpaceOnUse" color-interpolation-filters="sRGB">
			<feFlood flood-opacity="0" result="BackgroundImageFix"/>
			<feBlend mode="normal" in="SourceGraphic" in2="BackgroundImageFix" result="shape"/>
			<feColorMatrix in="SourceAlpha" type="matrix" values="0 0 0 0 0 0 0 0 0 0 0 0 0 0 0 0 0 0 127 0" result="hardAlpha"/>
			<feOffset dx="0" dy="2"/>
			<feGaussianBlur stdDeviation="0.666667"/>
			<feComposite in2="hardAlpha" operator="arithmetic" k2="-1" k3="1"/>
			<feColorMatrix type="matrix" values="0 0 0 0 1 0 0 0 0 1 0 0 0 0 1 0 0 0 0.47 0"/>
			<feBlend mode="normal" in2="shape" result="effect_innerShadow_1"/>
		</filter>
	</defs>
	<g filter="url(#filter_7_4_dd)"/>
	<path id="Icon" d="M5.56665 5.57031L7.90002 3.23682L5.56665 0.903564M19.5667 19.5703L17.2334 21.9036L19.5667 24.2368M0.900024 7.90356C0.900024 5.32617 2.98938 3.23682 5.56665 3.23682L7.90002 3.23682M24.2334 17.2368C24.2334 19.8142 22.144 21.9036 19.5667 21.9036L17.2334 21.9036M14.2201 14.2236C15.1327 14.6594 16.1545 14.9036 17.2334 14.9036C21.0994 14.9036 24.2334 11.7695 24.2334 7.90356C24.2334 4.0376 21.0994 0.903564 17.2334 0.903564C13.3673 0.903564 10.2334 4.0376 10.2334 7.90356C10.2334 8.98242 10.4774 10.0042 10.9133 10.9167M7.90002 24.2368C4.03406 24.2368 0.900024 21.1028 0.900024 17.2368C0.900024 13.3708 4.03406 10.2368 7.90002 10.2368C11.766 10.2368 14.9 13.3708 14.9 17.2368C14.9 21.1028 11.766 24.2368 7.90002 24.2368Z" stroke="#52C5FA" stroke-opacity="1.000000" stroke-width="1.800000" stroke-linejoin="round"/>
</svg>
