<svg width="28.466675" height="23.800049" viewBox="0 0 28.4667 23.8" fill="none" xmlns="http://www.w3.org/2000/svg" xmlns:xlink="http://www.w3.org/1999/xlink">
	<desc>
			Created with Pixso.
	</desc>
	<defs>
		<filter id="filter_7_3_dd" x="0.000000" y="0.000000" width="28.466675" height="23.800049" filterUnits="userSpaceOnUse" color-interpolation-filters="sRGB">
			<feFlood flood-opacity="0" result="BackgroundImageFix"/>
			<feBlend mode="normal" in="SourceGraphic" in2="BackgroundImageFix" result="shape"/>
			<feColorMatrix in="SourceAlpha" type="matrix" values="0 0 0 0 0 0 0 0 0 0 0 0 0 0 0 0 0 0 127 0" result="hardAlpha"/>
			<feOffset dx="0" dy="2"/>
			<feGaussianBlur stdDeviation="0.666667"/>
			<feComposite in2="hardAlpha" operator="arithmetic" k2="-1" k3="1"/>
			<feColorMatrix type="matrix" values="0 0 0 0 1 0 0 0 0 1 0 0 0 0 1 0 0 0 0.47 0"/>
			<feBlend mode="normal" in2="shape" result="effect_innerShadow_1"/>
		</filter>
	</defs>
	<g filter="url(#filter_7_3_dd)"/>
	<path id="Icon" d="M25.4333 17.5667C26.1801 17.5667 26.5534 17.5667 26.8387 17.712C27.0895 17.8398 27.2935 18.0438 27.4213 18.2947C27.5667 18.58 27.5667 18.9532 27.5667 19.7001L27.5667 20.7667C27.5667 21.5134 27.5667 21.8868 27.4213 22.172C27.2935 22.4229 27.0895 22.6268 26.8387 22.7546C26.5534 22.9 26.1801 22.9 25.4333 22.9L20.3667 22.9C19.6199 22.9 19.2466 22.9 18.9613 22.7546C18.7104 22.6268 18.5065 22.4229 18.3787 22.172C18.2333 21.8868 18.2333 21.5134 18.2333 20.7667L18.2333 19.7001C18.2333 18.9532 18.2333 18.58 18.3787 18.2947C18.5065 18.0438 18.7104 17.8398 18.9613 17.712C19.2466 17.5667 19.6199 17.5667 20.3667 17.5667L25.4333 17.5667ZM20.5667 17.5667L20.5667 15.2334C20.5667 13.9447 21.6113 12.9 22.9 12.9C24.1887 12.9 25.2333 13.9447 25.2333 15.2334L25.2333 17.5667M27.5667 7.56665L0.899994 7.56665M12.9 19.5667L5.16666 19.5667C3.67319 19.5667 2.92645 19.5667 2.35602 19.276C1.85425 19.0204 1.44632 18.6124 1.19064 18.1107C0.899994 17.5403 0.899994 16.7935 0.899994 15.3L0.899994 5.16675C0.899994 3.67322 0.899994 2.92651 1.19064 2.35608C1.44632 1.85425 1.85425 1.44629 2.35602 1.19067C2.92645 0.900024 3.67319 0.900024 5.16666 0.900024L23.3 0.900024C24.7935 0.900024 25.5402 0.900024 26.1106 1.19067C26.6124 1.44629 27.0204 1.85425 27.276 2.35608C27.5667 2.92651 27.5667 3.67322 27.5667 5.16675L27.5667 8.90002" stroke="#52C5FA" stroke-opacity="1.000000" stroke-width="1.800000" stroke-linejoin="round"/>
</svg>
