<svg width="24.550110" height="24.550049" viewBox="0 0 24.5501 24.55" fill="none" xmlns="http://www.w3.org/2000/svg" xmlns:xlink="http://www.w3.org/1999/xlink">
	<desc>
			Created with Pixso.
	</desc>
	<defs>
		<filter id="filter_7_9_dd" x="0.000000" y="0.000000" width="24.550110" height="24.550049" filterUnits="userSpaceOnUse" color-interpolation-filters="sRGB">
			<feFlood flood-opacity="0" result="BackgroundImageFix"/>
			<feBlend mode="normal" in="SourceGraphic" in2="BackgroundImageFix" result="shape"/>
			<feColorMatrix in="SourceAlpha" type="matrix" values="0 0 0 0 0 0 0 0 0 0 0 0 0 0 0 0 0 0 127 0" result="hardAlpha"/>
			<feOffset dx="0" dy="2"/>
			<feGaussianBlur stdDeviation="0.666667"/>
			<feComposite in2="hardAlpha" operator="arithmetic" k2="-1" k3="1"/>
			<feColorMatrix type="matrix" values="0 0 0 0 1 0 0 0 0 1 0 0 0 0 1 0 0 0 0.47 0"/>
			<feBlend mode="normal" in2="shape" result="effect_innerShadow_1"/>
		</filter>
	</defs>
	<g filter="url(#filter_7_9_dd)"/>
	<path id="Icon" d="M0.900085 23.6501C0.900085 23.6501 5.26343 23.0669 6.7334 21.3169C7.56177 20.3369 7.55011 18.8318 6.62842 17.9219C6.17493 17.489 5.57758 17.239 4.95099 17.2195C4.32446 17.2002 3.71277 17.4128 3.2334 17.8169C1.4834 19.2869 0.900085 23.6501 0.900085 23.6501ZM16.6501 13.7336C16.6501 13.7336 17.9101 17.6768 16.6501 19.5669C15.5184 21.2585 11.9834 21.9001 11.9834 21.9001L11.9834 16.0669L8.4834 12.5669L2.65009 12.5669C2.65009 12.5669 3.29175 9.03174 4.9834 7.90015C6.87341 6.64014 10.8168 7.90015 10.8168 7.90015M8.4834 12.5669C9.10425 10.9563 9.88599 9.41235 10.8168 7.9585C12.1761 5.78491 14.069 3.99536 16.3152 2.76001C18.5615 1.52441 21.0865 0.884277 23.6501 0.900146C23.6501 4.07349 22.7401 9.65015 16.6501 13.7336C15.1765 14.6653 13.6131 15.447 11.9834 16.0669" stroke="#52C5FA" stroke-opacity="1.000000" stroke-width="1.800000" stroke-linejoin="round"/>
</svg>
