<svg width="432" height="438" viewBox="0 0 432 438" fill="none" xmlns="http://www.w3.org/2000/svg">
<g clip-path="url(#clip0_6_288)">
<path opacity="0.5" d="M228.432 372.634C192.851 374.262 157.253 362.271 128.922 340.972C122.409 335.991 116.038 330.722 110.419 324.719C99.5035 312.983 90.0593 299.827 83.0635 285.394C67.2829 253.285 64.3054 215.51 73.525 181.07C76.3895 169.958 81.2877 159.484 86.4743 149.282C98.1583 126.818 114.581 106.443 135.597 92.0107C157.365 76.8269 183.535 68.3637 209.977 66.5918C222.383 65.4593 234.899 66.193 247.192 68.0287C251.897 68.8914 256.54 70.0571 261.182 71.175C261.837 71.3345 262.494 71.5259 263.134 71.7173C265.615 72.4351 268.144 72.9788 270.561 73.9212C270.897 74.0009 271.586 74.1445 271.922 74.2242L272.434 74.4635C275.427 75.39 278.308 76.5717 281.205 77.7361C282.053 78.0551 282.901 78.4073 283.734 78.7423C297.035 84.5058 309.537 92.1223 320.709 101.351C332.152 110.802 342.844 121.388 351.04 133.81C356.306 141.57 360.451 150.016 364.004 158.653C365.35 162.421 366.854 166.142 367.718 170.054C369.319 177.302 370.871 184.598 371.208 192.023C371.512 198.17 370.471 204.254 369.559 210.304C366.709 228.202 360.74 245.702 351.28 261.22C338.603 282.313 319.364 299.029 297.483 310.141C279.06 319.402 258.957 325.564 238.388 327.577C238.372 335.959 238.949 344.325 238.74 352.707C218.317 348.078 199.766 337.252 184.08 323.617C169.578 310.908 157.06 295.964 146.929 279.566C146.369 278.528 145.44 277.363 146.161 276.149C155.492 255.457 172.139 238.645 191.49 227.005C205.96 218.367 221.758 211.773 238.292 208.293C238.324 217.441 238.181 226.574 238.356 235.707C256.668 232.77 274.579 226.303 289.912 215.749C307.68 203.646 321.925 186.34 330.04 166.445C330.633 164.849 331.608 162.885 330.36 161.319C316.306 139.91 299.244 120.031 278.084 105.327C265.808 96.9926 252.122 90.1099 237.299 87.9539C236.965 94.1175 236.82 100.297 236.756 106.475C236.708 109.413 236.931 112.384 236.42 115.305C232.706 115.816 228.913 115.337 225.184 115.72C207.081 117.157 189.874 124.373 174.731 134.146C157.076 145.689 141.711 160.538 129.115 177.398C114.868 196.047 105.329 218.75 104.673 242.365C103.857 263.52 109.571 284.738 120.182 303.021C131.131 321.174 147.089 335.927 165.016 347.087C181.518 357.337 199.669 364.858 218.412 369.936C221.758 370.877 225.215 371.309 228.432 372.634Z" fill="url(#paint0_linear_6_288)"/>
<path opacity="0.3" d="M359.484 50.8391C343.603 37.7236 325.833 26.8983 306.923 18.7063L306.107 18.3753C305.186 18.0018 304.264 17.6282 303.34 17.28L303.325 17.2747L302.47 16.9317C298.622 15.3818 294.813 13.8466 290.868 12.6263L290.825 12.6131L290.782 12.5944L290.115 12.2821C289.884 12.2289 289.557 12.1571 289.222 12.0827H289.217C288.855 12.0029 288.486 11.9232 288.241 11.8647L288.196 11.8541L288.153 11.8368C285.794 10.9183 283.38 10.2749 280.925 9.62096C279.831 9.32986 278.728 9.0361 277.618 8.71442L277.612 8.71309C276.701 8.4406 275.779 8.1721 274.861 7.94879L272.266 7.32139C266.512 5.92836 260.77 4.53798 254.96 3.47327C237.471 0.862656 219.679 -0.178131 202.059 1.43157L202.043 1.4329C164.443 3.95179 127.241 15.9813 96.3067 37.5547L96.3027 37.5574C66.4389 58.0621 43.087 87.0167 26.4649 118.967C19.0731 133.505 12.1186 148.383 8.05111 164.152L8.04978 164.157C-5.05909 213.113 -0.822834 266.806 21.6079 312.43L21.6106 312.434C31.5532 332.944 44.9785 351.647 60.5079 368.338C68.4819 376.857 77.5313 384.342 86.8094 391.435C126.161 421.011 175.365 437.956 224.761 436.571C223.555 436.216 222.33 435.912 221.09 435.623C220.436 435.472 219.774 435.324 219.109 435.176C217.362 434.785 215.593 434.389 213.853 433.899C187.069 426.646 161.124 415.9 137.53 401.248L137.529 401.247C111.895 385.292 89.0531 364.188 73.3762 338.199L73.3695 338.188C58.1791 312.025 49.9937 281.649 51.1621 251.354C52.1032 217.523 65.7716 185.024 86.1514 158.35C104.157 134.255 126.125 113.03 151.371 96.5261L151.375 96.5234C173.029 82.5532 197.669 72.2118 223.622 70.1515C226.133 69.8936 228.66 69.9056 231.145 69.9189L231.706 69.9215C234.221 69.9308 236.693 69.9215 239.131 69.6251C239.571 66.8071 239.547 63.9759 239.522 61.0914C239.513 59.9443 239.502 58.7892 239.521 57.6221C239.612 48.8093 239.818 39.9899 240.298 31.1904L240.338 30.4646L241.057 30.5696C262.333 33.6628 281.944 43.5323 299.496 55.4449L299.501 55.4488C329.761 76.472 354.143 104.875 374.21 135.437C375.243 136.747 375.331 138.215 375.081 139.583C374.886 140.65 374.467 141.731 374.101 142.674C374.01 142.915 373.919 143.145 373.838 143.366L373.834 143.375L373.83 143.385C362.207 171.874 341.806 196.65 316.366 213.977C294.405 229.088 268.766 238.338 242.574 242.539L241.819 242.66L241.804 241.896C241.642 233.49 241.67 225.076 241.698 216.665C241.713 212.314 241.727 207.965 241.715 203.618C218.507 208.607 196.322 217.903 175.974 230.047C148.472 246.587 124.839 270.461 111.597 299.817L111.582 299.851L111.562 299.882C111.185 300.519 111.218 301.143 111.477 301.843C111.67 302.36 111.948 302.837 112.246 303.349C112.388 303.591 112.528 303.835 112.663 304.081C127.076 327.4 144.879 348.649 165.504 366.72C187.609 385.93 213.69 401.195 242.371 407.865C242.488 402.18 242.361 396.496 242.203 390.799L242.133 388.304C241.986 383.167 241.839 378.017 241.85 372.864L241.851 372.263L242.449 372.205C271.691 369.345 300.281 360.584 326.486 347.416C357.592 331.62 384.929 307.867 402.935 277.917L402.938 277.913C416.378 255.87 424.865 231.006 428.916 205.562L429.242 203.416C430.45 195.489 431.653 187.597 431.26 179.635V179.631C430.782 169.111 428.581 158.761 426.298 148.422C425.322 144.008 423.772 139.774 422.204 135.491C421.81 134.42 421.417 133.344 421.031 132.264C415.975 119.979 410.085 107.987 402.612 96.978L402.608 96.9714C390.971 79.3351 375.776 64.2909 359.484 50.8391ZM359.484 50.8391L359.908 50.326" stroke="url(#paint1_linear_6_288)" stroke-width="1.32923"/>
</g>
<defs>
<linearGradient id="paint0_linear_6_288" x1="219.796" y1="66.0521" x2="219.796" y2="372.78" gradientUnits="userSpaceOnUse">
<stop stop-color="white"/>
<stop offset="1" stop-color="white" stop-opacity="0"/>
</linearGradient>
<linearGradient id="paint1_linear_6_288" x1="216" y1="-1.43568e-05" x2="216" y2="437.314" gradientUnits="userSpaceOnUse">
<stop stop-color="#DC03FF" stop-opacity="0.81"/>
<stop offset="1" stop-color="white"/>
</linearGradient>
<clipPath id="clip0_6_288">
<rect width="432" height="437.317" fill="white"/>
</clipPath>
</defs>
</svg>
