<svg width="25" height="25" viewBox="0 0 25 25" fill="none" xmlns="http://www.w3.org/2000/svg">
<g id="SVG">
<path id="Vector" fill-rule="evenodd" clip-rule="evenodd" d="M12.1899 5C10.9965 5 9.85187 5.47411 9.00796 6.31802C8.16405 7.16193 7.68994 8.30653 7.68994 9.5H6.18994C6.18994 7.9087 6.82208 6.38258 7.9473 5.25736C9.07252 4.13214 10.5986 3.5 12.1899 3.5C13.7812 3.5 15.3074 4.13214 16.4326 5.25736C17.5578 6.38258 18.1899 7.9087 18.1899 9.5H16.6899C16.6899 8.30653 16.2158 7.16193 15.3719 6.31802C14.528 5.47411 13.3834 5 12.1899 5ZM16.6899 14C16.6899 15.882 15.3759 17.898 13.4529 18.538L13.9269 19.962C16.5039 19.102 18.1899 16.482 18.1899 14H16.6899ZM3.18994 11.25C3.18994 10.284 3.97394 9.5 4.93994 9.5H7.68994V16.05C7.68994 16.302 7.58985 16.5436 7.41169 16.7218C7.23353 16.8999 6.9919 17 6.73994 17H4.93994C4.47581 17 4.03069 16.8156 3.7025 16.4874C3.37432 16.1592 3.18994 15.7141 3.18994 15.25V11.25ZM4.93994 11C4.87364 11 4.81005 11.0263 4.76316 11.0732C4.71628 11.1201 4.68994 11.1837 4.68994 11.25V15.25C4.68994 15.388 4.80194 15.5 4.93994 15.5H6.18994V11H4.93994Z" fill="white"/>
<path id="Vector_2" fill-rule="evenodd" clip-rule="evenodd" d="M21.1899 11.25C21.1899 10.7859 21.0056 10.3408 20.6774 10.0126C20.3492 9.68437 19.9041 9.5 19.4399 9.5H16.6899V16.05C16.6899 16.575 17.1149 17 17.6399 17H19.4399C19.9041 17 20.3492 16.8156 20.6774 16.4874C21.0056 16.1592 21.1899 15.7141 21.1899 15.25V11.25ZM19.4399 11C19.5062 11 19.5698 11.0263 19.6167 11.0732C19.6636 11.1201 19.6899 11.1837 19.6899 11.25V15.25C19.6899 15.3163 19.6636 15.3799 19.6167 15.4268C19.5698 15.4737 19.5062 15.5 19.4399 15.5H18.1899V11H19.4399ZM12.1899 18.5C11.991 18.5 11.8003 18.579 11.6596 18.7197C11.519 18.8603 11.4399 19.0511 11.4399 19.25C11.4399 19.4489 11.519 19.6397 11.6596 19.7803C11.8003 19.921 11.991 20 12.1899 20C12.3889 20 12.5796 19.921 12.7203 19.7803C12.8609 19.6397 12.9399 19.4489 12.9399 19.25C12.9399 19.0511 12.8609 18.8603 12.7203 18.7197C12.5796 18.579 12.3889 18.5 12.1899 18.5ZM9.93994 19.25C9.93994 18.6533 10.177 18.081 10.599 17.659C11.0209 17.2371 11.5932 17 12.1899 17C12.7867 17 13.359 17.2371 13.7809 17.659C14.2029 18.081 14.4399 18.6533 14.4399 19.25C14.4399 19.8467 14.2029 20.419 13.7809 20.841C13.359 21.2629 12.7867 21.5 12.1899 21.5C11.5932 21.5 11.0209 21.2629 10.599 20.841C10.177 20.419 9.93994 19.8467 9.93994 19.25Z" fill="white"/>
</g>
</svg>
