<svg width="18" height="17" viewBox="0 0 18 17" fill="none" xmlns="http://www.w3.org/2000/svg">
<path id="Vector" fill-rule="evenodd" clip-rule="evenodd" d="M0.841782 3.65422C0.841782 1.88766 2.27387 0.455566 4.04044 0.455566H10.4378C12.2043 0.455566 13.6364 1.88766 13.6364 3.65422V4.0686C15.6535 4.40701 17.1905 6.16127 17.1905 8.27451V12.5394C17.1905 14.8948 15.2811 16.8043 12.9256 16.8043H5.10666C2.75123 16.8043 0.841782 14.8948 0.841782 12.5394V5.07586V3.65422ZM11.504 3.65422V4.00964H2.97422V3.65422C2.97422 3.06537 3.45159 2.588 4.04044 2.588H10.4378C11.0266 2.588 11.504 3.06537 11.504 3.65422ZM2.97422 12.5394V6.14208H12.5702H12.9256C14.1033 6.14208 15.058 7.0968 15.058 8.27451V12.5394C15.058 13.7171 14.1033 14.6718 12.9256 14.6718H5.10666C3.92894 14.6718 2.97422 13.7171 2.97422 12.5394ZM10.7931 9.34074C10.2043 9.34074 9.72693 9.81809 9.72693 10.407C9.72693 10.9958 10.2043 11.4732 10.7931 11.4732H12.5702C13.1591 11.4732 13.6364 10.9958 13.6364 10.407C13.6364 9.81809 13.1591 9.34074 12.5702 9.34074H10.7931Z" fill="#94AFE5"/>
</svg>
