<svg width="45" height="45" viewBox="0 0 45 45" fill="none" xmlns="http://www.w3.org/2000/svg">
<path d="M45 45H0V0H36.6279L40.814 4.5L45 9V45Z" fill="white"/>
<path d="M19.2367 34.533H24.0858V22.3132H27.4802L27.8682 18.2399H24.0858C24.0858 18.2399 24.0858 16.6882 24.0858 15.9123C24.0858 14.9425 24.2798 14.5545 25.2496 14.5545C26.0255 14.5545 27.8682 14.5545 27.8682 14.5545V10.3843C27.8682 10.3843 25.0557 10.3843 24.4738 10.3843C20.8854 10.3843 19.2367 11.936 19.2367 15.0395C19.2367 17.658 19.2367 18.3369 19.2367 18.3369H16.7151V22.5071H19.2367V34.533Z" fill="#8A35F2"/>
</svg>
