<svg width="35.000000" height="35.000000" viewBox="0 0 35 35" fill="none" xmlns="http://www.w3.org/2000/svg" xmlns:xlink="http://www.w3.org/1999/xlink">
	<desc>
			Created with Pixso.
	</desc>
	<defs>
		<filter id="filter_5_18_dd" x="0.000000" y="0.000000" width="35.000000" height="35.000000" filterUnits="userSpaceOnUse" color-interpolation-filters="sRGB">
			<feFlood flood-opacity="0" result="BackgroundImageFix"/>
			<feBlend mode="normal" in="SourceGraphic" in2="BackgroundImageFix" result="shape"/>
			<feColorMatrix in="SourceAlpha" type="matrix" values="0 0 0 0 0 0 0 0 0 0 0 0 0 0 0 0 0 0 127 0" result="hardAlpha"/>
			<feOffset dx="0" dy="1"/>
			<feGaussianBlur stdDeviation="0.666667"/>
			<feComposite in2="hardAlpha" operator="arithmetic" k2="-1" k3="1"/>
			<feColorMatrix type="matrix" values="0 0 0 0 1 0 0 0 0 1 0 0 0 0 1 0 0 0 0.32 0"/>
			<feBlend mode="normal" in2="shape" result="effect_innerShadow_1"/>
		</filter>
		<radialGradient id="paint_radial_5_18_0" cx="0.000000" cy="0.000000" r="1.000000" gradientUnits="userSpaceOnUse" gradientTransform="translate(26.25 8.23529) rotate(111.991) scale(28.8649 28.8648)">
			<stop stop-color="#67CFFE"/>
			<stop offset="1.000000" stop-color="#28BCFF"/>
		</radialGradient>
		<linearGradient id="paint_linear_5_18_1" x1="17.500000" y1="0.000000" x2="17.500000" y2="3.000000" gradientUnits="userSpaceOnUse">
			<stop stop-color="#FFFFFF" stop-opacity="0.478431"/>
			<stop offset="1.000000" stop-color="#FFFFFF" stop-opacity="0.000000"/>
		</linearGradient>
	</defs>
	<g filter="url(#filter_5_18_dd)">
		<mask id="mask_5_18" fill="white">
			<path id="Subtract" d="M4 0L31 0C33.2091 0 35 1.79086 35 4L35 31C35 33.2091 33.2091 35 31 35L24.8636 35L32.4205 32.1841C32.7336 32.0675 32.9412 31.7686 32.9412 31.4345L32.9412 26.2779C32.9412 25.9438 32.7336 25.6449 32.4205 25.5282L0 13.4476L0 9.22553L31.8618 21.0979C32.3846 21.2927 32.9412 20.9062 32.9412 20.3483L32.9412 15.9185C32.9412 15.5844 32.7336 15.2855 32.4205 15.1688L0.0961982 3.12408C0.495596 1.33625 2.09175 0 4 0ZM0 21.6307L0 31C0 33.0707 1.57343 34.7739 3.58993 34.9792L21.039 29.6209C21.7926 29.3895 21.7926 28.3228 21.039 28.0914L0 21.6307Z" clip-rule="evenodd" fill="" fill-opacity="1.000000" fill-rule="evenodd"/>
		</mask>
		<path id="Subtract" d="M4 0L31 0C33.2091 0 35 1.79086 35 4L35 31C35 33.2091 33.2091 35 31 35L24.8636 35L32.4205 32.1841C32.7336 32.0675 32.9412 31.7686 32.9412 31.4345L32.9412 26.2779C32.9412 25.9438 32.7336 25.6449 32.4205 25.5282L0 13.4476L0 9.22553L31.8618 21.0979C32.3846 21.2927 32.9412 20.9062 32.9412 20.3483L32.9412 15.9185C32.9412 15.5844 32.7336 15.2855 32.4205 15.1688L0.0961982 3.12408C0.495596 1.33625 2.09175 0 4 0ZM0 21.6307L0 31C0 33.0707 1.57343 34.7739 3.58993 34.9792L21.039 29.6209C21.7926 29.3895 21.7926 28.3228 21.039 28.0914L0 21.6307Z" clip-rule="evenodd" fill="url(#paint_radial_5_18_0)" fill-opacity="1.000000" fill-rule="evenodd" mask="url(#mask_5_18)"/>
	</g>
	<path id="Subtract" d="M31 0L4 0C2.09175 0 0.495596 1.33625 0.0961982 3.12408L32.4205 15.1688C32.7336 15.2855 32.9412 15.5844 32.9412 15.9185L32.9412 20.3483C32.9412 20.9062 32.3846 21.2927 31.8618 21.0979L0.3 9.33732L0 9.22553L0 13.4476L32.4205 25.5282C32.7336 25.6449 32.9412 25.9438 32.9412 26.2779L32.9412 31.4345C32.9412 31.7686 32.7336 32.0675 32.4205 32.1841L25.6687 34.7L24.8636 35L31 35C33.2091 35 35 33.2091 35 31L35 4C35 1.79086 33.2091 0 31 0ZM26.5279 34.7L31 34.7Q31.4202 34.7 31.8199 34.6095Q32.1364 34.5378 32.4401 34.4094Q32.75 34.2783 33.0269 34.0968Q33.3432 33.8894 33.6163 33.6163Q33.8895 33.3431 34.0968 33.0268Q34.2783 32.75 34.4094 32.4401Q34.5378 32.1364 34.6095 31.8198Q34.7 31.4202 34.7 31L34.7 4Q34.7 3.57978 34.6095 3.18006Q34.5378 2.86354 34.4094 2.55988Q34.2783 2.24997 34.0968 1.97312Q33.8894 1.65685 33.6163 1.38371Q33.3431 1.11051 33.0268 0.903142Q32.75 0.721692 32.4401 0.590641Q32.1364 0.462171 31.8198 0.390488Q31.4201 0.299999 31 0.299999L4 0.299999Q3.62009 0.299999 3.25543 0.374579Q2.99536 0.427767 2.74305 0.518887Q2.47575 0.615421 2.22921 0.74999Q1.93549 0.910309 1.67124 1.12461Q1.42279 1.3261 1.2151 1.56329Q1.01986 1.78627 0.860657 2.04079Q0.684801 2.32194 0.563492 2.62492Q0.502042 2.77839 0.454589 2.93748L32.5253 14.8877Q32.6867 14.9479 32.8166 15.0487Q32.9464 15.1495 33.0446 15.291Q33.1429 15.4324 33.192 15.5893Q33.2412 15.7462 33.2412 15.9185L33.2412 20.3483Q33.2412 20.504 33.2005 20.6483Q33.1681 20.7632 33.11 20.8708Q33.052 20.978 32.9742 21.0678Q32.8846 21.1712 32.7687 21.2518Q32.6527 21.3323 32.5246 21.3801Q32.4132 21.4217 32.2925 21.4385Q32.1713 21.4555 32.0523 21.4457Q31.903 21.4334 31.7571 21.3791L0.3 9.65747L0.3 13.2393L32.5253 25.2471Q32.6867 25.3073 32.8165 25.4081Q32.9464 25.5089 33.0446 25.6504Q33.1429 25.7918 33.192 25.9487Q33.2412 26.1056 33.2412 26.2779L33.2412 31.4345Q33.2412 31.6068 33.192 31.7636Q33.1429 31.9205 33.0446 32.062Q32.9464 32.2034 32.8165 32.3043Q32.6867 32.4051 32.5253 32.4652L26.5279 34.7ZM0 21.6307L0 31C0 33.0707 1.57343 34.7739 3.58993 34.9792L21.039 29.6209C21.7926 29.3895 21.7926 28.3228 21.039 28.0914L0.3 21.7228L0 21.6307ZM0.3 22.0367L0.3 31Q0.3 31.4014 0.382896 31.7848Q0.445803 32.0758 0.55645 32.3564Q0.67067 32.6461 0.829268 32.9091Q1.0147 33.2165 1.26081 33.4874Q1.50068 33.7514 1.78088 33.9616Q2.03182 34.1499 2.31511 34.2951Q2.6146 34.4485 2.93157 34.544Q3.23816 34.6363 3.56108 34.6743L20.951 29.3341Q21.0713 29.2972 21.1533 29.2196Q21.1882 29.1866 21.2162 29.1462Q21.2476 29.1007 21.2678 29.0507Q21.3042 28.9608 21.3042 28.8562Q21.3042 28.7516 21.2679 28.6617Q21.2477 28.6117 21.2162 28.5662Q21.1882 28.5258 21.1533 28.4927Q21.0713 28.4152 20.951 28.3782L0.3 22.0367Z" clip-rule="evenodd" fill="url(#paint_linear_5_18_1)" fill-opacity="1.000000" fill-rule="evenodd"/>
</svg>
