<svg width="22.000000" height="22.000000" viewBox="0 0 22 22" fill="none" xmlns="http://www.w3.org/2000/svg" xmlns:xlink="http://www.w3.org/1999/xlink">
	<desc>
			Created with Pixso.
	</desc>
	<defs>
		<clipPath id="clip6_172">
			<rect width="22.000000" height="22.000000" fill="white" fill-opacity="0"/>
		</clipPath>
	</defs>
	<rect width="22.000000" height="22.000000" fill="#FFFFFF" fill-opacity="0"/>
	<g clip-path="url(#clip6_172)">
		<path d="M15.7667 3.66666C17.3068 3.66666 18.0769 3.66666 18.6651 3.9664C19.1826 4.23004 19.6033 4.65073 19.8669 5.16818C20.1667 5.75644 20.1667 6.52652 20.1667 8.06665L20.1667 13.9333C20.1667 15.4735 20.1667 16.2435 19.8669 16.8318C19.6033 17.3492 19.1826 17.7699 18.6651 18.0336C18.0769 18.3333 17.3068 18.3333 15.7667 18.3333L6.23333 18.3333C4.69318 18.3333 3.92311 18.3333 3.33485 18.0336C2.81741 17.7699 2.39671 17.3492 2.13306 16.8318C1.83333 16.2435 1.83333 15.4735 1.83333 13.9333L1.83333 8.06665C1.83333 6.52652 1.83333 5.75644 2.13306 5.16818C2.39671 4.65073 2.81741 4.23004 3.33485 3.9664C3.92311 3.66666 4.69318 3.66666 6.23333 3.66666L15.7667 3.66666ZM19.7083 16.5L13.619 11M8.38095 11L2.29169 16.5M1.83333 6.41666L9.31784 11.6558C9.92391 12.0801 10.2269 12.2922 10.5566 12.3744C10.8477 12.4469 11.1523 12.4469 11.4434 12.3744C11.773 12.2922 12.0761 12.0801 12.6821 11.6558L20.1667 6.41666" stroke="#B2BEE2" stroke-opacity="1.000000" stroke-width="1.400000" stroke-linejoin="round"/>
	</g>
</svg>
