<svg width="197.000000" height="35.000000" viewBox="0 0 197 35" fill="none" xmlns="http://www.w3.org/2000/svg" xmlns:xlink="http://www.w3.org/1999/xlink">
	<desc>
			Created with Pixso.
	</desc>
	<defs>
		<filter id="filter_5_18_dd" x="0.000000" y="0.000000" width="35.000000" height="35.000000" filterUnits="userSpaceOnUse" color-interpolation-filters="sRGB">
			<feFlood flood-opacity="0" result="BackgroundImageFix"/>
			<feBlend mode="normal" in="SourceGraphic" in2="BackgroundImageFix" result="shape"/>
			<feColorMatrix in="SourceAlpha" type="matrix" values="0 0 0 0 0 0 0 0 0 0 0 0 0 0 0 0 0 0 127 0" result="hardAlpha"/>
			<feOffset dx="0" dy="1"/>
			<feGaussianBlur stdDeviation="0.666667"/>
			<feComposite in2="hardAlpha" operator="arithmetic" k2="-1" k3="1"/>
			<feColorMatrix type="matrix" values="0 0 0 0 1 0 0 0 0 1 0 0 0 0 1 0 0 0 0.32 0"/>
			<feBlend mode="normal" in2="shape" result="effect_innerShadow_1"/>
		</filter>
		<filter id="filter_6_2_dd" x="47.000000" y="8.000000" width="150.000000" height="18.000000" filterUnits="userSpaceOnUse" color-interpolation-filters="sRGB">
			<feFlood flood-opacity="0" result="BackgroundImageFix"/>
			<feBlend mode="normal" in="SourceGraphic" in2="BackgroundImageFix" result="shape"/>
			<feColorMatrix in="SourceAlpha" type="matrix" values="0 0 0 0 0 0 0 0 0 0 0 0 0 0 0 0 0 0 127 0" result="hardAlpha"/>
			<feOffset dx="0" dy="1"/>
			<feGaussianBlur stdDeviation="1.66667"/>
			<feComposite in2="hardAlpha" operator="arithmetic" k2="-1" k3="1"/>
			<feColorMatrix type="matrix" values="0 0 0 0 1 0 0 0 0 1 0 0 0 0 1 0 0 0 0.6 0"/>
			<feBlend mode="normal" in2="shape" result="effect_innerShadow_1"/>
		</filter>
		<radialGradient id="paint_radial_5_18_0" cx="0.000000" cy="0.000000" r="1.000000" gradientUnits="userSpaceOnUse" gradientTransform="translate(26.25 8.23529) rotate(111.991) scale(28.8649 28.8648)">
			<stop stop-color="#67CFFE"/>
			<stop offset="1.000000" stop-color="#28BCFF"/>
		</radialGradient>
		<linearGradient id="paint_linear_5_18_1" x1="17.500000" y1="0.000000" x2="17.500000" y2="3.000000" gradientUnits="userSpaceOnUse">
			<stop stop-color="#FFFFFF" stop-opacity="0.478431"/>
			<stop offset="1.000000" stop-color="#FFFFFF" stop-opacity="0.000000"/>
		</linearGradient>
	</defs>
	<g filter="url(#filter_5_18_dd)">
		<mask id="mask_5_18" fill="white">
			<path id="Subtract" d="M4 0L31 0C33.2091 0 35 1.79086 35 4L35 31C35 33.2091 33.2091 35 31 35L24.8636 35L32.4205 32.1841C32.7336 32.0675 32.9412 31.7686 32.9412 31.4345L32.9412 26.2779C32.9412 25.9438 32.7336 25.6449 32.4205 25.5282L0 13.4476L0 9.22553L31.8618 21.0979C32.3846 21.2927 32.9412 20.9062 32.9412 20.3483L32.9412 15.9185C32.9412 15.5844 32.7336 15.2855 32.4205 15.1688L0.0961982 3.12408C0.495596 1.33625 2.09175 0 4 0ZM0 21.6307L0 31C0 33.0707 1.57343 34.7739 3.58993 34.9792L21.039 29.6209C21.7926 29.3895 21.7926 28.3228 21.039 28.0914L0 21.6307Z" clip-rule="evenodd" fill="" fill-opacity="1.000000" fill-rule="evenodd"/>
		</mask>
		<path id="Subtract" d="M4 0L31 0C33.2091 0 35 1.79086 35 4L35 31C35 33.2091 33.2091 35 31 35L24.8636 35L32.4205 32.1841C32.7336 32.0675 32.9412 31.7686 32.9412 31.4345L32.9412 26.2779C32.9412 25.9438 32.7336 25.6449 32.4205 25.5282L0 13.4476L0 9.22553L31.8618 21.0979C32.3846 21.2927 32.9412 20.9062 32.9412 20.3483L32.9412 15.9185C32.9412 15.5844 32.7336 15.2855 32.4205 15.1688L0.0961982 3.12408C0.495596 1.33625 2.09175 0 4 0ZM0 21.6307L0 31C0 33.0707 1.57343 34.7739 3.58993 34.9792L21.039 29.6209C21.7926 29.3895 21.7926 28.3228 21.039 28.0914L0 21.6307Z" clip-rule="evenodd" fill="url(#paint_radial_5_18_0)" fill-opacity="1.000000" fill-rule="evenodd" mask="url(#mask_5_18)"/>
	</g>
	<path id="Subtract" d="M31 0L4 0C2.09175 0 0.495596 1.33625 0.0961982 3.12408L32.4205 15.1688C32.7336 15.2855 32.9412 15.5844 32.9412 15.9185L32.9412 20.3483C32.9412 20.9062 32.3846 21.2927 31.8618 21.0979L0.3 9.33732L0 9.22553L0 13.4476L32.4205 25.5282C32.7336 25.6449 32.9412 25.9438 32.9412 26.2779L32.9412 31.4345C32.9412 31.7686 32.7336 32.0675 32.4205 32.1841L25.6687 34.7L24.8636 35L31 35C33.2091 35 35 33.2091 35 31L35 4C35 1.79086 33.2091 0 31 0ZM26.5279 34.7L31 34.7Q31.4202 34.7 31.8199 34.6095Q32.1364 34.5378 32.4401 34.4094Q32.75 34.2783 33.0269 34.0968Q33.3432 33.8894 33.6163 33.6163Q33.8895 33.3431 34.0968 33.0268Q34.2783 32.75 34.4094 32.4401Q34.5378 32.1364 34.6095 31.8198Q34.7 31.4202 34.7 31L34.7 4Q34.7 3.57978 34.6095 3.18006Q34.5378 2.86354 34.4094 2.55988Q34.2783 2.24997 34.0968 1.97312Q33.8894 1.65685 33.6163 1.38371Q33.3431 1.11051 33.0268 0.903142Q32.75 0.721692 32.4401 0.590641Q32.1364 0.462171 31.8198 0.390488Q31.4201 0.299999 31 0.299999L4 0.299999Q3.62009 0.299999 3.25543 0.374579Q2.99536 0.427767 2.74305 0.518887Q2.47575 0.615421 2.22921 0.74999Q1.93549 0.910309 1.67124 1.12461Q1.42279 1.3261 1.2151 1.56329Q1.01986 1.78627 0.860657 2.04079Q0.684801 2.32194 0.563492 2.62492Q0.502042 2.77839 0.454589 2.93748L32.5253 14.8877Q32.6867 14.9479 32.8166 15.0487Q32.9464 15.1495 33.0446 15.291Q33.1429 15.4324 33.192 15.5893Q33.2412 15.7462 33.2412 15.9185L33.2412 20.3483Q33.2412 20.504 33.2005 20.6483Q33.1681 20.7632 33.11 20.8708Q33.052 20.978 32.9742 21.0678Q32.8846 21.1712 32.7687 21.2518Q32.6527 21.3323 32.5246 21.3801Q32.4132 21.4217 32.2925 21.4385Q32.1713 21.4555 32.0523 21.4457Q31.903 21.4334 31.7571 21.3791L0.3 9.65747L0.3 13.2393L32.5253 25.2471Q32.6867 25.3073 32.8165 25.4081Q32.9464 25.5089 33.0446 25.6504Q33.1429 25.7918 33.192 25.9487Q33.2412 26.1056 33.2412 26.2779L33.2412 31.4345Q33.2412 31.6068 33.192 31.7636Q33.1429 31.9205 33.0446 32.062Q32.9464 32.2034 32.8165 32.3043Q32.6867 32.4051 32.5253 32.4652L26.5279 34.7ZM0 21.6307L0 31C0 33.0707 1.57343 34.7739 3.58993 34.9792L21.039 29.6209C21.7926 29.3895 21.7926 28.3228 21.039 28.0914L0.3 21.7228L0 21.6307ZM0.3 22.0367L0.3 31Q0.3 31.4014 0.382896 31.7848Q0.445803 32.0758 0.55645 32.3564Q0.67067 32.6461 0.829268 32.9091Q1.0147 33.2165 1.26081 33.4874Q1.50068 33.7514 1.78088 33.9616Q2.03182 34.1499 2.31511 34.2951Q2.6146 34.4485 2.93157 34.544Q3.23816 34.6363 3.56108 34.6743L20.951 29.3341Q21.0713 29.2972 21.1533 29.2196Q21.1882 29.1866 21.2162 29.1462Q21.2476 29.1007 21.2678 29.0507Q21.3042 28.9608 21.3042 28.8562Q21.3042 28.7516 21.2679 28.6617Q21.2477 28.6117 21.2162 28.5662Q21.1882 28.5258 21.1533 28.4927Q21.0713 28.4152 20.951 28.3782L0.3 22.0367Z" clip-rule="evenodd" fill="url(#paint_linear_5_18_1)" fill-opacity="1.000000" fill-rule="evenodd"/>
	<g filter="url(#filter_6_2_dd)">
		<radialGradient id="paint_radial_6_20_0" cx="0.000000" cy="0.000000" r="1.000000" gradientUnits="userSpaceOnUse" gradientTransform="translate(84.5 9.5) rotate(90) scale(14.5 120.833)">
			<stop stop-color="#5CCCFE"/>
			<stop offset="1.000000" stop-color="#29BDFF"/>
		</radialGradient>
		<path id="bitlist" d="M72.3004 13.3215C72.3004 14.6785 71.8745 15.8638 71.0228 16.8774C71.6768 17.6621 72.0798 18.5695 72.2319 19.5995C72.384 20.6294 72.2624 21.6267 71.8669 22.5913C71.4715 23.5559 70.8631 24.3242 70.0418 24.8965C69.2205 25.4523 68.3232 25.7302 67.3498 25.7302L47 25.7302L47 8L67.3498 8C68.7186 8 69.8821 8.52316 70.8403 9.56948C71.8137 10.5995 72.3004 11.8501 72.3004 13.3215ZM67.6692 21.4877C68.0342 21.4877 68.346 21.3488 68.6046 21.0708C68.8631 20.7929 68.9924 20.4578 68.9924 20.0654C68.9924 19.673 68.8631 19.3379 68.6046 19.0599C68.346 18.782 68.0342 18.6431 67.6692 18.6431L50.9468 18.6431L50.9468 21.4877L67.6692 21.4877ZM67.6692 15.0872C68.0342 15.0872 68.346 14.9482 68.6046 14.6703C68.8631 14.3924 68.9924 14.0572 68.9924 13.6648C68.9924 13.2725 68.8631 12.9455 68.6046 12.6839C68.346 12.406 68.0342 12.267 67.6692 12.267L50.9468 12.267L50.9468 15.0872L67.6692 15.0872Z" fill="url(#paint_radial_6_20_0)" fill-opacity="1.000000" fill-rule="nonzero"/>
		<radialGradient id="paint_radial_6_21_1" cx="0.000000" cy="0.000000" r="1.000000" gradientUnits="userSpaceOnUse" gradientTransform="translate(84.5 9.5) rotate(90) scale(14.5 120.833)">
			<stop stop-color="#5CCCFE"/>
			<stop offset="1.000000" stop-color="#29BDFF"/>
		</radialGradient>
		<path id="bitlist" d="M79.8289 25.7302L75.8821 25.7302L75.8821 8L79.8289 8L79.8289 25.7302Z" fill="url(#paint_radial_6_21_1)" fill-opacity="1.000000" fill-rule="nonzero"/>
		<radialGradient id="paint_radial_6_22_2" cx="0.000000" cy="0.000000" r="1.000000" gradientUnits="userSpaceOnUse" gradientTransform="translate(84.5 9.5) rotate(90) scale(14.5 120.833)">
			<stop stop-color="#5CCCFE"/>
			<stop offset="1.000000" stop-color="#29BDFF"/>
		</radialGradient>
		<path id="bitlist" d="M107.479 12.267L97.4183 12.267L97.4183 25.7302L93.4715 25.7302L93.4715 12.267L83.4106 12.267L83.4106 8L107.479 8L107.479 12.267Z" fill="url(#paint_radial_6_22_2)" fill-opacity="1.000000" fill-rule="nonzero"/>
		<path id="bitlist" d="M111.061 8L115.008 8L115.008 21.4877L131.844 21.4877L131.844 25.7302L111.061 25.7302L111.061 8Z" fill="#C8E4FF" fill-opacity="1.000000" fill-rule="nonzero"/>
		<path id="bitlist" d="M139.373 25.7302L135.426 25.7302L135.426 8L139.373 8L139.373 25.7302Z" fill="#C8E4FF" fill-opacity="1.000000" fill-rule="nonzero"/>
		<path id="bitlist" d="M157.966 15.2834C158.817 15.3978 159.471 15.4877 159.928 15.5531C160.384 15.6185 161.03 15.7166 161.867 15.8474C162.719 15.9619 163.388 16.0681 163.875 16.1662C164.361 16.2643 164.97 16.3951 165.7 16.5586C166.445 16.7057 167.038 16.861 167.479 17.0245C167.92 17.188 168.422 17.376 168.985 17.5886C169.548 17.7847 169.981 18.0054 170.285 18.2507C170.605 18.4796 170.909 18.7411 171.198 19.0354C171.502 19.3134 171.707 19.624 171.814 19.9673C171.92 20.2943 171.951 20.6458 171.905 21.0218C171.89 21.8229 171.532 22.5259 170.833 23.1308C170.118 23.7684 169.144 24.2915 167.913 24.7003C166.452 25.158 164.954 25.4768 163.418 25.6567C161.471 25.8856 159.586 26 157.76 26C156.011 26 154.217 25.861 152.376 25.5831C150.825 25.3706 149.266 24.9864 147.7 24.4305C146.285 23.891 145.183 23.2861 144.392 22.6158C144.011 22.2888 143.684 21.8065 143.411 21.1689C143.137 20.515 142.985 19.951 142.954 19.4768L146.262 19.5259L149.707 19.5504L149.707 19.5995C149.753 19.9918 149.875 20.3924 150.072 20.8011C150.392 21.4714 151.243 22.0272 152.627 22.4687C154.011 22.8937 155.738 23.1063 157.806 23.1063C159.875 23.1063 161.646 22.9019 163.122 22.4932C164.612 22.0681 165.418 21.545 165.54 20.9237C165.57 20.6948 165.433 20.4905 165.129 20.3106C164.825 20.1144 164.354 19.951 163.715 19.8202C163.076 19.673 162.399 19.5504 161.684 19.4523C160.985 19.3379 160.118 19.2153 159.084 19.0845C159.053 19.0845 159.03 19.0845 159.015 19.0845C159 19.0845 158.977 19.0845 158.947 19.0845C158.916 19.0681 158.886 19.0599 158.856 19.0599C154.445 18.4877 151.297 17.9074 149.411 17.3188C145.958 16.2398 144.217 14.6948 144.186 12.6839C144.171 12.5531 144.179 12.3651 144.209 12.1199L144.232 12.1199C144.308 11.5313 144.62 11 145.167 10.5259C145.791 10.0027 146.681 9.55313 147.837 9.17711C149.251 8.76839 150.635 8.49046 151.989 8.34332C153.738 8.14714 155.502 8.04905 157.281 8.04905C158.802 8.04905 160.316 8.12262 161.821 8.26976C162.977 8.3842 164.125 8.58038 165.266 8.85831C166.118 9.0545 166.939 9.34877 167.73 9.74115C168.262 9.98638 168.817 10.3461 169.395 10.8202C169.654 11.049 169.882 11.2943 170.08 11.5559C170.46 11.9319 170.741 12.8147 170.924 14.2044L164.422 14.2044C164.407 14.188 164.392 14.1553 164.376 14.1063C164.361 14.0572 164.354 14.0245 164.354 14.0082C164.247 13.6812 164.118 13.4278 163.966 13.248C163.433 12.4796 162.62 11.9482 161.525 11.6539C160.43 11.3597 159.023 11.2125 157.304 11.2125C155.51 11.2125 153.966 11.4169 152.673 11.8256C151.38 12.218 150.673 12.7003 150.551 13.2725C150.521 13.6812 151.046 14.0327 152.125 14.327C153.008 14.5722 154.954 14.891 157.966 15.2834Z" fill="#C8E4FF" fill-opacity="1.000000" fill-rule="nonzero"/>
		<path id="bitlist" d="M197 12.267L186.939 12.267L186.939 25.7302L182.992 25.7302L182.992 12.267L172.932 12.267L172.932 8L197 8L197 12.267Z" fill="#C8E4FF" fill-opacity="1.000000" fill-rule="nonzero"/>
	</g>
</svg>
