<svg width="175" height="60" viewBox="0 0 175 60" fill="none" xmlns="http://www.w3.org/2000/svg">
<g id="Group">
<path id="Vector" d="M118.293 34.5119C121.033 32.6976 132.195 34.3655 140.705 37.9099C143.206 38.9264 145.086 39.5065 144.889 39.1846C140.392 31.3002 135.023 23.3307 139.59 21.7974C143.059 20.6785 144.141 21.3308 146.901 26.421C152.004 35.808 161.497 48.64 166.697 53.2305C172.853 58.6484 168.293 60.1347 156.337 56.595C147.432 54.0106 134.455 52.3066 124.24 52.4853C118.813 52.574 116.948 51.8981 118.598 50.4508C122.522 47.0203 142.461 49.2123 147.89 49.7555C146.609 49.1212 137.24 43.1605 125.1 40.1757C116.274 38.0409 114.833 36.8472 118.293 34.5119Z" fill="black"/>
<path id="Vector_2" d="M110.252 32.4005C112.043 33.5509 108.207 36.4116 104.636 36.5915C80.5806 37.8008 74.8489 37.3081 77.0762 34.3458C79.1082 31.6937 106.716 30.1072 110.252 32.4005Z" fill="black"/>
<path id="Vector_3" d="M13.6897 21.195C25.8976 26.6202 29.8247 26.6895 28.2169 28.8237C25.4401 32.4791 3.92569 27.0812 2.20077 22.2961C0.78444 18.3846 6.3257 17.8755 13.6897 21.195Z" fill="black"/>
<path id="Vector_4" d="M63.4667 30.989C76.0214 32.2393 69.5364 36.0049 55.9557 35.666C43.1516 35.398 35.2611 33.2611 37.2858 30.6565C39.5059 27.7416 43.5457 28.9947 63.4667 30.989Z" fill="black"/>
</g>
</svg>
