<svg width="82" height="77" viewBox="0 0 82 77" fill="none" xmlns="http://www.w3.org/2000/svg">
<g id="Group">
<path id="Vector" d="M54.8434 28.3903C62.7544 23.4193 66.9123 17.1961 61.7977 17.9171C59.1485 18.2966 50.0601 25.9238 50.0601 27.7452C50.0601 29.339 52.7829 29.6805 54.8434 28.3903Z" fill="black"/>
<path id="Vector_2" d="M0.680515 74.6472C-0.864887 75.7856 0.349361 77 3.03542 77C6.64136 76.9621 10.836 72.1807 23.9351 69.2588C30.08 67.8927 30.3375 67.8169 30.4847 67.058C30.8894 64.9709 21.8378 65.578 14.5523 68.1204C14.074 68.2722 21.4331 61.0245 23.0521 59.0892C24.8918 56.8883 25.4437 55.5982 24.8182 55.1428C22.9049 53.7009 20.182 54.9531 16.0609 59.1272C14.258 60.9486 12.8966 62.1629 12.9701 61.8214C15.8034 53.2835 15.7666 51.2342 12.7494 51.2342C10.5784 51.2342 9.29061 53.2074 7.15649 59.9619C5.53749 65.0847 1.63719 73.9263 0.680515 74.6472Z" fill="black"/>
<path id="Vector_3" d="M70.4812 12.9083C73.94 10.7454 82.1452 2.16949 81.998 0.955207C81.4829 -2.83944 69.1933 5.47083 66.0289 11.8079C65.1458 13.5914 68.1999 14.3882 70.4812 12.9083Z" fill="black"/>
<path id="Vector_4" d="M34.5324 47.857C37.3288 46.1115 45.2766 39.1673 45.2766 38.4842C45.2766 37.0423 41.6707 36.4727 39.6469 37.5731C38.3959 38.2562 29.5282 46.5289 29.0499 47.4775C27.9092 49.6782 31.2576 49.9439 34.5324 47.857Z" fill="black"/>
</g>
</svg>
