<svg width="103" height="102" viewBox="0 0 103 102" fill="none" xmlns="http://www.w3.org/2000/svg">
<g id="Group">
<path id="Vector" d="M52.7678 35.4772C53.9773 27.0814 52.1144 20.5468 49.6075 24.5097C48.3131 26.566 48.2498 37.3376 49.5102 38.4081C50.613 39.3448 52.4496 37.6613 52.7678 35.4772Z" fill="black"/>
<path id="Vector_2" d="M52.9453 100.143C52.8248 101.881 54.3788 101.754 55.9574 99.8958C58.0504 97.3782 57.2069 91.6655 62.8834 80.8838C65.5494 75.8288 65.6484 75.606 65.2097 75.0582C64.0033 73.5515 59.1037 80.1719 56.5813 86.7076C56.4053 87.1278 55.7149 77.7759 55.3272 75.5182C54.8854 72.9516 54.317 71.8115 53.6343 71.9767C51.512 72.4533 50.7783 75.0734 51.2448 80.3783C51.4456 82.6964 51.4857 84.3522 51.2927 84.1005C47.0496 77.1222 45.6099 75.9433 43.8367 78.0311C42.5608 79.5334 43.1694 81.5842 46.5892 87.0307C49.1826 91.1617 53.0086 99.0569 52.9453 100.143Z" fill="black"/>
<path id="Vector_3" d="M51.2448 15.5574C51.7808 11.8928 50.6686 1.17477 49.7419 0.562978C46.8133 -1.31069 45.3412 12.0776 47.8667 17.9916C48.5818 19.6509 50.9281 18.0058 51.2448 15.5574Z" fill="black"/>
<path id="Vector_4" d="M54.3017 60.9731C54.7373 58.0121 54.603 48.4312 54.1303 48.0298C53.1325 47.1823 50.6191 49.3428 50.1913 51.39C49.9287 52.6571 50.4417 63.6554 50.8171 64.5439C51.6695 66.6266 53.8212 64.4657 54.3017 60.9731Z" fill="black"/>
</g>
</svg>
