<svg width="82" height="77" viewBox="0 0 82 77" fill="none" xmlns="http://www.w3.org/2000/svg">
<g id="Group">
<path id="Vector" d="M27.1567 28.3903C19.2457 23.4193 15.0879 17.1961 20.2024 17.9171C22.8517 18.2966 31.9401 25.9238 31.9401 27.7452C31.9401 29.339 29.2172 29.6805 27.1567 28.3903Z" fill="black"/>
<path id="Vector_2" d="M81.3195 74.6472C82.8649 75.7856 81.6507 77 78.9646 77C75.3587 76.9621 71.164 72.1807 58.0649 69.2588C51.92 67.8927 51.6625 67.8169 51.5153 67.058C51.1106 64.9709 60.1622 65.578 67.4477 68.1204C67.926 68.2722 60.5669 61.0245 58.948 59.0892C57.1082 56.8883 56.5563 55.5982 57.1818 55.1428C59.0951 53.7009 61.818 54.9531 65.9391 59.1272C67.742 60.9486 69.1035 62.1629 69.0299 61.8214C66.1966 53.2835 66.2334 51.2342 69.2506 51.2342C71.4216 51.2342 72.7094 53.2074 74.8435 59.9619C76.4625 65.0847 80.3628 73.9263 81.3195 74.6472Z" fill="black"/>
<path id="Vector_3" d="M11.5188 12.9083C8.06005 10.7454 -0.145227 2.16949 0.0019542 0.955207C0.517088 -2.83944 12.8067 5.47083 15.9711 11.8079C16.8542 13.5914 13.8001 14.3882 11.5188 12.9083Z" fill="black"/>
<path id="Vector_4" d="M47.4676 47.857C44.6712 46.1115 36.7234 39.1673 36.7234 38.4842C36.7234 37.0423 40.3293 36.4727 42.3531 37.5731C43.6041 38.2562 52.4718 46.5289 52.9501 47.4775C54.0908 49.6782 50.7424 49.9439 47.4676 47.857Z" fill="black"/>
</g>
</svg>
