<svg width="38" height="43" viewBox="0 0 38 43" fill="none" xmlns="http://www.w3.org/2000/svg">
<g id="Group">
<path id="Vector" fill-rule="evenodd" clip-rule="evenodd" d="M34.3232 0.107082C26.9339 0.340332 22.4233 0.550382 22.4116 4.35657C22.4043 6.75543 22.8832 7.04486 25.5081 6.38121C27.4927 5.87553 31.1401 5.53473 34.0194 5.31966C39.0422 4.95122 38.2577 -0.00880798 34.3232 0.107082ZM25.8794 20.8715C25.5611 20.3588 23.7063 20.2891 19.2913 20.6594L16.6996 20.8754L16.5176 17.6443C16.3658 14.9891 16.4091 11.3109 18.3993 8.98212C20.6786 6.27037 18.6412 3.09767 16.1709 5.52097C12.6742 8.90068 10.9559 16.4438 12.6693 20.927C12.7961 21.311 12.6676 21.5029 12.1235 21.5972C11.0034 21.8176 6.2357 22.4427 3.70812 22.6909C-0.0351793 23.0312 -1.32542 26.6736 1.83706 27.9947C6.66059 30.0245 12.4656 35.2239 14.9786 39.7415C16.8553 43.1376 17.1435 43.0426 18.3719 38.8243C19.665 34.3823 20.6313 32.2103 22.9448 28.731C25.7089 24.3895 26.6114 22.0573 25.8794 20.8715Z" fill="black"/>
</g>
</svg>
