<svg width="39" height="43" viewBox="0 0 39 43" fill="none" xmlns="http://www.w3.org/2000/svg">
<g id="Group">
<path id="Vector" fill-rule="evenodd" clip-rule="evenodd" d="M3.38658 0.0124109C10.8672 0.291202 15.4332 0.529051 15.4215 4.33524C15.4142 6.7341 14.9274 7.02057 12.2737 6.34076C10.2673 5.82285 6.57622 5.45958 3.66207 5.22676C-1.42153 4.82737 -0.596633 -0.127729 3.38658 0.0124109ZM11.8084 20.8285C12.1338 20.3177 14.0123 20.2595 18.4806 20.657L21.1034 20.889L21.3076 17.6591C21.4777 15.0049 21.4566 11.3265 19.4557 8.98543C17.1645 6.25968 19.2471 3.0996 21.7334 5.53808C25.2532 8.93928 26.9466 16.4929 25.184 20.9654C25.0533 21.3487 25.1822 21.5413 25.7325 21.6389C26.8654 21.8663 31.6891 22.5208 34.2469 22.7845C38.0351 23.1479 39.3191 26.7982 36.1088 28.0997C31.2121 30.0998 25.3022 35.2633 22.7298 39.7653C20.8085 43.1498 20.5174 43.053 19.2996 38.8272C18.0176 34.3773 17.0526 32.1994 14.7314 28.7059C11.9594 24.3475 11.0599 22.0098 11.8084 20.8285Z" fill="black"/>
</g>
</svg>
