<svg width="1506" height="6" viewBox="0 0 1506 6" fill="none" xmlns="http://www.w3.org/2000/svg">
<path d="M0.333333 3C0.333333 4.47276 1.52724 5.66667 3 5.66667C4.47276 5.66667 5.66667 4.47276 5.66667 3C5.66667 1.52724 4.47276 0.333333 3 0.333333C1.52724 0.333333 0.333333 1.52724 0.333333 3ZM1500.33 3C1500.33 4.47276 1501.53 5.66667 1503 5.66667C1504.47 5.66667 1505.67 4.47276 1505.67 3C1505.67 1.52724 1504.47 0.333333 1503 0.333333C1501.53 0.333333 1500.33 1.52724 1500.33 3ZM3 3.5H1503V2.5H3V3.5Z" fill="#929292"/>
</svg>
