<svg width="69" height="71" viewBox="0 0 69 71" fill="none" xmlns="http://www.w3.org/2000/svg">
<path d="M42.91 69.1H3.43998C2.63998 69.1 1.97998 68.45 1.97998 67.64V29.22C1.97998 27.84 3.09998 26.72 4.47998 26.72H42.91C43.71 26.72 44.37 27.37 44.37 28.18V67.65C44.37 68.45 43.71 69.1 42.91 69.1Z" fill="url(#paint0_linear_1_120)" stroke="#BF2700" stroke-width="3" stroke-miterlimit="10"/>
<path d="M44.32 27.09L3.70003 26.72C3.60003 26.72 3.55003 26.6 3.62003 26.53L26.8 1.84997C26.88 1.76997 26.98 1.71997 27.09 1.71997H67.09C67.19 1.71997 67.24 1.82997 67.17 1.89997L44.4 27.06C44.38 27.08 44.35 27.1 44.32 27.09Z" fill="url(#paint1_linear_1_120)" stroke="#BF2700" stroke-width="3" stroke-miterlimit="10"/>
<path d="M66.89 48.32L44.72 68.77C44.58 68.9 44.36 68.8 44.36 68.61V26.71L67.24 1.81999C67.27 1.78999 67.33 1.80999 67.33 1.84999V47.3C67.34 47.69 67.17 48.06 66.89 48.32Z" fill="url(#paint2_linear_1_120)" stroke="#BF2700" stroke-width="3" stroke-miterlimit="10"/>
<path d="M23.17 26.72V69.1" stroke="#BF2700" stroke-width="3" stroke-miterlimit="10"/>
<path d="M1.97998 48.53H44.37" stroke="#BF2700" stroke-width="3" stroke-miterlimit="10"/>
<path d="M44.37 49.1L67.34 26.08" stroke="#BF2700" stroke-width="3" stroke-miterlimit="10"/>
<path d="M22.9 26.9L45.88 1.72998" stroke="#BF2700" stroke-width="3" stroke-miterlimit="10"/>
<defs>
<linearGradient id="paint0_linear_1_120" x1="23.1739" y1="69.1011" x2="23.1739" y2="26.7181" gradientUnits="userSpaceOnUse">
<stop offset="0.1928" stop-color="#F94B18"/>
<stop offset="0.2461" stop-color="#F95421"/>
<stop offset="0.4467" stop-color="#F7733E"/>
<stop offset="0.6426" stop-color="#F78953"/>
<stop offset="0.8301" stop-color="#F69660"/>
<stop offset="1" stop-color="#F69B64"/>
</linearGradient>
<linearGradient id="paint1_linear_1_120" x1="35.3903" y1="27.0947" x2="35.3903" y2="1.72867" gradientUnits="userSpaceOnUse">
<stop offset="5.29819e-09" stop-color="#F94B18"/>
<stop offset="0.0591" stop-color="#F8602C"/>
<stop offset="0.1418" stop-color="#F77640"/>
<stop offset="0.2395" stop-color="#F78751"/>
<stop offset="0.3602" stop-color="#F6925C"/>
<stop offset="0.5296" stop-color="#F69962"/>
<stop offset="1" stop-color="#F69B64"/>
</linearGradient>
<linearGradient id="paint2_linear_1_120" x1="55.8511" y1="68.8298" x2="55.8511" y2="1.80829" gradientUnits="userSpaceOnUse">
<stop offset="0.1826" stop-color="#F94B18"/>
<stop offset="0.4026" stop-color="#F86B36"/>
<stop offset="0.6332" stop-color="#F7854F"/>
<stop offset="0.8397" stop-color="#F6955F"/>
<stop offset="1" stop-color="#F69B64"/>
</linearGradient>
</defs>
</svg>
