<svg width="62" height="62" viewBox="0 0 62 62" fill="none" xmlns="http://www.w3.org/2000/svg">
<path d="M30.97 61.94C48.0743 61.94 61.94 48.0743 61.94 30.97C61.94 13.8657 48.0743 0 30.97 0C13.8658 0 0 13.8657 0 30.97C0 48.0743 13.8658 61.94 30.97 61.94Z" fill="#FD6363"/>
<path d="M42.54 45.15C41.82 45.15 41.1 44.88 40.55 44.33L17.51 21.29C16.41 20.19 16.41 18.42 17.51 17.32C18.61 16.22 20.38 16.22 21.48 17.32L44.52 40.36C45.62 41.46 45.62 43.23 44.52 44.33C43.97 44.87 43.26 45.15 42.54 45.15Z" fill="white"/>
<path d="M19.12 45.43C18.4 45.43 17.68 45.16 17.13 44.61C16.03 43.51 16.03 41.74 17.13 40.64L40.55 17.22C41.65 16.12 43.42 16.12 44.52 17.22C45.62 18.32 45.62 20.09 44.52 21.19L21.1 44.61C20.56 45.16 19.84 45.43 19.12 45.43Z" fill="white"/>
</svg>
