<svg width="64" height="64" viewBox="0 0 64 64" fill="none" xmlns="http://www.w3.org/2000/svg">
<path d="M32.22 62.44C48.91 62.44 62.44 48.91 62.44 32.22C62.44 15.53 48.91 2 32.22 2C15.53 2 2 15.53 2 32.22C2 48.91 15.53 62.44 32.22 62.44Z" stroke="white" stroke-width="3" stroke-miterlimit="10"/>
<path d="M53 29.11V31.42L50 33.15V41.24L32 51.63L21 45.28V42.97L19 41.81L17 42.97L14 41.24V27.38L11 27.96V25.65L29 15.26L41 12.95L53 29.11Z" stroke="white" stroke-width="0.5" stroke-miterlimit="10" stroke-linejoin="round"/>
<path d="M11 25.65L23 23.34L35 39.506L53 29.11" stroke="white" stroke-width="0.5" stroke-miterlimit="10" stroke-linejoin="round"/>
<path d="M50 33.15L35 41.815L23 25.649L14 27.38" stroke="white" stroke-width="0.5" stroke-miterlimit="10" stroke-linejoin="round"/>
<path d="M23 23.34L41 12.95" stroke="white" stroke-width="0.5" stroke-miterlimit="10" stroke-linejoin="round"/>
<path d="M17 42.97V33.732L21 36.041V42.97" stroke="white" stroke-width="0.5" stroke-miterlimit="10" stroke-linejoin="round"/>
<path d="M19 41.81V34.887" stroke="white" stroke-width="0.5" stroke-miterlimit="10" stroke-linejoin="round"/>
<path d="M24 35.464V41.238L29 44.124V38.351L24 35.464Z" stroke="white" stroke-width="0.5" stroke-miterlimit="10" stroke-linejoin="round"/>
<path d="M26 36.619V40.083L29 41.815" stroke="white" stroke-width="0.5" stroke-miterlimit="10" stroke-linejoin="round"/>
<path d="M24 41.238L26 40.083" stroke="white" stroke-width="0.5" stroke-miterlimit="10" stroke-linejoin="round"/>
<path d="M35 39.506V41.815" stroke="white" stroke-width="0.5" stroke-miterlimit="10" stroke-linejoin="round"/>
<path d="M32 37.774V51.63" stroke="white" stroke-width="0.5" stroke-miterlimit="10" stroke-linejoin="round"/>
<path d="M41 12.95L53 29.11V31.42L50 33.15V41.24L32 51.63L21 45.28V42.97L19 41.81L17 42.97L14 41.24V27.38L11 27.96V25.65L29 15.26L41 12.95ZM41.428 11.849L40.811 11.968L28.811 14.278L28.646 14.31L28.5 14.394L10.5 24.784L10 25.073V25.65V27.96V29.172L11.19 28.942L13 28.592V41.24V41.818L13.5 42.107L16.5 43.837L17.001 44.126L17.501 43.836L19 42.966L20 43.546V45.28V45.857L20.5 46.146L31.5 52.496L32 52.785L32.5 52.496L50.5 42.106L51 41.817V41.24V33.728L53.5 32.287L54 31.998V31.42V29.11V28.779L53.803 28.513L41.803 12.353L41.428 11.849Z" fill="white"/>
</svg>
