<svg width="67" height="21" viewBox="0 0 67 21" fill="none" xmlns="http://www.w3.org/2000/svg">
<path d="M9.98001 18.91C14.5861 18.91 18.32 15.176 18.32 10.57C18.32 5.96394 14.5861 2.22998 9.98001 2.22998C5.37396 2.22998 1.64001 5.96394 1.64001 10.57C1.64001 15.176 5.37396 18.91 9.98001 18.91Z" stroke="#6B6B6B" stroke-width="3" stroke-miterlimit="10"/>
<path d="M33.36 18.91C37.966 18.91 41.7 15.176 41.7 10.57C41.7 5.96394 37.966 2.22998 33.36 2.22998C28.7539 2.22998 25.02 5.96394 25.02 10.57C25.02 15.176 28.7539 18.91 33.36 18.91Z" stroke="#6B6B6B" stroke-width="3" stroke-miterlimit="10"/>
<path d="M56.19 19.17C60.7961 19.17 64.53 15.436 64.53 10.83C64.53 6.22393 60.7961 2.48999 56.19 2.48999C51.5839 2.48999 47.85 6.22393 47.85 10.83C47.85 15.436 51.5839 19.17 56.19 19.17Z" stroke="#6B6B6B" stroke-width="3" stroke-miterlimit="10"/>
</svg>
