<svg width="62" height="59" viewBox="0 0 62 59" fill="none" xmlns="http://www.w3.org/2000/svg">
<path d="M48.14 58.6C47.81 58.6 47.48 58.52 47.17 58.36L30.68 49.69L14.19 58.36C13.49 58.73 12.65 58.67 12.01 58.2C11.37 57.73 11.05 56.96 11.18 56.17L14.33 37.8L0.989962 24.8C0.419962 24.24 0.219962 23.43 0.469962 22.67C0.719962 21.91 1.35996 21.37 2.13996 21.26L20.58 18.58L28.83 1.87001C29.18 1.16001 29.89 0.710022 30.69 0.710022C31.49 0.710022 32.2 1.15002 32.55 1.86002L40.8 18.57L59.24 21.25C60.03 21.36 60.67 21.91 60.91 22.66C61.16 23.42 60.96 24.23 60.39 24.78L47.05 37.79L50.2 56.16C50.33 56.94 50.02 57.72 49.38 58.19C48.99 58.46 48.57 58.6 48.14 58.6ZM4.41996 23.96L16.77 36C17.26 36.48 17.48 37.16 17.37 37.83L14.45 54.83L29.71 46.8C30.32 46.49 31.03 46.49 31.63 46.8L46.9 54.83L43.98 37.83C43.86 37.16 44.09 36.47 44.58 35.99L56.93 23.95L39.87 21.47C39.19 21.37 38.61 20.95 38.31 20.34L30.68 4.88002L23.05 20.34C22.75 20.95 22.17 21.38 21.49 21.47L4.41996 23.96Z" fill="#6B6B6B"/>
</svg>
