<svg width="13" height="13" viewBox="0 0 13 13" fill="none" xmlns="http://www.w3.org/2000/svg">
<path d="M4.33333 0C4.51741 0.000204178 4.69447 0.0706905 4.82832 0.197057C4.96218 0.323424 5.04273 0.496133 5.05351 0.679896C5.0643 0.86366 5.00451 1.04461 4.88636 1.18577C4.76822 1.32693 4.60062 1.41765 4.41783 1.43939L4.33333 1.44444H1.44444V11.5556H11.5556V5.05556C11.5558 4.87148 11.6262 4.69442 11.7526 4.56057C11.879 4.42671 12.0517 4.34616 12.2355 4.33538C12.4192 4.32459 12.6002 4.38438 12.7413 4.50252C12.8825 4.62067 12.9732 4.78826 12.9949 4.97106L13 5.05556V11.5556C13.0001 11.92 12.8625 12.271 12.6147 12.5382C12.3669 12.8054 12.0273 12.9691 11.6639 12.9964L11.5556 13H1.44444C1.08003 13.0001 0.729035 12.8625 0.461827 12.6147C0.194618 12.3669 0.0309425 12.0273 0.00361127 11.6639L7.24158e-08 11.5556V1.44444C-0.000115252 1.08003 0.137516 0.729035 0.385303 0.461826C0.633091 0.194618 0.972721 0.0309424 1.33611 0.00361119L1.44444 0H4.33333ZM11.9261 0C12.3753 0 12.6367 0.338 12.7024 0.618222C12.7682 0.899167 12.6844 1.3195 12.2799 1.51883L11.9809 1.67122L11.8625 1.73478L11.6003 1.87994L11.3078 2.05039L10.9908 2.24539C10.4982 2.55594 9.93633 2.95028 9.37156 3.42767C8.177 4.43806 7.01856 5.78283 6.46317 7.45044C6.40264 7.63222 6.27238 7.78251 6.10104 7.86824C5.92971 7.95398 5.73133 7.96814 5.54956 7.90761C5.36778 7.84708 5.21749 7.71682 5.13176 7.54549C5.04602 7.37415 5.03186 7.17578 5.09239 6.994C5.76261 4.98333 7.13122 3.43128 8.43917 2.32483C8.75044 2.06122 9.06172 1.82072 9.36217 1.60261L9.58606 1.44444H7.94444C7.76036 1.44424 7.58331 1.37375 7.44946 1.24739C7.3156 1.12102 7.23505 0.948312 7.22426 0.764548C7.21348 0.580785 7.27326 0.399837 7.39141 0.258676C7.50956 0.117516 7.67715 0.0267971 7.85994 0.00505553L7.94444 0H11.9261Z" fill="white"/>
</svg>
