<svg width="64" height="65" viewBox="0 0 64 65" fill="none" xmlns="http://www.w3.org/2000/svg">
<path d="M38.9199 35.03C41.9899 32.81 43.9999 29.2 43.9999 25.12C43.9999 18.37 38.5299 12.9 31.7799 12.9C25.0299 12.9 19.5599 18.37 19.5599 25.12C19.5599 29.2 21.5599 32.81 24.6399 35.03" stroke="white" stroke-width="3" stroke-miterlimit="10"/>
<path d="M38.92 35.03C36.91 36.48 34.44 37.34 31.78 37.34C29.11 37.34 26.65 36.48 24.64 35.03C16.81 37.54 10.77 44.07 8.95996 52.19C14.41 58.72 22.61 62.87 31.78 62.87C40.95 62.87 49.15 58.72 54.6 52.19C52.79 44.07 46.75 37.54 38.92 35.03Z" stroke="white" stroke-width="3" stroke-miterlimit="10"/>
<path d="M31.7801 62.87C48.4701 62.87 62.0001 49.34 62.0001 32.65C62.0001 15.9599 48.4701 2.42999 31.7801 2.42999C15.09 2.42999 1.56006 15.9599 1.56006 32.65C1.56006 49.34 15.09 62.87 31.7801 62.87Z" stroke="white" stroke-width="3" stroke-miterlimit="10"/>
</svg>
