<svg width="175" height="67" viewBox="0 0 175 67" fill="none" xmlns="http://www.w3.org/2000/svg">
<g id="Group">
<path id="Vector" d="M56.2027 38.6387C53.3918 36.8997 42.298 38.9806 33.9293 42.8665C31.4687 43.983 29.6129 44.6362 29.7967 44.3036C33.9809 36.1684 39.0343 27.9163 34.408 26.5259C30.895 25.5162 29.8398 26.2143 27.2807 31.4614C22.5503 41.1382 13.5654 54.4551 8.5479 59.2827C2.60772 64.981 7.22503 66.324 19.0392 62.3214C27.8396 59.3929 40.7465 57.2115 50.9667 57.0322C56.3964 56.9307 58.2335 56.1811 56.5269 54.775C52.4687 51.4426 32.62 54.3632 27.214 55.1041C28.4692 54.4172 37.6011 48.0565 49.6207 44.6088C58.3603 42.1379 59.7539 40.8795 56.2027 38.6387Z" fill="black"/>
<path id="Vector_2" d="M64.1597 36.2189C62.4137 37.4459 66.3617 40.205 69.9393 40.261C94.0376 40.6366 99.7486 39.9362 97.4048 37.0177C95.2685 34.4061 67.6037 33.7742 64.1597 36.2189Z" fill="black"/>
<path id="Vector_3" d="M160.258 21.4794C148.267 27.3985 144.343 27.607 146.035 29.7095C148.955 33.3099 170.252 27.0904 171.788 22.1884C173.049 18.1812 167.489 17.8614 160.258 21.4794Z" fill="black"/>
<path id="Vector_4" d="M110.878 33.1424C98.3755 34.8498 105.008 38.4309 118.572 37.6094C131.363 36.8869 139.167 34.447 137.04 31.8831C134.706 29.0124 130.716 30.4225 110.878 33.1424Z" fill="black"/>
</g>
</svg>
