<svg width="15" height="14" viewBox="0 0 15 14" fill="none" xmlns="http://www.w3.org/2000/svg">
<g id="streamlinehq-mail-send-email-message-&#10;          solid-48-ico_U5Fh8sZLbtYw3R1t" clip-path="url(#clip0_25_84)">
<path id="Vector" d="M2.20482 0.866361C1.55404 0.640672 0.954904 1.25325 1.20368 1.89838C1.80101 3.44745 2.5275 4.98372 2.87012 5.68828C3.01161 5.97924 3.26083 6.20117 3.56266 6.31295L5.68868 7.10036L3.56266 7.88777C3.26083 7.99957 3.01161 8.22148 2.87012 8.51246C2.5275 9.217 1.80101 10.7533 1.20368 12.3024C0.954904 12.9475 1.55404 13.5601 2.20482 13.3344C4.39161 12.576 9.00501 10.7846 12.9765 7.97436C13.5835 7.54477 13.5835 6.65595 12.9765 6.22639C9.00501 3.41612 4.39158 1.62473 2.20482 0.866361Z" fill="white"/>
</g>
<defs>
<clipPath id="clip0_25_84">
<rect width="13.6" height="13.6" fill="white" transform="translate(0.599976 0.300049)"/>
</clipPath>
</defs>
</svg>
