<svg width="537" height="470" viewBox="0 0 537 470" fill="none" xmlns="http://www.w3.org/2000/svg">
<path opacity="0.1" fill-rule="evenodd" clip-rule="evenodd" d="M537 470L0 470L0 0L537 0L537 470ZM536.161 469.161H470.714V403.696H536.161V469.161ZM469.036 469.161H403.589V403.696H469.036V469.161ZM336.464 469.161H401.911V403.696H336.464V469.161ZM334.786 469.161L269.339 469.161V403.696H334.786V469.161ZM202.214 469.161H267.661V403.696L202.214 403.696V469.161ZM200.536 469.161H135.089V403.696H200.536V469.161ZM67.9641 469.161H133.411V403.696H67.9641V469.161ZM66.2859 469.161H0.83905V403.696H66.2859V469.161ZM470.714 402.018H536.161V336.554H470.714V402.018ZM469.036 402.018H403.589V336.554H469.036V402.018ZM336.464 402.018H401.911V336.554H336.464V402.018ZM334.786 402.018H269.339V336.554H334.786V402.018ZM202.214 402.018L267.661 402.018V336.554H202.214V402.018ZM200.536 402.018H135.089V336.554L200.536 336.554V402.018ZM67.9641 402.018H133.411V336.554H67.9641V402.018ZM66.2859 402.018H0.83905V336.554H66.2859V402.018ZM470.714 334.875H536.161V269.411H470.714V334.875ZM469.036 334.875H403.589V269.411H469.036V334.875ZM336.464 334.875H401.911V269.411H336.464V334.875ZM334.786 334.875H269.339V269.411H334.786V334.875ZM202.214 334.875H267.661V269.411H202.214V334.875ZM200.536 334.875L135.089 334.875V269.411L200.536 269.411V334.875ZM67.9641 334.875H133.411V269.411H67.9641V334.875ZM66.2859 334.875H0.83905V269.411H66.2859V334.875ZM470.714 267.732H536.161V202.268H470.714V267.732ZM469.036 267.732H403.589V202.268H469.036V267.732ZM336.464 267.732H401.911V202.268H336.464V267.732ZM334.786 267.732H269.339L269.339 202.268L334.786 202.268V267.732ZM202.214 267.732H267.661L267.661 202.268H202.214L202.214 267.732ZM200.536 267.732L135.089 267.732L135.089 202.268H200.536L200.536 267.732ZM67.9641 267.732H133.411L133.411 202.268H67.9641L67.9641 267.732ZM66.2859 267.732H0.83905V202.268H66.2859L66.2859 267.732ZM470.714 200.589H536.161V135.125H470.714L470.714 200.589ZM469.036 200.589H403.589V135.125H469.036L469.036 200.589ZM336.464 200.589H401.911V135.125H336.464V200.589ZM334.786 200.589L269.339 200.589V135.125L334.786 135.125V200.589ZM202.214 200.589H267.661V135.125H202.214V200.589ZM200.536 200.589H135.089V135.125H200.536V200.589ZM67.9641 200.589H133.411V135.125H67.9641V200.589ZM66.2859 200.589H0.83905V135.125H66.2859V200.589ZM470.714 133.446H536.161V67.9821H470.714V133.446ZM469.036 133.446H403.589L403.589 67.9821H469.036V133.446ZM336.464 133.446H401.911L401.911 67.9821H336.464L336.464 133.446ZM334.786 133.446L269.339 133.446V67.9821L334.786 67.9821L334.786 133.446ZM202.214 133.446H267.661V67.9821H202.214V133.446ZM200.536 133.446H135.089V67.9821H200.536V133.446ZM67.9641 133.446H133.411V67.9821H67.9641V133.446ZM66.2859 133.446H0.83905V67.9821H66.2859V133.446ZM470.714 66.3036H536.161L536.161 0.839264H470.714V66.3036ZM469.036 66.3036H403.589V0.839264H469.036V66.3036ZM336.464 66.3036H401.911V0.839264H336.464V66.3036ZM334.786 66.3036L269.339 66.3036V0.839264L334.786 0.839264V66.3036ZM202.214 66.3036H267.661V0.839264H202.214V66.3036ZM200.536 66.3036H135.089V0.839264H200.536V66.3036ZM67.9641 66.3036H133.411V0.839264H67.9641V66.3036ZM66.2859 66.3036H0.83905L0.83905 0.839264H66.2859V66.3036Z" fill="url(#paint0_linear_2_173)" fill-opacity="0.3"/>
<defs>
<linearGradient id="paint0_linear_2_173" x1="268.5" y1="470" x2="461.981" y2="251.983" gradientUnits="userSpaceOnUse">
<stop stop-color="white"/>
<stop offset="1" stop-color="white" stop-opacity="0"/>
</linearGradient>
</defs>
</svg>
