<svg width="45" height="45" viewBox="0 0 45 45" fill="none" xmlns="http://www.w3.org/2000/svg">
<path d="M45 45H0V0H36.6279L40.814 4.5L45 9V45Z" fill="white"/>
<path d="M17.4165 19.4506H13.2462V32.8342H17.4165V19.4506Z" fill="#8A35F2"/>
<path d="M15.282 17.7064C16.621 17.7064 17.7066 16.6209 17.7066 15.2819C17.7066 13.9428 16.621 12.8573 15.282 12.8573C13.9429 12.8573 12.8574 13.9428 12.8574 15.2819C12.8574 16.6209 13.9429 17.7064 15.282 17.7064Z" fill="#8A35F2"/>
<path d="M24.0112 25.7522C24.0112 23.9095 24.884 22.7457 26.5327 22.7457C28.0844 22.7457 28.7633 23.8125 28.7633 25.7522C28.7633 27.6918 28.7633 32.7349 28.7633 32.7349H32.8366C32.8366 32.7349 32.8366 27.8858 32.8366 24.2974C32.8366 20.7091 30.7999 18.9634 27.9874 18.9634C25.1749 18.9634 23.9142 21.194 23.9142 21.194V19.3513H19.9379V32.7349H23.9142C24.0111 32.8319 24.0112 27.8858 24.0112 25.7522Z" fill="#8A35F2"/>
</svg>
