<svg width="45" height="45" viewBox="0 0 45 45" fill="none" xmlns="http://www.w3.org/2000/svg">
<path d="M0 45H45V0H8.37209L4.18605 4.5L0 9V45Z" fill="white"/>
<path d="M22.5293 13.6074C25.4388 13.6074 25.8267 13.6074 26.9905 13.7044C28.0573 13.8014 28.6392 13.8984 29.0271 14.0924C29.5121 14.2863 29.9 14.4803 30.2879 14.8682C30.6759 15.2561 30.8698 15.6441 31.0638 16.129C31.2578 16.5169 31.3547 17.0988 31.4517 18.1656C31.5487 19.3294 31.5487 19.6204 31.5487 22.6268C31.5487 25.5363 31.5487 25.9242 31.4517 27.088C31.3547 28.1549 31.2578 28.7367 31.0638 29.1247C30.8698 29.6096 30.6759 29.9975 30.2879 30.3855C29.9 30.7734 29.5121 30.9674 29.0271 31.1613C28.6392 31.3553 28.0573 31.4523 26.9905 31.5492C25.8267 31.6462 25.5358 31.6462 22.5293 31.6462C19.6198 31.6462 19.2319 31.6462 18.0681 31.5492C17.0013 31.4523 16.4194 31.3553 16.0315 31.1613C15.5465 30.9674 15.1586 30.7734 14.7707 30.3855C14.3828 29.9975 14.1888 29.6096 13.9948 29.1247C13.8009 28.7367 13.7039 28.1549 13.6069 27.088C13.5099 25.9242 13.5099 25.6333 13.5099 22.6268C13.5099 19.7174 13.5099 19.3294 13.6069 18.1656C13.7039 17.0988 13.8009 16.5169 13.9948 16.129C14.1888 15.6441 14.3828 15.2561 14.7707 14.8682C15.1586 14.4803 15.5465 14.2863 16.0315 14.0924C16.4194 13.8984 17.0013 13.8014 18.0681 13.7044C19.3289 13.6074 19.6198 13.6074 22.5293 13.6074ZM22.5293 11.5708C19.5228 11.5708 19.1349 11.5708 17.9711 11.6678C16.8073 11.7648 16.0315 11.8617 15.3526 12.1527C14.6737 12.4436 13.9948 12.8316 13.4129 13.4135C12.831 13.9954 12.4431 14.6743 12.1521 15.3531C11.8612 16.032 11.6672 16.8079 11.6672 17.9717C11.5703 19.1355 11.5703 19.5234 11.5703 22.5299C11.5703 25.5363 11.5703 25.9242 11.6672 27.088C11.7642 28.2518 11.8612 29.0277 12.1521 29.7066C12.4431 30.3855 12.831 31.0643 13.4129 31.6462C13.9948 32.2281 14.6737 32.6161 15.3526 32.907C16.0315 33.198 16.8073 33.3919 17.9711 33.3919C19.1349 33.4889 19.5228 33.4889 22.5293 33.4889C25.5358 33.4889 25.9237 33.4889 27.0875 33.3919C28.2513 33.2949 29.0271 33.198 29.706 32.907C30.3849 32.6161 31.0638 32.2281 31.6457 31.6462C32.2276 31.0643 32.6155 30.3855 32.9065 29.7066C33.1974 29.0277 33.3914 28.2518 33.3914 27.088C33.4884 25.9242 33.4884 25.5363 33.4884 22.5299C33.4884 19.5234 33.4884 19.1355 33.3914 17.9717C33.2944 16.8079 33.1974 16.032 32.9065 15.3531C32.6155 14.6743 32.2276 13.9954 31.6457 13.4135C31.0638 12.8316 30.3849 12.4436 29.706 12.1527C29.0271 11.8617 28.2513 11.6678 27.0875 11.6678C25.9237 11.5708 25.5358 11.5708 22.5293 11.5708Z" fill="#8A35F2"/>
<path d="M22.5292 16.8994C19.4257 16.8994 16.9042 19.421 16.9042 22.5244C16.9042 25.6279 19.4257 28.1494 22.5292 28.1494C25.6326 28.1494 28.1542 25.6279 28.1542 22.5244C28.1542 19.421 25.7296 16.8994 22.5292 16.8994ZM22.5292 26.2098C20.4925 26.2098 18.8438 24.5611 18.8438 22.5244C18.8438 20.4878 20.4925 18.8391 22.5292 18.8391C24.5658 18.8391 26.2145 20.4878 26.2145 22.5244C26.2145 24.5611 24.5658 26.2098 22.5292 26.2098Z" fill="#8A35F2"/>
<path d="M29.7095 16.7054C29.7095 17.3843 29.1276 18.0631 28.3518 18.0631C27.6729 18.0631 26.994 17.4812 26.994 16.7054C26.994 16.0265 27.5759 15.3476 28.3518 15.3476C29.1276 15.3476 29.7095 15.9295 29.7095 16.7054Z" fill="#8A35F2"/>
</svg>
