<svg width="45" height="45" viewBox="0 0 45 45" fill="none" xmlns="http://www.w3.org/2000/svg">
<path d="M0 45H45V0H8.37209L4.18605 4.5L0 9V45Z" fill="white"/>
<path d="M11.5724 29.4663C13.5121 30.727 15.8397 31.4059 18.2643 31.4059C26.4108 31.4059 30.969 24.5201 30.6781 18.4102C31.5509 17.8283 32.2298 17.0525 32.8117 16.1796C32.0358 16.5675 31.163 16.7615 30.2901 16.8585C31.163 16.2766 31.8418 15.5007 32.2298 14.4339C31.3569 14.9188 30.4841 15.3068 29.4173 15.5007C28.6414 14.6279 27.4776 14.143 26.2168 14.143C23.4043 14.143 21.3677 16.7615 21.9496 19.477C18.3612 19.2831 15.0638 17.5374 12.9302 14.9188C11.7664 16.8585 12.3483 19.477 14.288 20.7378C13.6091 20.7378 12.9302 20.5438 12.3483 20.1559C12.3483 22.1925 13.7061 24.0352 15.8397 24.5201C15.2578 24.7141 14.5789 24.7141 13.9 24.6171C14.4819 26.3628 16.0337 27.6236 17.9733 27.6236C16.1306 29.0783 13.9 29.7572 11.5724 29.4663Z" fill="#8A35F2"/>
</svg>
