<svg width="53" height="53" viewBox="0 0 53 53" fill="none" xmlns="http://www.w3.org/2000/svg">
<g id="logo-icon.6741494a7e0649423f07.svg" clip-path="url(#clip0_5_1376)">
<g id="Clip path group">
<mask id="mask0_5_1376" style="mask-type:luminance" maskUnits="userSpaceOnUse" x="0" y="0" width="53" height="53">
<g id="clip0_33_67">
<path id="Vector" d="M52.175 26.25C52.175 11.8906 40.5344 0.25 26.175 0.25C11.8156 0.25 0.174988 11.8906 0.174988 26.25C0.174988 40.6094 11.8156 52.25 26.175 52.25C40.5344 52.25 52.175 40.6094 52.175 26.25Z" fill="white"/>
</g>
</mask>
<g mask="url(#mask0_5_1376)">
<g id="Group">
<path id="Vector_2" d="M52.1902 26.2561C52.1902 40.6245 40.5465 52.2652 26.1841 52.2652C11.8187 52.2682 0.174988 40.6245 0.174988 26.2561C0.174988 11.8937 11.8187 0.25 26.1841 0.25C30.6574 0.25 34.8599 1.37819 38.5365 3.36391C40.3092 4.32182 41.9605 5.48042 43.4535 6.8093C48.8147 11.5745 52.1902 18.5199 52.1902 26.2561Z" fill="#FFD36A"/>
<path id="Vector_3" d="M25.5406 30.9831C34.818 34.8993 13.5551 53.7706 13.5551 53.7706C13.5551 53.7706 49.4277 27.4012 35.4108 24.2313C32.0276 23.4663 29.2174 26.4168 26.5275 24.2313C22.317 20.8103 29.3201 15.7726 33.5776 12.2749C35.9748 10.3056 37.8078 15.6508 37.8078 15.6508L38.795 1.16248L24.4124 6.22636C24.4124 6.22636 29.6159 7.52278 28.6426 9.32097C24.8356 16.3541 8.504 26.549 17.0802 30.4204C20.097 31.7824 22.491 29.6959 25.5406 30.9831Z" fill="black"/>
<path id="Vector_4" d="M23.2862 37.0453C24.4618 37.0453 25.4148 36.0922 25.4148 34.9166C25.4148 33.741 24.4618 32.788 23.2862 32.788C22.1105 32.788 21.1575 33.741 21.1575 34.9166C21.1575 36.0922 22.1105 37.0453 23.2862 37.0453Z" fill="black"/>
<path id="Vector_5" d="M29.9762 23.3609C31.1518 23.3609 32.1048 22.4079 32.1048 21.2323C32.1048 20.0567 31.1518 19.1036 29.9762 19.1036C28.8006 19.1036 27.8475 20.0567 27.8475 21.2323C27.8475 22.4079 28.8006 23.3609 29.9762 23.3609Z" fill="black"/>
</g>
</g>
</g>
</g>
<defs>
<clipPath id="clip0_5_1376">
<rect width="52" height="52" fill="white" transform="translate(0.174988 0.25)"/>
</clipPath>
</defs>
</svg>
