<svg width="30" height="28" viewBox="0 0 30 28" fill="none" xmlns="http://www.w3.org/2000/svg">
<path d="M29.208 0.510444C28.5804 -0.010014 27.7178 -0.143943 26.9619 0.16167L1.36604 10.4951C0.240113 10.9586 -0.296911 12.247 0.166522 13.3729C0.406217 13.9552 0.88334 14.4071 1.47765 14.6149L6.99944 16.5345L9.99192 26.4285C9.99794 26.4487 10.0164 26.461 10.0242 26.4803C10.0551 26.5592 10.1004 26.6319 10.1575 26.6945C10.1788 26.7197 10.202 26.7433 10.2267 26.7651C10.3013 26.827 10.3879 26.8728 10.481 26.8995C10.4952 26.9037 10.5047 26.9163 10.5192 26.9196L10.5276 26.9193L10.5317 26.921C10.5794 26.9316 10.6281 26.9368 10.6768 26.9364C10.7406 26.9341 10.8038 26.9231 10.8645 26.9037C10.8762 26.9004 10.8881 26.9013 10.8996 26.8975C11.0033 26.8609 11.0969 26.8009 11.1732 26.7219C11.1821 26.713 11.1956 26.7114 11.2042 26.702L15.5094 21.9517L21.7902 26.815C22.1718 27.1134 22.6423 27.2755 23.1267 27.2754C24.1744 27.2752 25.0788 26.5413 25.2946 25.5161L29.9557 2.63378C30.1172 1.84224 29.8298 1.02611 29.208 0.510444ZM11.5544 18.4109L10.5441 23.3206L8.43717 16.3523L18.8871 10.9108L11.7483 18.0496C11.6496 18.1484 11.5822 18.274 11.5544 18.4109ZM23.8955 25.2288C23.8407 25.4917 23.6531 25.7074 23.4002 25.798C23.1531 25.893 22.8741 25.8506 22.6664 25.6863L15.8611 20.4171C15.5665 20.189 15.1459 20.226 14.8957 20.5022L11.9019 23.8053L12.9105 18.909L23.1798 8.63827C23.4589 8.35969 23.4593 7.90768 23.1807 7.62866C22.9604 7.4078 22.6222 7.35566 22.3455 7.49988L7.54065 15.2094L1.94501 13.2644C1.64 13.1641 1.43257 12.8809 1.42882 12.5599C1.41409 12.2366 1.60548 11.9393 1.90595 11.8191L27.4976 1.48701C27.7649 1.37357 28.0734 1.42109 28.2942 1.60978C28.5139 1.78713 28.6149 2.07321 28.5551 2.34918L23.8955 25.2288Z" fill="black"/>
</svg>
