<svg width="20" height="20" viewBox="0 0 20 20" fill="none" xmlns="http://www.w3.org/2000/svg">
<g clip-path="url(#clip0_25_15)">
<path d="M15.7719 11.5117C15.8313 11.4405 16.3766 10.8736 16.9828 10.2503C17.3356 9.88901 17.6546 9.56176 17.8614 9.34841L15.7719 11.5117ZM15.7719 11.5117C15.6328 11.6761 15.5578 11.7301 15.4594 11.7301C15.3125 11.7301 15.2141 11.5608 15.1563 11.2049L15.7719 11.5117ZM18.0979 9.01112C18.0919 8.99482 18.0837 8.97545 18.0734 8.95217C17.9453 8.66996 17.875 8.33131 17.8641 7.93131C17.8484 7.42579 17.9234 7.0626 18.1172 6.6945C18.2688 6.40493 18.5047 6.15953 18.7031 6.08346M18.0979 9.01112L19.125 6.08346C19.0141 6.04174 18.8125 6.04174 18.7031 6.08346M18.0979 9.01112C18.1924 8.95273 18.2977 8.93131 18.3844 8.93396C18.4864 8.93708 18.5648 8.96992 18.6068 8.99127M18.0979 9.01112L18.6068 8.99127M18.7031 6.08346L18.8821 6.55032C18.8822 6.55027 18.8822 6.55028 18.882 6.55036C18.8814 6.55065 18.8788 6.55186 18.8742 6.55443M18.7031 6.08346L18.8813 6.55063C18.8717 6.5543 18.866 6.55567 18.8655 6.5558C18.865 6.55592 18.8656 6.55576 18.8673 6.55545C18.8683 6.55528 18.8696 6.55507 18.8712 6.55483C18.8722 6.55469 18.8731 6.55456 18.8742 6.55443M18.8742 6.55443C18.8678 6.55801 18.8576 6.56421 18.8439 6.57421C18.8186 6.59266 18.7876 6.6194 18.7533 6.65511C18.684 6.72737 18.6146 6.82243 18.5602 6.92636L18.5596 6.92739C18.4136 7.20478 18.3503 7.47899 18.3638 7.91586L18.3639 7.91764C18.3735 8.26815 18.4345 8.5379 18.5287 8.74546L18.5307 8.74997C18.5488 8.79073 18.5804 8.86273 18.5975 8.9388C18.6009 8.9542 18.6042 8.97182 18.6068 8.99127M18.8742 6.55443C18.8839 6.55318 18.8976 6.55217 18.9135 6.55217C18.9302 6.55217 18.9447 6.55329 18.955 6.55469M18.6068 8.99127L18.949 6.55146L18.9499 6.55178M18.6068 8.99127C18.6138 8.9948 18.6197 8.99802 18.6246 9.00074C18.6972 9.04084 18.7514 9.09177 18.7881 9.13281C18.7899 9.13434 18.7953 9.13891 18.8054 9.14546C18.8206 9.15532 18.84 9.16542 18.8608 9.17369C18.8761 9.17977 18.8889 9.18355 18.8981 9.18572C18.9857 9.16487 19.0741 9.11384 19.2023 8.91092L19.2032 8.90939C19.2315 8.86494 19.2641 8.80849 19.2929 8.75427C19.3071 8.72758 19.3194 8.70331 19.329 8.68318C19.3339 8.67317 19.3377 8.66487 19.3406 8.65834L19.3439 8.65066L19.3444 8.64951C19.5993 7.96157 19.4945 7.19454 19.1436 6.73138L19.143 6.73056C19.1064 6.68208 19.0619 6.63588 19.0185 6.59989C18.9867 6.57356 18.9647 6.56015 18.955 6.55469M18.6068 8.99127L18.9499 6.55178M18.955 6.55469C18.9529 6.55349 18.9513 6.55268 18.9504 6.55219C18.9493 6.55159 18.9491 6.55149 18.9499 6.55178M18.955 6.55469C18.9555 6.55475 18.9559 6.55482 18.9564 6.55488C18.9613 6.55559 18.9635 6.55612 18.9631 6.55604C18.963 6.55601 18.9583 6.55489 18.9499 6.55178M1.9125 8.93744C1.89823 8.96883 1.88786 8.99316 1.88084 9.01251C1.7672 8.9366 1.6465 8.92663 1.58914 8.92793C1.50566 8.92982 1.44329 8.95247 1.42289 8.96012C1.40495 8.96685 1.38875 8.97411 1.37494 8.98093M1.9125 8.93744L1.14962 9.65073L1.13557 9.60996C1.13434 9.60645 1.1334 9.60379 1.13272 9.60186M1.9125 8.93744C2.13438 8.45401 2.18594 7.71536 2.03594 7.15585M1.9125 8.93744L2.03594 7.15585M1.37494 8.98093C1.36827 9.02726 1.36532 9.08631 1.37625 9.15295C1.39198 9.24888 1.43038 9.32433 1.46858 9.37888C1.4781 9.39249 1.48572 9.40202 1.4879 9.40474L1.48818 9.40509C1.4934 9.41163 1.49787 9.41692 1.50051 9.42C1.50592 9.42633 1.51099 9.43201 1.51446 9.43585C1.5207 9.44278 1.52785 9.45053 1.5352 9.45842L1.47628 9.48522L1.17126 9.12978C1.17003 9.13084 1.16883 9.13187 1.16764 9.13288M1.37494 8.98093C1.35132 8.99258 1.33468 9.0029 1.32821 9.00691L1.32807 9.007C1.29964 9.02463 1.27525 9.04319 1.26173 9.0537C1.23182 9.07694 1.19878 9.10507 1.16764 9.13288M1.37494 8.98093C1.37716 8.96549 1.3798 8.95147 1.38247 8.93904C1.4004 8.85571 1.43665 8.77599 1.45736 8.73045L1.45807 8.72888C1.62704 8.36072 1.6756 7.74264 1.55299 7.28532L1.55269 7.28418C1.50223 7.09418 1.41904 6.91776 1.32405 6.78035C1.23525 6.65188 1.15514 6.58432 1.10791 6.55667M1.16764 9.13288C1.16606 9.13429 1.16448 9.1357 1.16292 9.13711L1.47561 9.48553L1.14642 9.63524C1.14042 9.62203 1.13517 9.60844 1.13272 9.60186M1.16764 9.13288C1.13797 9.15813 1.12058 9.17034 1.11231 9.17565M1.13272 9.60186C1.13181 9.59942 1.13128 9.59794 1.13125 9.59781C1.13121 9.59768 1.13167 9.5989 1.13272 9.60186ZM1.11231 9.17565C1.10699 9.17601 1.09833 9.17633 1.08533 9.17615L1.07813 9.17604V9.17609C1.02435 9.17609 0.935712 9.15248 0.825883 9.01855C0.712727 8.88057 0.601136 8.64891 0.535723 8.31974L0.535069 8.31645L0.535058 8.31645C0.521655 8.2513 0.516492 8.21668 0.513168 8.16642C0.509155 8.10572 0.507812 8.02068 0.507812 7.85278C0.507812 7.63561 0.512215 7.52929 0.524119 7.44389C0.535026 7.36564 0.554273 7.29034 0.604172 7.1393M1.11231 9.17565C1.1082 9.17829 1.10634 9.17923 1.10634 9.17922C1.10634 9.17921 1.10725 9.17875 1.10893 9.17808C1.11112 9.1772 1.11359 9.17638 1.11599 9.17573C1.11803 9.17519 1.11921 9.17499 1.11921 9.17498L1.11913 9.175C1.11859 9.17508 1.11647 9.17538 1.11231 9.17565ZM1.10791 6.55667C1.09683 6.55481 1.08116 6.5531 1.06284 6.55258C1.04497 6.55206 1.02935 6.55282 1.01783 6.55404M1.10791 6.55667C1.10894 6.55685 1.10994 6.55702 1.11089 6.5572C1.11621 6.55818 1.11825 6.55882 1.11727 6.55853C1.11663 6.55834 1.10993 6.5564 1.09882 6.55138L1.30469 6.09573M1.10791 6.55667C1.10216 6.55331 1.0969 6.55054 1.09218 6.54832L1.30469 6.09573M1.01783 6.55404C1.01284 6.55684 1.00694 6.56024 1.00023 6.56424C0.974812 6.57938 0.947579 6.59725 0.925843 6.61296M1.01783 6.55404C1.01646 6.55419 1.01515 6.55435 1.01389 6.5545C1.00828 6.55521 1.00579 6.55579 1.00623 6.55569C1.00635 6.55567 1.00973 6.5549 1.01577 6.55285C1.01688 6.55247 1.01808 6.55205 1.01937 6.55158C1.02043 6.55118 1.02144 6.55079 1.0224 6.55042C1.02995 6.54745 1.03405 6.54545 1.03394 6.54549C1.03387 6.54551 1.03257 6.54612 1.02992 6.5475C1.02683 6.5491 1.02277 6.55128 1.01783 6.55404ZM0.925843 6.61296C0.889831 6.64108 0.881132 6.65063 0.872078 6.66138C0.855357 6.68124 0.828404 6.71826 0.767014 6.81589L0.76702 6.81589L0.765513 6.81826C0.666979 6.97301 0.638453 7.03677 0.604172 7.1393M0.925843 6.61296C0.924251 6.61411 0.922688 6.61524 0.921158 6.61637L0.625007 6.21353L0.931092 6.60888C0.929281 6.61028 0.927531 6.61164 0.925843 6.61296ZM0.604172 7.1393C0.604258 7.13904 0.604344 7.13878 0.60443 7.13852L0.129688 6.98162M0.604172 7.1393C0.604092 7.13954 0.604012 7.13978 0.603932 7.14002L0.129688 6.98162M0.129688 6.98162C0.179688 6.83192 0.228125 6.73131 0.34375 6.54971C0.46875 6.35094 0.514063 6.29941 0.625 6.21352C0.698438 6.15953 0.796875 6.10063 0.84375 6.08346M0.129688 6.98162C0.0234375 7.30309 0.0078125 7.41843 0.0078125 7.85278C0.0078125 8.18407 0.0125 8.25769 0.0453125 8.4172L0.84375 6.08346M0.84375 6.08346C0.965625 6.03683 1.19063 6.04419 1.30469 6.09573M0.84375 6.08346L2.03594 7.15585M1.30469 6.09573C1.60781 6.23806 1.90625 6.66751 2.03594 7.15585M14.8561 6.51225C14.8768 6.86051 14.9074 7.37342 14.9427 7.96423C14.9536 8.14706 14.9649 8.33736 14.9766 8.53254L14.8561 6.51225ZM14.8561 6.51225C14.8541 6.51228 14.852 6.51229 14.85 6.51229L14.8561 6.51225ZM14.8561 6.51225C14.854 6.47611 14.8519 6.44175 14.85 6.40925M14.8561 6.51225L14.85 6.40925M5.33087 5.55036C5.32568 5.54827 5.32065 5.54627 5.31594 5.54443C5.29152 5.53484 5.26111 5.52341 5.22929 5.51185C5.16825 5.48791 5.03456 5.39289 4.87639 5.05454L4.87584 5.05337C4.81723 4.92883 4.73421 4.65678 4.71133 4.51265C4.70414 4.46446 4.69727 4.34411 4.69727 4.19634C4.69727 4.04843 4.70415 3.928 4.71135 3.8799C4.75053 3.6311 4.8352 3.4073 5.0193 3.11167C5.06743 3.03496 5.09281 2.99988 5.10915 2.98017C5.12016 2.96689 5.12794 2.95926 5.14569 2.9458L5.33087 5.55036ZM5.33087 5.55036L5.36426 5.5059L5.43468 5.41214C5.43492 5.41181 5.43516 5.41148 5.43541 5.41115C5.6951 5.06142 5.82813 4.65674 5.82813 4.19634C5.82813 3.84521 5.76993 3.60326 5.63482 3.33991L5.63472 3.33972C5.44597 2.97141 5.35114 2.91776 5.28496 2.89076C5.27254 2.88583 5.26589 2.88491 5.26383 2.88469C5.26202 2.8845 5.25989 2.8844 5.25555 2.88523C5.2464 2.88699 5.21102 2.89639 5.14584 2.94569L5.33087 5.55036ZM9.74068 3.58057C9.74066 3.5805 9.74065 3.58044 9.74063 3.58039C9.73594 3.56812 9.72031 3.5583 9.70625 3.5583C9.66563 3.5583 9.4875 3.41843 9.40156 3.32027C9.35938 3.27119 9.27656 3.14112 9.21719 3.03315L9.74068 3.58057ZM9.74068 3.58057C9.74068 3.5805 9.74068 3.58043 9.74068 3.58037L9.74068 3.58057ZM14.85 6.40925C14.8361 6.17559 14.8281 6.03862 14.8281 6.03438M14.85 6.40925L14.8281 6.03438M14.8281 6.03438C14.8281 6.02211 14.8391 6.01229 14.85 6.01229M14.8281 6.03438L14.85 6.01229M14.85 6.01229C14.9094 6.01229 15.1297 5.87978 15.2141 5.79389L14.85 6.01229ZM9.99225 5.04762C9.89282 5.59595 9.77246 6.25244 9.65067 6.91171C9.50098 7.72196 9.34898 8.53712 9.23084 9.16167C9.17179 9.47382 9.12106 9.73909 9.08324 9.93255C9.0497 10.1042 9.01861 10.2616 9.00214 10.3162L9.00161 10.3179C8.92932 10.5545 8.83176 10.8276 8.60829 10.9998L8.6084 10.9999L8.59736 11.008C8.59652 11.0086 8.59532 11.0095 8.59376 11.0107C8.56993 11.0286 8.46345 11.109 8.32247 11.1346C8.14749 11.1664 8.00699 11.1036 7.97299 11.0884C7.97135 11.0876 7.96995 11.087 7.96882 11.0865L7.95952 11.0825L7.9504 11.078C7.77038 10.9907 7.65905 10.8276 7.60227 10.7357C7.53096 10.6201 7.46703 10.4823 7.41185 10.3359L7.41182 10.336L7.41011 10.3313C7.41092 10.3335 7.41076 10.3331 7.40913 10.3293C7.40651 10.3232 7.40006 10.3082 7.38767 10.2807C7.37045 10.2426 7.34664 10.191 7.31661 10.1269C7.25667 9.99897 7.17431 9.8261 7.07523 9.6202C6.87721 9.20869 6.61423 8.669 6.33429 8.10074L6.33405 8.10025L5.62975 6.66668C5.62683 6.71345 5.62378 6.76232 5.62061 6.81307C5.59217 7.2676 5.55368 7.87444 5.51461 8.48531C5.43718 9.6959 5.35572 10.9512 5.3474 11.0325L5.34736 11.033C5.33527 11.15 5.30989 11.2888 5.28235 11.4093C5.25774 11.517 5.22033 11.6603 5.17256 11.7633C5.09333 11.9352 4.87833 12.2743 4.4516 12.2284C4.28351 12.2104 4.15131 12.1321 4.06178 12.0641C3.96907 11.9938 3.88578 11.9065 3.81139 11.8173C3.81204 11.8181 3.81182 11.8178 3.81045 11.8163C3.80757 11.8131 3.79963 11.8042 3.78415 11.7875C3.76422 11.7659 3.73721 11.7371 3.70352 11.7015C3.63628 11.6303 3.5452 11.535 3.43658 11.422C3.21948 11.1961 2.93449 10.902 2.63448 10.5948C2.57731 10.5362 2.52104 10.4786 2.46599 10.4221C2.54643 10.6613 2.6224 10.888 2.6745 11.0448L2.67467 11.0454C3.17632 12.5609 3.42683 13.658 3.56137 14.9601H9.98438H16.4033C16.444 14.6269 16.5069 14.1763 16.5476 13.9365C16.6726 13.1873 16.8726 12.3866 17.1479 11.5092C17.2172 11.2886 17.3567 10.8615 17.4956 10.4408C17.445 10.4927 17.3934 10.5455 17.3411 10.5991C17.0385 10.9102 16.7514 11.2069 16.5328 11.4344C16.4235 11.5483 16.3318 11.6443 16.2641 11.7158C16.2302 11.7516 16.2031 11.7806 16.183 11.8022C16.1676 11.8189 16.1597 11.8277 16.1568 11.831C16.1553 11.8326 16.1551 11.8328 16.1558 11.832L16.1536 11.8346C16.02 11.9926 15.8102 12.2301 15.4594 12.2301C15.147 12.2301 14.946 12.0319 14.8416 11.8512C14.7456 11.6853 14.6948 11.4825 14.6627 11.2851L14.6623 11.2822C14.6355 11.1112 14.5809 10.3027 14.4774 8.56219C14.4644 8.34422 14.4517 8.13124 14.4395 7.92722C14.4091 7.41665 14.3819 6.96227 14.3621 6.62667C14.107 7.14393 13.7547 7.86526 13.4269 8.54021C13.1993 9.00901 12.9841 9.45417 12.8223 9.79134C12.7414 9.96004 12.6742 10.101 12.6256 10.204C12.5883 10.2831 12.5676 10.3284 12.5586 10.3479C12.5544 10.3571 12.5528 10.3605 12.5533 10.3592L12.5528 10.3606C12.4986 10.502 12.4301 10.6402 12.3574 10.7539C12.3215 10.8101 12.2779 10.8709 12.2272 10.9255C12.1918 10.9636 12.097 11.0622 11.9497 11.1092C11.5458 11.2396 11.2841 10.9304 11.2031 10.8109C11.0985 10.6565 11.0266 10.4587 10.9753 10.26L10.9748 10.2584C10.9509 10.1644 10.8468 9.62562 10.746 9.08568L10.7459 9.08529C10.6772 8.71585 10.535 7.95623 10.3811 7.13446C10.3041 6.72339 10.2242 6.29677 10.1492 5.89566L10.1491 5.89523C10.0934 5.59614 10.0404 5.30961 9.99225 5.04762ZM18.9109 9.18805C18.9108 9.18803 18.9104 9.18797 18.9095 9.18791L18.9109 9.18805ZM10.3202 4.05597C10.3052 4.05742 10.289 4.0583 10.2719 4.0583C10.2885 4.0583 10.3046 4.05749 10.3202 4.05597ZM14.5921 5.48502L14.6497 5.55283C14.6758 5.5419 14.7028 5.53305 14.7304 5.52644C14.7395 5.5216 14.7513 5.51502 14.7653 5.50665C14.7899 5.49187 14.8143 5.47563 14.8345 5.46089C14.8444 5.45364 14.8517 5.44783 14.8566 5.44379C14.8581 5.44255 14.8591 5.44165 14.8597 5.44109C14.9673 5.33132 15.1305 5.03858 15.1968 4.77924L15.1968 4.77924L15.1975 4.77659C15.2847 4.44303 15.2876 3.97188 15.2076 3.65681L15.2075 3.65658C15.1626 3.47917 15.113 3.36369 14.9689 3.13728C14.8957 3.02233 14.849 2.96777 14.8169 2.9381C14.7928 2.91583 14.77 2.90087 14.7291 2.88524C14.7261 2.88473 14.7156 2.88387 14.6955 2.88954C14.6655 2.89799 14.619 2.92032 14.5668 2.96962L14.5663 2.97005C14.5672 2.96922 14.5671 2.96937 14.566 2.97064C14.5624 2.97459 14.5493 2.98939 14.5265 3.01969C14.4996 3.05552 14.4681 3.10124 14.4354 3.15261C14.368 3.2586 14.3102 3.36508 14.281 3.4337C14.1985 3.63071 14.1486 3.90605 14.1494 4.20414C14.1503 4.50216 14.2017 4.78341 14.288 4.99038L14.2891 4.99296C14.3481 5.13674 14.4594 5.32369 14.5335 5.41595L14.5921 5.48502ZM9.77221 2.98214C9.77691 2.98881 9.78003 2.99303 9.78168 2.99524C9.78852 3.0026 9.80035 3.01454 9.81723 3.02998C9.83709 3.04815 9.85889 3.06656 9.87908 3.08237C9.88306 3.08548 9.88683 3.08838 9.89038 3.09106C9.92798 3.10483 9.96191 3.12197 9.99162 3.14053C10.013 3.12683 10.0371 3.11354 10.0639 3.10177C10.0766 3.09274 10.0924 3.081 10.1089 3.06777L10.1089 3.06775L10.1131 3.06445L10.1131 3.06444C10.1131 3.06442 10.1132 3.06434 10.1134 3.0642L10.1143 3.06344L10.1177 3.06045C10.1207 3.05777 10.1247 3.05404 10.1296 3.04911C10.1396 3.03911 10.1521 3.02574 10.1665 3.00878C10.1957 2.97455 10.2284 2.93124 10.2616 2.88186C10.3302 2.77953 10.3847 2.67496 10.4118 2.60093L10.4125 2.59905C10.5588 2.20482 10.5888 1.65021 10.4885 1.25054L10.4884 1.25041C10.4443 1.07447 10.3638 0.892644 10.27 0.74556C10.2236 0.672798 10.1782 0.615195 10.1385 0.573939C10.1034 0.537332 10.0813 0.52254 10.0756 0.518967C10.073 0.518115 10.0675 0.51644 10.0587 0.514492C10.0404 0.510443 10.0165 0.50714 9.99001 0.50599C9.96346 0.504836 9.94041 0.506109 9.92377 0.508359C9.91869 0.509046 9.91505 0.509706 9.91275 0.510176C9.86447 0.531253 9.84952 0.54422 9.83026 0.565225C9.79486 0.60383 9.74276 0.677544 9.64411 0.852833C9.47946 1.149 9.41303 1.42615 9.42787 1.88573L9.42788 1.8863C9.43979 2.26851 9.50569 2.51466 9.65618 2.7938C9.67996 2.83694 9.70936 2.88618 9.73687 2.92913C9.75068 2.9507 9.76274 2.96867 9.77221 2.98214Z" fill="#FEE202" stroke="#CACACA"/>
<path d="M16.3469 18.3794L16.3469 18.3789L16.3501 17.2607H9.98125H3.60938V18.3804V19.5H9.97656H16.3447L16.3469 18.3794Z" fill="#FEE202" stroke="#CACACA"/>
</g>
<defs>
<clipPath id="clip0_25_15">
<rect width="20" height="20" fill="white"/>
</clipPath>
</defs>
</svg>
