<svg width="65" height="65" viewBox="0 0 65 65" fill="none" xmlns="http://www.w3.org/2000/svg">
<path d="M27.71 58.9499C14.8 58.9499 9.61001 46.2099 9.39001 45.6599C9.09001 44.8899 9.46001 44.0199 10.23 43.7099C11 43.3999 11.87 43.7799 12.18 44.5499C12.37 45.0099 16.87 55.9399 27.71 55.9399H27.72C28.55 55.9399 29.22 56.6099 29.22 57.4399C29.22 58.2699 28.55 58.9399 27.72 58.9399C27.72 58.9499 27.72 58.9499 27.71 58.9499Z" fill="#6B6B6B"/>
<path d="M20.1 44.24L6.03003 33.1L3.41003 50.86L20.1 44.24Z" fill="#6B6B6B"/>
<path d="M50.73 17.39C50.11 17.39 49.53 17 49.31 16.38C49.15 15.92 45.14 5.06001 32.89 5.87001C32.06 5.95001 31.35 5.30001 31.29 4.48001C31.23 3.65001 31.86 2.94002 32.68 2.88002C47.2499 1.89002 52.09 15.26 52.14 15.39C52.41 16.17 52 17.03 51.22 17.3C51.06 17.37 50.89 17.39 50.73 17.39Z" fill="#6B6B6B"/>
<path d="M41.39 16.37L54.98 28.09L58.34 10.46L41.39 16.37Z" fill="#6B6B6B"/>
<path d="M16.51 33.16C7.55001 33.16 0.26001 25.87 0.26001 16.91C0.26001 7.94999 7.55001 0.669983 16.51 0.669983C25.47 0.669983 32.75 7.95999 32.75 16.91C32.75 25.87 25.47 33.16 16.51 33.16ZM16.51 3.66998C9.21001 3.66998 3.26001 9.60999 3.26001 16.91C3.26001 24.21 9.20001 30.16 16.51 30.16C23.81 30.16 29.75 24.22 29.75 16.91C29.75 9.60999 23.81 3.66998 16.51 3.66998Z" fill="#6B6B6B"/>
<path d="M53.15 64.35H43.19C36.98 64.35 31.92 59.3 31.92 53.08V43.12C31.92 36.91 36.97 31.85 43.19 31.85H53.15C59.36 31.85 64.42 36.9 64.42 43.12V53.08C64.42 59.3 59.36 64.35 53.15 64.35ZM43.19 34.86C38.63 34.86 34.92 38.57 34.92 43.13V53.09C34.92 57.65 38.63 61.36 43.19 61.36H53.15C57.71 61.36 61.42 57.65 61.42 53.09V43.13C61.42 38.57 57.71 34.86 53.15 34.86H43.19Z" fill="#6B6B6B"/>
</svg>
