<svg width="79" height="79" viewBox="0 0 79 79" fill="none" xmlns="http://www.w3.org/2000/svg">
<path d="M39.29 79C28.85 79 19.04 74.94 11.66 67.56C4.27997 60.18 0.219971 50.37 0.219971 39.93C0.219971 29.49 4.27997 19.68 11.66 12.3C19.04 4.91998 28.85 0.859985 39.29 0.859985C49.73 0.859985 59.54 4.91998 66.92 12.3C74.3 19.68 78.36 29.49 78.36 39.93C78.36 61.47 60.83 79 39.29 79ZM39.29 5.41998C20.26 5.41998 4.78003 20.9 4.78003 39.93C4.78003 58.96 20.26 74.44 39.29 74.44C58.32 74.44 73.8 58.96 73.8 39.93C73.79 20.9 58.31 5.41998 39.29 5.41998Z" fill="black"/>
<path d="M38.98 28.48C43.6854 28.48 47.5 24.6655 47.5 19.96C47.5 15.2545 43.6854 11.44 38.98 11.44C34.2745 11.44 30.46 15.2545 30.46 19.96C30.46 24.6655 34.2745 28.48 38.98 28.48Z" fill="black"/>
<path d="M38.98 28.94C34.03 28.94 30 24.91 30 19.96C30 15.01 34.03 10.98 38.98 10.98C43.93 10.98 47.96 15.01 47.96 19.96C47.96 24.91 43.93 28.94 38.98 28.94ZM38.98 11.9C34.53 11.9 30.91 15.52 30.91 19.97C30.91 24.42 34.53 28.04 38.98 28.04C43.43 28.04 47.05 24.42 47.05 19.97C47.05 15.51 43.43 11.9 38.98 11.9Z" fill="black"/>
<path d="M22.12 60.53C26.9304 60.53 30.83 56.6304 30.83 51.82C30.83 47.0096 26.9304 43.11 22.12 43.11C17.3096 43.11 13.41 47.0096 13.41 51.82C13.41 56.6304 17.3096 60.53 22.12 60.53Z" fill="black"/>
<path d="M22.12 60.99C17.06 60.99 12.95 56.88 12.95 51.82C12.95 46.76 17.06 42.65 22.12 42.65C27.18 42.65 31.29 46.76 31.29 51.82C31.29 56.87 27.17 60.99 22.12 60.99ZM22.12 43.56C17.57 43.56 13.87 47.26 13.87 51.81C13.87 56.36 17.57 60.06 22.12 60.06C26.67 60.06 30.37 56.36 30.37 51.81C30.37 47.27 26.67 43.56 22.12 43.56Z" fill="black"/>
<path d="M56.31 60.71C61.1701 60.71 65.11 56.7702 65.11 51.91C65.11 47.0499 61.1701 43.11 56.31 43.11C51.4499 43.11 47.51 47.0499 47.51 51.91C47.51 56.7702 51.4499 60.71 56.31 60.71Z" fill="black"/>
<path d="M56.31 61.17C51.2 61.17 47.05 57.02 47.05 51.91C47.05 46.8 51.2 42.65 56.31 42.65C61.42 42.65 65.57 46.8 65.57 51.91C65.57 57.02 61.41 61.17 56.31 61.17ZM56.31 43.56C51.71 43.56 47.96 47.3 47.96 51.91C47.96 56.51 51.7 60.26 56.31 60.26C60.91 60.26 64.66 56.52 64.66 51.91C64.65 47.31 60.91 43.56 56.31 43.56Z" fill="black"/>
<path d="M33.4213 25.4619L22.8682 43.4557L26.3359 45.4895L36.8889 27.4956L33.4213 25.4619Z" fill="black"/>
<path d="M44.9004 26.0846L41.4858 28.2063L52.2213 45.4831L55.6358 43.3614L44.9004 26.0846Z" fill="black"/>
</svg>
