<svg width="79" height="79" viewBox="0 0 79 79" fill="none" xmlns="http://www.w3.org/2000/svg">
<path d="M39.07 78.14C28.63 78.14 18.82 74.08 11.44 66.7C4.06 59.32 0 49.51 0 39.07C0 28.63 4.06 18.82 11.44 11.44C18.82 4.06 28.63 0 39.07 0C49.51 0 59.32 4.06 66.7 11.44C74.08 18.82 78.14 28.63 78.14 39.07C78.14 60.61 60.61 78.14 39.07 78.14ZM39.07 4.56C20.04 4.56 4.56006 20.04 4.56006 39.07C4.56006 58.1 20.04 73.58 39.07 73.58C58.1 73.58 73.58 58.1 73.58 39.07C73.57 20.04 58.09 4.56 39.07 4.56Z" fill="url(#paint0_linear_19_2)"/>
<path d="M38.76 27.62C43.4655 27.62 47.28 23.8055 47.28 19.1C47.28 14.3946 43.4655 10.58 38.76 10.58C34.0545 10.58 30.2401 14.3946 30.2401 19.1C30.2401 23.8055 34.0545 27.62 38.76 27.62Z" fill="url(#paint1_linear_19_2)"/>
<path d="M38.76 28.08C33.81 28.08 29.78 24.05 29.78 19.1C29.78 14.15 33.81 10.12 38.76 10.12C43.71 10.12 47.7401 14.15 47.7401 19.1C47.7401 24.05 43.71 28.08 38.76 28.08ZM38.76 11.04C34.31 11.04 30.69 14.66 30.69 19.11C30.69 23.56 34.31 27.18 38.76 27.18C43.21 27.18 46.83 23.56 46.83 19.11C46.83 14.65 43.21 11.04 38.76 11.04Z" fill="url(#paint2_linear_19_2)"/>
<path d="M21.9 59.6701C26.7104 59.6701 30.61 55.7705 30.61 50.9601C30.61 46.1497 26.7104 42.2501 21.9 42.2501C17.0896 42.2501 13.19 46.1497 13.19 50.9601C13.19 55.7705 17.0896 59.6701 21.9 59.6701Z" fill="url(#paint3_linear_19_2)"/>
<path d="M21.9 60.13C16.84 60.13 12.73 56.02 12.73 50.96C12.73 45.9 16.84 41.79 21.9 41.79C26.96 41.79 31.07 45.9 31.07 50.96C31.07 56.01 26.95 60.13 21.9 60.13ZM21.9 42.7C17.35 42.7 13.65 46.4 13.65 50.95C13.65 55.5 17.35 59.2 21.9 59.2C26.45 59.2 30.15 55.5 30.15 50.95C30.15 46.41 26.45 42.7 21.9 42.7Z" fill="url(#paint4_linear_19_2)"/>
<path d="M56.09 59.8501C60.9501 59.8501 64.89 55.9102 64.89 51.0501C64.89 46.19 60.9501 42.2501 56.09 42.2501C51.2299 42.2501 47.29 46.19 47.29 51.0501C47.29 55.9102 51.2299 59.8501 56.09 59.8501Z" fill="url(#paint5_linear_19_2)"/>
<path d="M56.09 60.31C50.98 60.31 46.83 56.16 46.83 51.05C46.83 45.94 50.98 41.79 56.09 41.79C61.2 41.79 65.35 45.94 65.35 51.05C65.35 56.16 61.19 60.31 56.09 60.31ZM56.09 42.7C51.49 42.7 47.7401 46.44 47.7401 51.05C47.7401 55.65 51.48 59.4 56.09 59.4C60.69 59.4 64.44 55.66 64.44 51.05C64.43 46.45 60.69 42.7 56.09 42.7Z" fill="url(#paint6_linear_19_2)"/>
<path d="M33.2013 24.6019L22.6483 42.5958L26.1159 44.6295L36.669 26.6357L33.2013 24.6019Z" fill="url(#paint7_linear_19_2)"/>
<path d="M44.6804 25.2246L41.2659 27.3463L52.0013 44.6231L55.4159 42.5014L44.6804 25.2246Z" fill="url(#paint8_linear_19_2)"/>
<defs>
<linearGradient id="paint0_linear_19_2" x1="39.07" y1="0" x2="39.07" y2="78.14" gradientUnits="userSpaceOnUse">
<stop stop-color="white"/>
<stop offset="0.0001" stop-color="#D0939A" stop-opacity="0.604167"/>
<stop offset="1" stop-color="#8F83FF"/>
</linearGradient>
<linearGradient id="paint1_linear_19_2" x1="38.76" y1="10.58" x2="38.76" y2="27.62" gradientUnits="userSpaceOnUse">
<stop stop-color="white"/>
<stop offset="0.0001" stop-color="#D0939A" stop-opacity="0.604167"/>
<stop offset="1" stop-color="#8F83FF"/>
</linearGradient>
<linearGradient id="paint2_linear_19_2" x1="38.76" y1="10.12" x2="38.76" y2="28.08" gradientUnits="userSpaceOnUse">
<stop stop-color="white"/>
<stop offset="0.0001" stop-color="#D0939A" stop-opacity="0.604167"/>
<stop offset="1" stop-color="#8F83FF"/>
</linearGradient>
<linearGradient id="paint3_linear_19_2" x1="21.9" y1="42.2501" x2="21.9" y2="59.6701" gradientUnits="userSpaceOnUse">
<stop stop-color="white"/>
<stop offset="0.0001" stop-color="#D0939A" stop-opacity="0.604167"/>
<stop offset="1" stop-color="#8F83FF"/>
</linearGradient>
<linearGradient id="paint4_linear_19_2" x1="21.9" y1="41.79" x2="21.9" y2="60.13" gradientUnits="userSpaceOnUse">
<stop stop-color="white"/>
<stop offset="0.0001" stop-color="#D0939A" stop-opacity="0.604167"/>
<stop offset="1" stop-color="#8F83FF"/>
</linearGradient>
<linearGradient id="paint5_linear_19_2" x1="56.09" y1="42.2501" x2="56.09" y2="59.8501" gradientUnits="userSpaceOnUse">
<stop stop-color="white"/>
<stop offset="0.0001" stop-color="#D0939A" stop-opacity="0.604167"/>
<stop offset="1" stop-color="#8F83FF"/>
</linearGradient>
<linearGradient id="paint6_linear_19_2" x1="56.09" y1="41.79" x2="56.09" y2="60.31" gradientUnits="userSpaceOnUse">
<stop stop-color="white"/>
<stop offset="0.0001" stop-color="#D0939A" stop-opacity="0.604167"/>
<stop offset="1" stop-color="#8F83FF"/>
</linearGradient>
<linearGradient id="paint7_linear_19_2" x1="27.9248" y1="33.5989" x2="31.3924" y2="35.6326" gradientUnits="userSpaceOnUse">
<stop stop-color="white"/>
<stop offset="0.0001" stop-color="#D0939A" stop-opacity="0.604167"/>
<stop offset="1" stop-color="#8F83FF"/>
</linearGradient>
<linearGradient id="paint8_linear_19_2" x1="42.9731" y1="26.2854" x2="53.7086" y2="43.5622" gradientUnits="userSpaceOnUse">
<stop stop-color="white"/>
<stop offset="0.0001" stop-color="#D0939A" stop-opacity="0.604167"/>
<stop offset="1" stop-color="#8F83FF"/>
</linearGradient>
</defs>
</svg>
