<svg width="121" height="40" viewBox="0 0 121 40" fill="none" xmlns="http://www.w3.org/2000/svg">
<g id="SVG" clip-path="url(#clip0_3_52)">
<path id="Vector" d="M0.222534 40V29L2.67151 26.4L5.12049 24.5L7.56947 20.8L10.0185 18.1L12.4674 23.8L14.9164 25.7L17.3654 22.9L19.8144 23.3L22.2634 20.8L24.7123 19L27.1613 12.3L29.6103 11.3L32.0593 12.4L34.5082 8.2L36.9572 9.6L39.4062 8.4L41.8552 9.7L44.3042 7.3L46.7531 6.5L49.2021 0L51.6511 8L54.1001 10.7L56.5491 13.7L58.998 12.8H61.447L63.896 12.7L66.345 11.4L68.794 11.8L71.2429 10.7L73.6919 11.3L76.1409 15.9L78.5899 15.4L81.0389 16.3L83.4878 15.3L85.9368 14.8L88.3858 14.1L90.8348 14.6L93.2838 15.7L95.7327 15.9L98.1817 14L100.631 12.9L103.08 12.6L105.529 12.1L107.978 12.2L110.427 13.3L112.876 13.9L115.325 11.7L117.774 9.5L120.223 40" fill="url(#paint0_linear_3_52)"/>
<path id="Vector_2" d="M0.222534 30L2.67151 27.4L5.12049 25.5L7.56947 21.8L10.0185 19.1L12.4674 24.8L14.9164 26.7L17.3654 23.9L19.8144 24.3L22.2634 21.8L24.7123 20L27.1613 13.3L29.6103 12.3L32.0593 13.4L34.5082 9.2L36.9572 10.6L39.4062 9.4L41.8552 10.7L44.3042 8.3L46.7531 7.5L49.2021 0L51.6511 9L54.1001 11.7L56.5491 14.7L58.998 13.8H61.447L63.896 13.7L66.345 12.4L68.794 12.8L71.2429 11.7L73.6919 12.3L76.1409 16.9L78.5899 16.4L81.0389 17.3L83.4878 16.3L85.9368 15.8L88.3858 15.1L90.8348 15.6L93.2838 16.7L95.7327 16.9L98.1817 15L100.631 13.9L103.08 13.6L105.529 13.1L107.978 13.2L110.427 14.3L112.876 14.9L115.325 12.7L117.774 10.5L120.223 1" stroke="#23B543"/>
</g>
<defs>
<linearGradient id="paint0_linear_3_52" x1="120.223" y1="0" x2="120.223" y2="40" gradientUnits="userSpaceOnUse">
<stop/>
<stop offset="1" stop-color="#040404" stop-opacity="0"/>
</linearGradient>
<clipPath id="clip0_3_52">
<rect width="120" height="40" fill="white" transform="translate(0.222534)"/>
</clipPath>
</defs>
</svg>
