<svg width="1920" height="1130" viewBox="0 0 1920 1130" fill="none" xmlns="http://www.w3.org/2000/svg">
<g opacity="0.4">
<path d="M960.276 1015.79C961.788 1015.79 963.013 1014.56 963.013 1013.05C963.013 1011.54 961.788 1010.32 960.276 1010.32C958.765 1010.32 957.54 1011.54 957.54 1013.05C957.54 1014.56 958.765 1015.79 960.276 1015.79Z" fill="url(#paint0_linear_90_4331)"/>
<path d="M960.276 1003.47C961.788 1003.47 963.013 1002.25 963.013 1000.73C963.013 999.223 961.788 997.997 960.276 997.997C958.765 997.997 957.54 999.223 957.54 1000.73C957.54 1002.25 958.765 1003.47 960.276 1003.47Z" fill="url(#paint1_linear_90_4331)"/>
<path d="M960.276 1015.79C961.788 1015.79 963.013 1014.56 963.013 1013.05C963.013 1011.54 961.788 1010.32 960.276 1010.32C958.765 1010.32 957.54 1011.54 957.54 1013.05C957.54 1014.56 958.765 1015.79 960.276 1015.79Z" fill="url(#paint2_linear_90_4331)"/>
<path d="M960.276 1037.69C961.788 1037.69 963.013 1036.46 963.013 1034.95C963.013 1033.44 961.788 1032.21 960.276 1032.21C958.765 1032.21 957.54 1033.44 957.54 1034.95C957.54 1036.46 958.765 1037.69 960.276 1037.69Z" fill="url(#paint3_linear_90_4331)"/>
<path d="M960.276 1003.47C961.788 1003.47 963.013 1002.25 963.013 1000.73C963.013 999.223 961.788 997.997 960.276 997.997C958.765 997.997 957.54 999.223 957.54 1000.73C957.54 1002.25 958.765 1003.47 960.276 1003.47Z" fill="url(#paint4_linear_90_4331)"/>
<path d="M960.276 1026.59C961.788 1026.59 963.013 1025.36 963.013 1023.85C963.013 1022.34 961.788 1021.11 960.276 1021.11C958.765 1021.11 957.54 1022.34 957.54 1023.85C957.54 1025.36 958.765 1026.59 960.276 1026.59Z" stroke="url(#paint5_linear_90_4331)" stroke-width="0.25" stroke-miterlimit="10"/>
<path d="M959.303 1018.37C960.898 1018.37 962.192 1017.08 962.192 1015.49C962.192 1013.89 960.898 1012.6 959.303 1012.6C957.707 1012.6 956.414 1013.89 956.414 1015.49C956.414 1017.08 957.707 1018.37 959.303 1018.37Z" stroke="url(#paint6_linear_90_4331)" stroke-width="0.5" stroke-miterlimit="10"/>
<path d="M959.303 1005.3C960.898 1005.3 962.192 1004 962.192 1002.41C962.192 1000.81 960.898 999.518 959.303 999.518C957.707 999.518 956.414 1000.81 956.414 1002.41C956.414 1004 957.707 1005.3 959.303 1005.3Z" stroke="url(#paint7_linear_90_4331)" stroke-width="0.5" stroke-miterlimit="10"/>
<path d="M959.303 1017.16C960.898 1017.16 962.192 1015.86 962.192 1014.27C962.192 1012.67 960.898 1011.38 959.303 1011.38C957.707 1011.38 956.414 1012.67 956.414 1014.27C956.414 1015.86 957.707 1017.16 959.303 1017.16Z" fill="url(#paint8_linear_90_4331)"/>
<path d="M959.303 1000.89C960.898 1000.89 962.192 999.593 962.192 997.997C962.192 996.401 960.898 995.108 959.303 995.108C957.707 995.108 956.414 996.401 956.414 997.997C956.414 999.593 957.707 1000.89 959.303 1000.89Z" fill="url(#paint9_linear_90_4331)"/>
<path d="M960.276 1050.01C961.788 1050.01 963.013 1048.78 963.013 1047.27C963.013 1045.76 961.788 1044.53 960.276 1044.53C958.765 1044.53 957.54 1045.76 957.54 1047.27C957.54 1048.78 958.765 1050.01 960.276 1050.01Z" fill="url(#paint10_linear_90_4331)"/>
<path d="M960.276 1015.79C961.788 1015.79 963.013 1014.56 963.013 1013.05C963.013 1011.54 961.788 1010.32 960.276 1010.32C958.765 1010.32 957.54 1011.54 957.54 1013.05C957.54 1014.56 958.765 1015.79 960.276 1015.79Z" fill="url(#paint11_linear_90_4331)"/>
<path d="M960.276 1038.9C961.788 1038.9 963.013 1037.68 963.013 1036.17C963.013 1034.66 961.788 1033.43 960.276 1033.43C958.765 1033.43 957.54 1034.66 957.54 1036.17C957.54 1037.68 958.765 1038.9 960.276 1038.9Z" stroke="url(#paint12_linear_90_4331)" stroke-width="0.25" stroke-miterlimit="10"/>
<path d="M960.276 1005.14C961.788 1005.14 963.013 1003.92 963.013 1002.41C963.013 1000.9 961.788 999.67 960.276 999.67C958.765 999.67 957.54 1000.9 957.54 1002.41C957.54 1003.92 958.765 1005.14 960.276 1005.14Z" fill="url(#paint13_linear_90_4331)"/>
<path d="M4.96635 12.0042C193.663 -27.0229 414.138 38.7657 509.019 193.341C548.856 258.154 564.822 332.863 573.185 406.875C594.168 593.788 570.296 785.021 614.087 968.588C630.812 1038.42 670.954 1117.59 748.196 1127.9C817.38 1137.24 877.593 1085.39 918.799 1033.54C976.426 961.2 1020.98 880.637 1056.41 797.147C1096.55 702.367 1126.05 601.732 1190.21 518.8C1254.38 435.867 1365.53 372.587 1473.64 395.725C1578.55 418.165 1644.09 510.019 1718.29 581.801C1740.64 603.266 1766.49 624.452 1798.57 628.773C1847.68 635.324 1890.87 601.175 1926.29 569.396" stroke="url(#paint14_linear_90_4331)" stroke-width="0.75" stroke-miterlimit="10"/>
<path d="M1.92542 17.8584C189.101 -19.7749 406.992 45.038 502.785 196.686C542.926 260.245 560.108 333.7 569.687 406.318C582.308 502.353 582.764 599.781 586.565 696.931C590.062 785.718 596.297 874.086 617.584 960.922C634.462 1030.06 674.299 1107.69 749.869 1119.68C803.391 1128.18 851.744 1101.42 890.821 1065.74C901.921 1055.7 912.108 1044.97 921.536 1034.1C944.952 1007.2 966.543 978.763 986.31 948.656C1008.51 914.925 1028.12 879.243 1045.76 842.865C1052.45 828.926 1058.99 814.849 1065.22 800.632C1107.04 705.433 1137.91 604.241 1203.14 520.612C1266.39 438.934 1375.41 376.49 1481.54 397.676C1584.63 418.305 1649.71 506.116 1723.31 574.832C1745.35 595.46 1771.05 615.81 1802.68 619.852C1851.03 625.985 1893.76 592.812 1928.88 562.148" stroke="url(#paint15_linear_90_4331)" stroke-width="0.7333" stroke-miterlimit="10"/>
<path d="M-1.11578 23.8521C184.54 -12.3874 399.845 51.5893 496.702 200.311C537.3 262.615 555.546 334.676 566.342 406.179C580.635 500.68 582.764 596.715 587.934 692.61C592.647 780.282 599.642 867.814 621.233 953.674C638.415 1022.11 677.796 1098.21 751.693 1111.87C804.76 1121.77 852.808 1097.94 892.646 1064.76C903.897 1055.42 914.541 1045.25 924.272 1035.07C948.601 1009.71 971.256 982.247 991.936 952.698C1015.2 919.525 1035.57 883.704 1053.82 847.186C1060.82 833.108 1067.51 819.03 1074.04 804.813C1117.38 709.197 1150.07 607.587 1216.06 523.121C1278.71 442.976 1385.45 381.09 1489.6 400.464C1590.87 419.141 1655.49 503.05 1728.63 568.838C1750.52 588.631 1775.92 608.005 1807.09 611.768C1854.68 617.622 1896.8 585.425 1931.77 555.736" stroke="url(#paint16_linear_90_4331)" stroke-width="0.7167" stroke-miterlimit="10"/>
<path d="M-4.00447 29.7058C180.283 -5.13986 392.851 58.0005 490.621 203.655C531.675 264.705 550.985 335.372 562.997 405.621C578.811 498.45 582.764 593.091 589.302 687.871C595.08 774.427 602.987 860.984 624.882 946.008C642.368 1013.75 681.294 1088.32 753.518 1103.65C805.976 1114.8 854.025 1094.17 894.623 1063.37C906.179 1054.73 916.974 1045.25 927.162 1035.63C952.25 1011.66 976.123 985.314 997.714 956.183C1022.04 923.428 1043.03 887.606 1062.03 850.949C1069.33 836.871 1076.17 822.654 1082.86 808.437C1127.87 712.402 1162.08 610.235 1228.98 525.211C1291.02 446.46 1395.33 385.271 1497.51 402.694C1596.8 419.559 1661.27 499.425 1733.65 562.148C1755.39 580.964 1780.48 599.502 1811.19 603.126C1858.02 608.562 1899.69 577.48 1934.51 548.767" stroke="url(#paint17_linear_90_4331)" stroke-width="0.7" stroke-miterlimit="10"/>
<path d="M-7.04566 35.6994C175.721 2.24757 385.705 64.4123 484.538 207.28C526.049 267.214 546.423 336.348 559.652 405.482C577.138 496.638 582.916 589.885 590.519 683.55C597.513 768.992 606.18 854.712 628.38 938.76C646.018 1005.8 684.639 1078.98 755.039 1095.84C807.193 1108.25 854.785 1090.69 896.143 1062.39C907.851 1054.45 919.103 1045.67 929.594 1036.61C955.595 1014.03 980.38 988.798 1003.04 960.085C1028.43 927.888 1050.17 891.927 1069.79 855.13C1077.24 841.053 1084.54 826.696 1091.38 812.34C1137.91 715.887 1173.64 613.301 1241.61 527.442C1302.88 450.084 1404.91 389.592 1505.11 405.064C1602.58 420.117 1666.59 495.941 1738.36 555.736C1759.95 573.717 1784.73 591.418 1814.99 594.624C1861.06 599.642 1902.27 569.535 1936.79 542.077" stroke="url(#paint18_linear_90_4331)" stroke-width="0.6833" stroke-miterlimit="10"/>
<path d="M-10.0866 41.5535C171.159 9.49551 378.558 70.8239 478.304 210.625C520.119 269.305 541.71 337.045 556.155 404.924C575.161 494.547 582.764 586.401 591.735 678.811C599.946 763.138 609.373 847.882 631.877 931.094C649.819 997.44 688.136 1069.22 756.711 1087.62C808.409 1101.42 855.849 1086.78 897.968 1060.86C909.828 1053.61 921.384 1045.53 932.179 1037.02C959.093 1015.98 984.941 991.725 1008.51 963.57C1034.97 931.93 1057.47 895.83 1077.69 858.894C1085.45 844.677 1092.9 830.46 1100.04 815.964C1148.25 718.953 1185.5 615.95 1254.38 529.393C1314.89 453.429 1414.64 393.634 1513.02 407.294C1608.66 420.396 1672.22 492.317 1743.38 549.185C1764.82 566.19 1789.3 583.055 1818.95 586.122C1864.26 590.721 1904.86 561.73 1939.22 535.247" stroke="url(#paint19_linear_90_4331)" stroke-width="0.6667" stroke-miterlimit="10"/>
<path d="M-12.9758 47.5469C166.75 16.8827 371.564 77.2354 472.222 214.249C514.492 271.674 537.148 338.16 552.809 404.645C573.489 492.596 582.764 583.055 593.103 674.211C602.53 757.562 612.718 841.331 635.526 923.567C653.772 989.216 691.633 1059.6 758.536 1079.54C809.777 1094.73 856.913 1083.02 899.792 1059.6C911.956 1052.91 923.816 1045.53 934.916 1037.72C962.589 1018.07 989.655 994.931 1014.14 967.194C1041.66 936.112 1064.92 899.872 1085.75 862.796C1093.81 848.579 1101.41 834.223 1108.86 819.727C1158.58 722.299 1197.36 618.737 1267.3 531.484C1327.06 456.914 1424.68 397.816 1520.92 409.524C1614.74 420.814 1677.84 488.693 1748.39 542.495C1769.68 558.663 1793.86 574.692 1823.05 577.341C1867.75 581.522 1907.74 553.506 1941.8 528.138" stroke="url(#paint20_linear_90_4331)" stroke-width="0.65" stroke-miterlimit="10"/>
<path d="M-16.017 53.401C162.188 24.1307 364.417 83.6471 466.14 217.733C508.866 273.904 532.586 338.996 549.312 404.367C571.512 490.784 582.611 579.71 594.319 669.751C604.811 751.987 615.911 834.78 639.023 916.18C657.421 980.993 694.978 1050.27 760.208 1071.45C810.994 1088.04 857.978 1079.4 901.616 1058.35C913.933 1052.36 926.097 1045.67 937.653 1038.42C966.239 1020.3 994.368 998.137 1019.76 970.818C1048.35 940.154 1072.37 903.775 1093.81 866.699C1102.02 852.482 1109.93 837.986 1117.53 823.49C1168.92 725.644 1209.22 621.525 1280.07 533.714C1339.07 460.398 1434.41 402.136 1528.83 412.033C1620.67 421.371 1683.47 485.348 1753.41 536.223C1774.55 551.415 1798.42 566.608 1827.16 569.117C1871.1 572.88 1910.63 545.979 1944.39 521.587" stroke="url(#paint21_linear_90_4331)" stroke-width="0.6333" stroke-miterlimit="10"/>
<path d="M-18.9057 59.3944C157.931 31.5178 357.423 90.1979 460.058 221.218C503.241 276.274 528.025 339.832 545.967 403.948C569.839 488.693 582.764 576.365 595.688 665.151C607.396 746.272 619.256 828.09 642.824 908.653C661.527 972.769 698.78 1040.79 762.185 1063.37C812.666 1081.35 859.194 1075.63 903.594 1057.1C916.214 1051.8 928.682 1045.81 940.542 1039.12C970.04 1022.39 999.082 1001.34 1025.54 974.581C1055.19 944.474 1079.97 907.956 1102.02 870.741C1110.54 856.385 1118.59 841.889 1126.5 827.254C1179.42 728.989 1221.38 624.312 1293.15 535.804C1351.39 463.883 1444.44 406.457 1536.89 414.263C1626.9 421.789 1689.25 481.724 1758.58 529.532C1779.56 543.889 1803.13 558.245 1831.41 560.336C1874.6 563.681 1913.67 537.895 1947.13 514.479" stroke="url(#paint22_linear_90_4331)" stroke-width="0.6167" stroke-miterlimit="10"/>
<path d="M-21.9469 65.2485C153.369 38.7658 350.276 96.4702 453.824 224.702C497.311 278.504 523.311 340.669 542.47 403.67C568.015 486.881 582.612 573.02 596.753 660.691C609.677 740.697 622.297 821.678 646.169 901.266C665.176 964.685 701.973 1031.45 763.706 1055.42C813.731 1074.94 860.106 1072.01 905.266 1055.98C918.038 1051.38 930.811 1046.08 943.127 1039.81C973.385 1024.62 1003.64 1004.55 1031.01 978.205C1061.73 948.656 1087.27 911.998 1109.93 874.644C1118.59 860.287 1127.11 845.652 1135.17 831.017C1189.6 732.334 1233.09 627.239 1305.92 537.895C1363.4 467.368 1454.17 410.639 1544.8 416.632C1632.99 422.208 1694.87 478.239 1763.75 523.121C1784.43 536.501 1808 550.021 1835.67 551.973C1878.09 555.039 1916.56 530.09 1949.86 507.788" stroke="url(#paint23_linear_90_4331)" stroke-width="0.6" stroke-miterlimit="10"/>
<path d="M-24.9878 71.1025C148.808 46.0136 342.978 102.882 447.742 228.047C491.685 280.595 518.75 341.366 539.125 403.112C566.19 484.651 582.612 569.396 598.121 655.952C612.262 734.843 625.643 814.849 649.819 893.6C668.977 956.322 705.622 1021.83 765.53 1047.2C815.251 1068.11 861.323 1068.25 907.091 1054.59C920.167 1050.68 933.244 1045.94 945.712 1040.37C976.883 1026.57 1008.21 1007.61 1036.49 981.829C1068.27 952.837 1094.57 916.04 1117.83 878.546C1126.81 864.051 1135.47 849.555 1143.84 834.78C1199.94 735.679 1244.95 630.027 1318.7 539.986C1375.41 470.852 1464.06 414.82 1552.55 418.862C1638.92 422.626 1700.35 474.615 1768.62 516.57C1789.14 529.114 1812.41 541.658 1839.63 543.331C1881.29 545.979 1919.3 522.145 1952.3 500.819" stroke="url(#paint24_linear_90_4331)" stroke-width="0.5833" stroke-miterlimit="10"/>
<path d="M-27.8771 77.0961C144.398 53.401 335.983 109.293 441.659 231.671C486.059 282.964 514.188 342.481 535.78 402.833C564.517 482.7 582.612 566.19 599.489 651.492C614.847 729.268 628.987 808.437 653.468 886.213C672.93 948.238 709.119 1012.63 767.355 1039.25C816.62 1061.7 862.387 1064.62 909.067 1053.47C922.296 1050.27 935.676 1046.22 948.601 1041.21C980.684 1028.94 1012.92 1010.96 1042.26 985.592C1075.11 957.158 1102.02 920.222 1126.05 882.449C1135.32 867.953 1144.14 853.318 1152.65 838.544C1210.28 739.024 1256.81 632.815 1331.62 542.216C1387.57 474.476 1473.94 419.141 1560.61 421.232C1645 423.183 1706.12 471.131 1773.79 510.019C1794.16 521.727 1817.12 533.435 1843.88 534.829C1884.78 537.059 1922.34 514.2 1955.03 493.99" stroke="url(#paint25_linear_90_4331)" stroke-width="0.5667" stroke-miterlimit="10"/>
<path d="M-30.918 82.9502C139.836 60.649 328.837 115.705 435.425 235.017C480.129 285.055 509.475 343.178 532.282 402.415C562.541 480.748 582.46 562.705 600.706 646.893C617.127 723.692 632.333 801.747 656.965 878.686C676.58 940.014 712.464 1003.29 768.875 1031.17C817.684 1055.14 863.3 1061 910.588 1052.22C924.12 1049.71 937.653 1046.36 951.034 1041.9C983.877 1031.03 1017.33 1014.17 1047.59 989.216C1081.49 961.201 1109.17 924.264 1133.8 886.352C1143.23 871.856 1152.35 857.082 1161.17 842.168C1220.47 742.23 1268.37 635.463 1344.09 544.168C1399.13 477.682 1483.37 423.183 1568.06 423.462C1650.62 423.462 1711.29 467.507 1778.35 503.468C1798.57 514.2 1821.23 525.072 1847.53 526.327C1887.67 528.139 1924.77 506.395 1957.16 487.299" stroke="url(#paint26_linear_90_4331)" stroke-width="0.55" stroke-miterlimit="10"/>
<path d="M-33.9592 88.9438C135.275 68.0364 321.69 122.256 429.343 238.641C474.503 287.564 504.913 344.153 528.937 402.137C560.868 478.797 582.612 559.5 601.922 642.432C619.56 718.117 635.526 795.335 660.462 871.299C680.381 931.93 715.809 994.234 770.548 1023.23C819.052 1048.87 864.364 1057.37 912.412 1051.1C926.097 1049.29 940.086 1046.5 953.77 1042.74C987.526 1033.4 1022.04 1017.51 1053.21 993.119C1088.18 965.661 1116.62 928.585 1141.86 890.533C1151.59 875.898 1160.87 861.124 1169.99 846.21C1230.81 745.854 1280.38 638.53 1357.01 546.537C1411.29 481.445 1493.25 427.644 1575.97 425.971C1656.71 424.159 1716.92 464.162 1783.37 497.056C1803.44 506.952 1825.79 516.988 1851.49 517.824C1891.02 519.218 1927.36 498.589 1959.75 480.47" stroke="url(#paint27_linear_90_4331)" stroke-width="0.5333" stroke-miterlimit="10"/>
<path d="M-36.8479 94.7976C131.017 75.284 314.696 128.528 423.261 242.125C468.877 289.794 500.352 344.99 525.592 401.858C559.196 476.985 582.612 556.154 603.291 637.972C622.145 712.542 638.871 788.784 664.112 863.911C684.335 923.707 719.306 985.174 772.373 1015.14C820.421 1042.32 865.58 1053.75 914.237 1049.85C928.226 1048.73 942.367 1046.64 956.507 1043.44C991.175 1035.49 1026.76 1020.72 1058.84 996.743C1094.87 969.842 1124.07 932.627 1149.92 894.436C1159.8 879.801 1169.38 864.887 1178.81 849.973C1241.3 749.199 1292.24 641.317 1369.94 548.628C1423.46 484.93 1503.29 431.825 1584.03 428.34C1662.94 424.577 1722.7 460.677 1788.54 490.645C1808.45 499.565 1830.5 508.764 1855.74 509.461C1894.52 510.437 1930.4 490.784 1962.48 473.779" stroke="url(#paint28_linear_90_4331)" stroke-width="0.5167" stroke-miterlimit="10"/>
<path d="M-39.8891 100.791C126.456 82.6712 307.55 135.079 417.027 245.61C463.099 292.024 495.638 345.826 522.095 401.439C557.219 474.894 582.46 552.67 604.507 633.233C624.578 706.687 642.064 781.954 667.609 856.245C687.984 915.343 722.651 975.835 774.045 1006.92C821.637 1035.77 866.493 1049.85 916.062 1048.45C930.202 1048.04 944.799 1046.64 959.092 1043.99C994.52 1037.44 1031.16 1023.78 1064.31 1000.37C1101.41 974.024 1131.37 936.53 1157.82 898.339C1168.01 883.703 1177.9 868.79 1187.32 853.736C1251.34 752.544 1303.79 644.105 1382.56 550.858C1435.32 488.414 1512.87 436.146 1591.63 430.71C1668.57 425.134 1728.02 457.332 1793.25 484.233C1813.02 492.317 1834.76 500.54 1859.54 500.959C1897.56 501.516 1932.99 482.978 1964.76 466.949" stroke="url(#paint29_linear_90_4331)" stroke-width="0.5" stroke-miterlimit="10"/>
<path d="M-42.93 106.645C121.894 89.9191 300.403 141.351 410.945 249.094C457.321 294.254 491.076 346.801 518.75 401.161C555.547 472.943 582.46 549.464 605.876 628.773C627.011 701.112 645.409 775.543 671.41 848.858C692.089 907.259 726.301 966.776 776.022 998.973C823.158 1029.5 867.861 1046.36 918.038 1047.34C932.483 1047.62 947.232 1046.78 961.981 1044.83C998.322 1039.81 1036.03 1027.13 1070.09 1004.13C1108.26 978.344 1138.97 940.711 1166.04 902.381C1176.53 887.606 1186.56 872.692 1196.29 857.5C1261.98 755.89 1315.81 646.892 1395.63 552.948C1447.48 491.899 1522.9 440.327 1599.84 432.94C1674.95 425.413 1733.95 453.708 1798.57 477.542C1818.19 484.79 1839.63 492.178 1863.95 492.317C1901.21 492.596 1936.03 475.034 1967.65 459.98" stroke="url(#paint30_linear_90_4331)" stroke-width="0.4833" stroke-miterlimit="10"/>
<path d="M-45.819 112.639C117.485 97.3067 293.409 147.903 404.863 252.579C451.695 296.485 486.515 347.638 515.405 400.743C553.722 470.992 582.612 545.98 607.244 624.173C629.596 695.398 648.754 768.853 675.059 841.332C696.043 899.036 729.646 957.577 777.847 990.889C824.526 1023.09 869.078 1042.6 920.015 1045.95C934.612 1046.92 949.817 1046.78 964.87 1045.39C1001.97 1041.76 1040.9 1030.2 1075.87 1007.62C1115.1 982.247 1146.57 944.614 1174.25 906.144C1184.89 891.37 1195.23 876.317 1205.26 861.124C1272.47 759.096 1327.97 649.541 1408.71 554.9C1459.8 495.105 1532.94 444.37 1607.9 435.17C1681.19 425.832 1739.73 450.084 1803.89 470.992C1823.2 477.264 1844.49 483.815 1868.36 483.676C1904.86 483.536 1939.22 466.95 1970.54 453.011" stroke="url(#paint31_linear_90_4331)" stroke-width="0.4667" stroke-miterlimit="10"/>
<path d="M-48.8599 118.493C112.923 104.554 286.263 154.314 398.781 256.063C446.069 298.854 481.953 348.474 512.06 400.324C552.049 468.901 582.612 542.495 608.461 619.573C632.029 689.822 651.948 762.301 678.557 833.805C699.692 890.812 732.991 948.517 779.519 982.805C825.591 1016.81 869.99 1038.98 921.688 1044.69C936.589 1046.36 951.946 1046.92 967.455 1045.95C1005.47 1043.85 1045.46 1033.26 1081.34 1011.24C1121.64 986.429 1153.72 948.656 1182.15 910.047C1193.1 895.133 1203.59 880.08 1213.78 864.887C1282.66 762.441 1339.53 652.328 1421.33 556.991C1471.51 498.589 1542.67 448.69 1615.65 437.4C1687.12 426.25 1745.2 446.46 1808.76 464.301C1827.92 469.737 1848.9 475.452 1872.32 475.034C1908.05 474.476 1941.96 459.005 1972.97 446.042" stroke="url(#paint32_linear_90_4331)" stroke-width="0.45" stroke-miterlimit="10"/>
<path d="M-51.9008 124.347C108.362 111.802 279.116 160.586 392.547 259.548C440.291 301.084 477.24 349.31 508.563 400.046C550.225 467.089 582.46 539.289 609.677 615.113C634.462 684.247 655.141 755.75 682.054 826.417C703.493 882.728 736.185 939.596 781.192 974.86C826.808 1010.54 871.055 1035.49 923.513 1043.58C938.566 1045.95 954.379 1047.06 970.192 1046.78C1009.12 1046.08 1050.02 1036.61 1086.97 1015C1128.33 990.75 1161.17 952.838 1190.21 914.089C1201.31 899.175 1212.11 884.122 1222.6 868.79C1293 765.925 1351.39 655.116 1434.26 559.36C1483.67 502.213 1552.55 453.151 1623.56 440.049C1693.05 426.947 1750.83 443.254 1813.78 458.168C1832.78 462.629 1853.46 467.507 1876.42 466.81C1911.55 465.834 1944.85 451.339 1975.56 439.491" stroke="url(#paint33_linear_90_4331)" stroke-width="0.4333" stroke-miterlimit="10"/>
<path d="M-54.7903 130.34C104.104 119.19 272.121 167.137 386.464 263.033C434.513 303.314 472.678 350.147 505.217 399.628C548.4 464.998 582.459 535.805 611.045 610.514C636.894 678.532 658.485 749.199 685.703 818.891C707.446 874.504 739.529 930.536 782.864 966.776C827.871 1004.27 872.118 1031.73 925.185 1042.32C940.542 1045.39 956.507 1047.2 972.777 1047.48C1012.46 1048.18 1054.58 1039.81 1092.44 1018.77C1134.86 995.071 1168.47 957.019 1198.12 918.131C1209.52 903.217 1220.47 888.025 1231.27 872.553C1303.34 769.271 1363.09 657.904 1447.03 561.451C1495.53 505.698 1562.28 457.332 1631.47 442.279C1699.13 427.365 1756.45 439.631 1818.79 451.478C1837.65 455.102 1858.02 459.005 1880.53 458.168C1914.89 456.775 1947.58 443.394 1978.14 432.661" stroke="url(#paint34_linear_90_4331)" stroke-width="0.4167" stroke-miterlimit="10"/>
<path d="M-57.8313 136.194C99.5425 126.438 264.975 173.549 380.382 266.517C428.887 305.544 468.116 351.123 501.872 399.349C546.727 463.186 582.612 532.599 612.414 606.053C639.479 672.957 661.831 742.649 689.352 811.504C711.247 866.281 742.874 921.616 784.689 958.692C829.088 997.998 873.183 1028.1 927.161 1041.07C942.671 1044.83 958.94 1047.34 975.514 1048.18C1016.11 1050.27 1059.29 1043.02 1098.07 1022.39C1141.55 999.113 1175.92 961.061 1206.18 921.895C1217.88 906.841 1229.14 891.649 1240.08 876.177C1313.68 772.476 1374.8 660.552 1459.95 563.402C1507.7 508.904 1572.17 461.374 1639.37 444.37C1705.21 427.504 1762.08 435.867 1823.81 444.788C1842.51 447.436 1862.58 450.642 1884.63 449.387C1918.24 447.575 1950.47 435.31 1980.73 425.553" stroke="url(#paint35_linear_90_4331)" stroke-width="0.4" stroke-miterlimit="10"/>
<path d="M-60.8725 142.188C94.9808 133.964 257.828 179.96 374.148 270.002C423.109 307.774 463.403 351.959 498.375 398.931C544.75 461.095 582.459 529.114 613.478 601.454C641.76 667.242 664.872 735.958 692.697 803.977C714.897 858.057 745.763 912.556 786.209 950.607C829.848 991.725 874.095 1024.34 928.682 1039.81C944.495 1044.27 961.069 1047.34 977.947 1048.87C1019.46 1052.5 1063.55 1046.22 1103.39 1026.01C1147.94 1003.29 1183.06 964.964 1213.93 925.797C1225.79 910.744 1237.35 895.412 1248.45 879.94C1323.71 775.821 1386.21 663.2 1472.42 565.493C1519.25 512.388 1581.75 465.556 1646.82 446.739C1710.69 428.062 1767.25 432.383 1828.37 438.376C1846.92 440.188 1866.69 442.418 1888.13 441.024C1920.97 438.794 1952.75 427.504 1982.71 418.862" stroke="url(#paint36_linear_90_4331)" stroke-width="0.3833" stroke-miterlimit="10"/>
<path d="M-63.7611 148.042C90.5716 141.212 250.834 186.372 368.066 273.486C417.331 310.144 458.841 352.795 495.03 398.512C543.078 459.005 582.46 525.629 614.847 596.854C644.345 661.667 668.217 729.407 696.347 796.45C718.85 849.834 748.957 903.496 788.034 942.523C831.065 985.453 875.312 1020.72 930.659 1038.56C946.624 1043.71 963.502 1047.48 980.836 1049.57C1023.11 1054.59 1068.42 1049.43 1109.17 1029.78C1154.78 1007.61 1190.67 969.145 1222.29 929.839C1234.46 914.786 1246.17 899.314 1257.57 883.843C1334.36 779.306 1398.37 666.127 1485.65 567.862C1531.72 516.012 1591.93 470.016 1655.19 449.248C1717.22 428.619 1773.33 429.037 1833.85 431.964C1852.25 432.801 1871.71 434.334 1892.69 432.661C1924.77 430.152 1956.1 419.838 1985.9 412.172" stroke="url(#paint37_linear_90_4331)" stroke-width="0.3667" stroke-miterlimit="10"/>
<path d="M-66.8023 154.035C86.0099 148.599 243.688 192.784 361.984 276.971C411.705 312.374 454.28 353.631 491.685 398.234C541.406 457.193 582.46 522.424 616.215 592.255C646.93 655.952 671.562 722.717 699.996 788.924C722.651 841.61 752.302 894.436 789.859 934.439C832.129 979.32 876.376 1017.09 932.483 1037.3C948.753 1043.16 965.935 1047.62 983.573 1050.27C1026.76 1056.68 1073.13 1052.64 1114.79 1033.4C1161.47 1011.8 1198.12 973.187 1230.35 933.742C1242.67 918.549 1254.68 903.217 1266.39 887.467C1344.85 782.512 1410.23 668.636 1498.57 569.814C1543.73 519.357 1601.82 474.058 1663.09 451.478C1723.31 429.037 1778.96 425.274 1838.86 425.413C1857.11 425.413 1876.27 425.971 1896.8 424.02C1928.12 421.093 1958.83 411.754 1988.48 405.203" stroke="url(#paint38_linear_90_4331)" stroke-width="0.35" stroke-miterlimit="10"/>
<path d="M-69.8433 159.889C81.6005 155.847 236.541 199.195 355.75 280.455C405.927 314.604 449.566 354.468 488.187 397.816C539.429 455.102 582.308 518.939 617.432 587.655C649.21 650.238 674.755 716.166 703.645 781.397C726.605 833.386 755.343 885.516 791.683 926.355C833.193 973.048 877.593 1013.47 934.46 1036.05C950.882 1042.6 968.368 1047.62 986.462 1050.96C1030.56 1058.91 1078 1055.84 1120.57 1037.02C1168.32 1015.98 1205.57 977.229 1238.56 937.645C1251.18 922.452 1263.35 906.981 1275.36 891.23C1355.34 785.857 1422.09 671.424 1511.65 571.905C1555.9 522.702 1611.85 478.239 1671.3 453.708C1729.69 429.455 1784.89 421.65 1844.34 418.723C1862.43 417.747 1881.29 417.469 1901.36 415.378C1932.07 412.033 1962.18 403.809 1991.53 398.234" stroke="url(#paint39_linear_90_4331)" stroke-width="0.3333" stroke-miterlimit="10"/>
<path d="M-72.7325 165.883C77.1907 163.235 229.547 205.747 349.82 284.08C400.453 316.974 445.157 355.583 484.994 397.677C537.908 453.43 582.611 515.734 618.952 583.334C651.947 644.802 678.252 709.754 707.446 774.149C730.71 825.442 758.688 876.735 793.66 918.55C834.257 967.194 878.809 1010.12 936.436 1035.07C953.162 1042.32 970.952 1048.04 989.198 1051.94C1034.05 1061.28 1082.56 1059.47 1126.2 1041.07C1175.01 1020.44 1213.02 981.69 1246.62 941.966C1259.55 926.634 1272.02 911.162 1284.03 895.412C1365.53 789.481 1433.65 674.491 1524.42 574.414C1567.91 526.466 1621.73 482.839 1679.06 456.496C1735.47 430.292 1790.36 418.584 1849.2 412.73C1866.99 410.918 1885.7 409.803 1905.31 407.294C1935.27 403.531 1964.92 396.422 1993.96 391.822" stroke="url(#paint40_linear_90_4331)" stroke-width="0.3167" stroke-miterlimit="10"/>
<path d="M-75.7734 171.737C72.6293 170.483 222.401 212.019 343.586 287.425C394.523 319.064 440.443 356.28 481.497 397.119C535.932 451.199 582.46 512.249 620.016 578.595C654.228 638.948 681.293 703.064 710.791 766.483C734.207 817.079 761.577 867.535 795.18 910.326C834.866 960.782 879.721 1006.22 938.109 1033.68C954.987 1041.62 973.081 1048.04 991.783 1052.5C1037.55 1063.37 1087.12 1062.53 1131.67 1044.55C1181.54 1024.48 1220.32 985.592 1254.53 945.729C1267.61 930.397 1280.38 914.786 1292.69 899.036C1375.87 792.687 1445.35 676.999 1537.19 576.504C1579.77 529.95 1631.47 487.16 1686.96 458.726C1741.55 430.71 1795.99 414.96 1854.22 406.179C1871.86 403.391 1890.26 401.44 1909.42 398.791C1938.61 394.61 1967.65 388.477 1996.54 384.992" stroke="url(#paint41_linear_90_4331)" stroke-width="0.3" stroke-miterlimit="10"/>
<path d="M-78.8143 177.73C68.0678 177.87 215.254 218.569 337.352 291.048C388.745 321.573 435.729 357.255 478 396.979C534.107 449.526 582.308 509.043 621.233 574.274C656.661 633.512 684.486 696.652 714.289 759.235C738.009 808.994 764.466 858.754 796.701 902.381C835.474 954.789 880.481 1002.74 939.63 1032.56C956.811 1041.21 975.21 1048.18 994.216 1053.19C1040.9 1065.46 1091.53 1065.74 1136.99 1048.31C1187.93 1028.8 1227.46 989.774 1262.28 949.771C1275.66 934.439 1288.59 918.689 1301.21 902.799C1385.9 796.032 1456.76 679.647 1549.81 578.595C1591.48 533.295 1641.05 491.341 1694.57 460.956C1747.33 430.989 1801.31 411.336 1858.94 399.488C1876.42 395.864 1894.52 393.076 1913.22 390.01C1941.65 385.41 1970.24 380.393 1998.82 378.023" stroke="url(#paint42_linear_90_4331)" stroke-width="0.2833" stroke-miterlimit="10"/>
<path d="M-81.7033 183.584C63.6584 185.117 208.108 224.842 331.422 294.393C383.272 323.664 431.168 357.952 474.807 396.422C532.435 447.296 582.46 505.419 622.753 569.535C659.246 627.797 687.984 689.822 718.09 751.569C741.962 800.631 767.659 849.555 798.678 894.157C836.538 948.377 881.85 998.834 941.758 1031.03C959.092 1040.37 977.795 1048.04 997.257 1053.61C1044.7 1067.27 1096.55 1068.66 1142.92 1051.66C1194.92 1032.7 1235.22 993.537 1270.65 953.395C1284.18 937.923 1297.41 922.313 1310.33 906.284C1396.7 799.098 1468.62 681.877 1563.04 580.407C1603.79 536.362 1651.23 495.244 1702.93 463.047C1753.87 431.267 1807.39 407.572 1864.41 392.798C1881.74 388.198 1899.53 384.574 1917.78 381.368C1945.45 376.35 1973.58 372.308 2001.86 371.054" stroke="url(#paint43_linear_90_4331)" stroke-width="0.2667" stroke-miterlimit="10"/>
<path d="M-84.7442 189.438C199.897 195.153 476.48 341.784 623.97 564.935C691.785 667.521 732.991 783.348 800.35 886.073C837.147 942.244 882.914 995.21 943.431 1029.78C1004.1 1064.48 1081.49 1078.56 1148.4 1055.42C1201.46 1037.02 1242.52 997.579 1278.55 957.437C1385.45 837.986 1466.03 699.997 1575.66 582.637C1685.29 465.277 1835.67 366.036 2004.15 364.224" stroke="url(#paint44_linear_90_4331)" stroke-width="0.25" stroke-miterlimit="10"/>
<path d="M-72.4211 533.664C20.184 605.515 145.333 625.506 253.148 606.059C360.962 586.612 453.798 531.82 536.546 469.339C605.417 417.348 669.384 358.799 747.683 319.08C825.982 279.361 923.287 260.054 1014.95 291.38C1101.09 320.881 1170.06 390.879 1218.24 466.133C1266.42 541.387 1297.82 623.342 1337.51 702.133C1391.15 808.356 1464.77 913.321 1571.17 976.75C1677.58 1040.18 1822.33 1050.51 1901.79 976.315C1945.98 935.03 1966.33 872.899 2016 837.388M-72.8674 529.061C19.1503 601.069 143.762 621.991 251.519 603.504C330.809 589.812 402.182 557.145 467.403 516.208C490.726 501.613 513.147 486.001 534.93 469.772C603.959 418.368 668.162 360.701 746.658 321.716C825.006 282.771 921.882 264.21 1013.25 295.614C1099.1 325.193 1168.1 394.711 1216.45 469.446C1220.51 475.76 1224.56 482.073 1228.36 488.613C1270.24 557.997 1299.93 632.382 1336.62 704.103C1342.87 716.282 1349.46 728.529 1356.15 740.59C1401.81 821.715 1460.18 899.122 1537.27 954.191C1548.17 961.976 1559.43 969.348 1571.16 976.123C1677.58 1038.45 1821.21 1047.5 1900.97 973.857C1945.24 932.866 1966.16 871.685 2015.76 836.507M-73.3137 524.457C18.4103 596.544 142.298 618.29 249.85 600.803C329.043 587.924 400.319 556.07 465.738 515.867C489.1 501.419 511.599 486.101 533.461 470.166C602.687 419.496 667.194 362.377 745.593 324.206C823.992 286.035 920.437 268.218 1011.51 299.701C1097.07 329.359 1165.95 398.437 1214.52 472.799C1218.57 479.112 1222.62 485.426 1226.53 491.779C1268.63 560.791 1298.68 634.764 1335.69 705.927C1341.94 718.105 1348.64 730.166 1355.48 742.187C1401.46 822.754 1460.15 899.602 1537.29 953.711C1548.16 961.349 1559.53 968.535 1571.07 975.202C1677.51 1036.42 1820.05 1044.35 1900.11 971.252C1944.5 930.702 1965.76 870.216 2015.53 835.625M-73.7599 519.853C17.4159 592.245 140.834 614.589 248.221 598.248C327.131 586.075 398.643 555.102 464.072 515.526C487.366 501.412 510.052 486.201 531.953 470.413C601.376 420.478 666.08 364.093 744.636 326.509C822.898 289.004 919.246 272.001 1009.84 303.455C1095.1 333.192 1164.01 401.789 1212.76 475.632C1216.96 481.906 1220.86 488.259 1224.77 494.612C1267.05 563.104 1297.46 636.666 1334.64 707.309C1341.01 719.302 1347.7 731.362 1354.54 743.384C1400.85 823.391 1459.96 899.494 1537.06 952.83C1548.03 960.281 1559.25 967.507 1570.9 973.988C1677.18 1033.99 1818.78 1040.75 1899.18 968.354C1943.65 928.098 1965.48 868.561 2015.21 834.45M-74.2062 515.25C16.529 587.759 139.263 611.074 246.553 595.546C325.327 584.039 396.781 554.027 462.407 515.185C485.78 501.365 508.505 486.301 530.485 470.806C600.104 421.606 664.965 365.808 743.611 329.145C821.923 292.414 917.841 276.156 1008.15 307.689C1093.11 337.504 1161.9 405.661 1211.01 479.092C1215.21 485.366 1219.22 491.533 1223.13 497.886C1265.62 566.006 1296.39 639.155 1333.9 709.24C1340.26 721.232 1346.92 733.146 1353.87 744.981C1400.5 824.43 1459.93 899.974 1537.13 952.497C1548.1 959.948 1559.39 966.841 1571.04 973.321C1677.33 1032.22 1817.99 1037.82 1898.36 965.896C1942.8 926.12 1965.27 867.199 2015.16 833.676M-74.5054 510.607C15.7891 583.234 137.946 607.333 245.071 592.952C323.601 582.298 395.213 552.873 460.888 514.805C484.301 501.131 507.144 486.508 529.163 471.16C598.979 422.694 664.184 367.592 742.84 331.556C821.202 295.599 916.69 280.085 1006.7 311.697C1091.52 341.552 1160.19 409.268 1209.33 482.219C1213.49 488.346 1217.54 494.66 1221.41 500.866C1264.11 568.613 1295.06 641.243 1332.93 710.916C1339.44 722.869 1346.06 734.636 1353.15 746.432C1400.11 825.322 1459.82 900.161 1537.12 951.87C1548.05 959.174 1559.34 966.067 1571.1 972.361C1677.37 1030 1816.94 1034.48 1897.66 963.252C1942.17 923.77 1965.21 865.799 2015.07 832.756M-74.9517 506.003C14.7947 578.935 136.335 603.671 243.256 590.289C321.649 580.302 393.203 551.837 459.037 514.357C482.528 500.977 505.263 486.539 527.361 471.486C597.374 423.754 662.776 369.386 741.481 334.124C819.894 298.941 914.951 284.172 1004.67 315.863C1089.19 345.796 1157.75 413.072 1207.25 485.611C1211.41 491.738 1215.42 497.905 1219.47 504.218C1262.35 571.446 1293.67 643.664 1331.9 712.926C1338.37 724.732 1345.13 736.459 1352.23 748.255C1399.5 826.586 1459.54 900.866 1536.89 951.615C1547.93 958.733 1559.18 965.479 1570.75 971.666C1676.9 1028.24 1815.48 1031.4 1896.55 960.873C1941.18 921.831 1964.56 864.555 2014.58 832.1M-75.398 501.4C13.9079 574.45 134.872 599.97 241.588 587.588C319.845 578.266 391.488 550.722 457.371 514.016C480.941 500.93 503.716 486.639 525.853 471.733C596.063 424.735 661.769 370.916 740.524 336.428C818.8 301.911 913.614 287.994 1003.04 319.764C1087.27 349.776 1155.85 416.571 1205.57 488.738C1209.73 494.865 1213.89 500.992 1217.9 507.159C1261 574.014 1292.67 645.821 1331.22 714.523C1337.84 726.29 1344.6 738.017 1351.77 749.48C1399.36 827.253 1459.73 900.974 1537.13 950.763C1548.17 957.881 1559.53 964.44 1571.07 970.48C1677.23 1025.95 1814.73 1027.99 1896.05 957.856C1940.77 919.108 1964.68 862.635 2014.67 830.66M-75.8442 496.796C13.021 569.964 133.408 596.269 239.959 585.033C317.972 576.564 389.665 549.794 455.706 513.675C479.315 500.736 502.168 486.739 524.384 472.126C594.791 425.863 660.694 372.778 739.646 339.024C817.972 305.281 912.463 291.924 1001.45 323.811C1085.38 353.902 1153.85 420.257 1203.74 491.904C1207.9 498.031 1212.02 504.012 1216.03 510.179C1259.31 576.514 1291.34 647.909 1330.11 716.239C1336.69 727.859 1343.6 739.547 1350.76 751.01C1398.72 828.37 1459.33 901.239 1536.87 950.361C1547.87 957.333 1559.19 963.745 1570.87 969.746C1677.01 1023.96 1813.42 1024.87 1895.09 955.438C1939.74 917.023 1964.36 861.46 2014.33 829.965M-76.2905 492.193C12.1341 565.479 131.797 592.607 238.29 582.331C316.167 574.528 387.91 548.532 454.001 513.187C477.689 500.542 500.621 486.839 522.876 472.373C593.479 426.845 659.54 374.347 738.542 341.367C816.918 308.398 910.979 295.785 999.668 327.751C1083.31 357.921 1151.8 423.796 1201.91 495.07C1206.18 501.012 1210.19 507.178 1214.35 513.306C1257.84 579.269 1290.2 650.105 1329.29 717.876C1336.01 729.456 1342.88 740.998 1350.05 752.46C1398.47 829.223 1459.4 901.533 1536.71 949.774C1547.82 956.559 1559.14 962.971 1570.74 968.678C1676.75 1021.82 1812.41 1021.68 1894.16 952.539C1938.96 914.712 1963.89 859.697 2014.01 828.789M-76.7368 487.589C11.2866 561.14 130.373 589.053 236.662 579.776C314.402 572.64 386.088 547.604 452.375 512.993C476.141 500.641 498.966 487.125 521.447 472.913C592.247 428.12 658.651 376.317 737.703 344.111C816.129 311.915 909.76 300.048 998.008 332.132C1081.36 362.381 1149.88 427.775 1200.01 498.57C1204.28 504.511 1208.44 510.638 1212.42 516.658C1256.12 582.249 1288.84 652.673 1328.25 719.885C1334.94 731.319 1341.95 742.821 1349.23 754.097C1397.98 830.301 1459.19 901.905 1536.59 949.333C1547.66 955.971 1558.94 962.237 1570.54 967.944C1676.53 1019.83 1811.1 1018.57 1893.19 950.121C1938.08 912.587 1963.58 858.522 2013.81 828.055M-77.183 482.985C10.2528 556.694 128.801 585.538 234.993 577.075C312.529 570.938 384.372 546.489 450.67 512.506C474.329 500.34 497.379 487.078 519.792 473.199C590.749 428.993 657.389 378.072 736.452 346.493C814.741 314.964 908.129 303.949 996.083 336.112C1079.14 366.439 1147.54 431.393 1198.04 501.776C1202.31 507.717 1206.43 513.697 1210.55 519.678C1254.28 584.788 1287.51 654.761 1327.14 721.601C1333.97 732.995 1340.95 744.35 1348.22 755.626C1397.29 831.271 1458.72 902.503 1536.33 948.932C1547.39 955.57 1558.78 961.649 1570.35 967.21C1676.36 1017.99 1809.98 1015.56 1892.23 947.702C1937.23 910.61 1963.22 857.2 2013.47 827.36M-77.6293 478.382C9.36598 552.208 127.337 581.837 233.325 574.373C310.725 568.902 382.51 545.414 449.004 512.165C472.742 500.293 495.832 487.178 518.284 473.446C589.438 429.974 656.235 379.641 735.534 348.943C813.874 318.188 906.831 307.918 994.491 340.159C1077.25 370.565 1145.69 435.039 1196.36 504.902C1200.63 510.844 1204.75 516.824 1208.87 522.804C1252.81 587.543 1286.41 657.103 1326.36 723.385C1333.19 734.779 1340.27 745.948 1347.54 757.224C1396.94 832.31 1458.65 902.836 1536.36 948.452C1547.38 954.943 1558.73 960.876 1570.44 966.396C1676.32 1016.11 1808.97 1012.37 1891.52 945.058C1936.6 908.259 1963.16 855.799 2013.38 826.439M-78.0755 473.778C8.4791 547.723 125.766 578.322 231.696 571.818C308.812 567.053 380.795 544.299 447.339 511.824C471.155 500.246 494.284 487.278 516.815 473.84C588.166 431.102 655.307 381.464 734.47 351.432C812.859 321.451 905.386 311.926 992.713 344.1C1075.18 374.584 1143.5 438.617 1194.38 508.108C1198.65 514.049 1202.88 519.843 1207 525.824C1251.12 590.043 1285.08 659.192 1325.24 725.1C1332.18 736.308 1339.27 747.477 1346.65 758.567C1396.36 833.095 1458.4 903.062 1536.16 947.717C1547.3 954.022 1558.64 959.955 1570.28 965.182C1676.14 1013.64 1807.73 1008.92 1890.44 942.199C1935.64 905.841 1962.54 854.076 2012.92 825.303M-78.5218 469.174C7.63158 543.384 124.302 574.621 230.028 569.116C307.047 565.165 378.932 543.224 445.634 511.336C469.49 499.905 492.737 487.377 515.307 474.086C586.855 432.084 654.193 383.18 733.552 353.883C812.03 324.822 904.235 315.856 991.122 348.147C1073.3 378.71 1141.64 442.264 1192.7 511.235C1196.93 517.029 1201.2 522.97 1205.28 528.804C1249.62 592.65 1283.75 661.28 1324.42 726.737C1331.36 737.945 1338.59 749.075 1345.93 760.018C1395.97 833.986 1458.33 903.395 1536.15 947.09C1547.28 953.395 1558.7 958.995 1570.33 964.222C1676.21 1011.58 1806.72 1005.73 1889.73 939.555C1934.86 903.53 1962.48 852.675 2012.79 824.236M-78.9681 464.571C6.59783 538.938 122.838 570.92 228.399 566.562C305.282 563.276 377.256 542.256 444.008 511.142C467.942 500.005 491.082 487.663 513.878 474.627C585.622 433.359 653.304 385.15 732.527 356.519C810.908 328.271 902.83 320.011 989.423 352.381C1071.26 382.876 1139.53 446.136 1190.95 514.695C1195.33 520.45 1199.56 526.244 1203.68 532.225C1248.23 595.699 1282.72 663.916 1323.68 728.668C1330.73 739.69 1337.96 750.819 1345.3 761.762C1395.66 835.172 1458.45 903.836 1536.26 946.904C1547.35 953.062 1558.77 958.662 1570.36 963.742C1676.07 1009.88 1805.64 1002.87 1888.96 937.244C1934.2 901.66 1962.31 851.461 2012.63 823.648M-79.4143 459.967C5.75031 534.599 121.267 567.405 226.73 563.86C303.37 561.427 375.394 541.18 442.303 510.654C466.316 499.811 489.495 487.616 512.223 474.913C584.164 434.379 652.042 386.905 731.462 359.008C809.854 331.388 901.385 324.019 987.684 356.468C1069.23 387.042 1137.52 449.821 1188.98 517.901C1193.35 523.656 1197.58 529.45 1201.66 535.283C1246.39 598.238 1281.24 666.044 1322.42 730.423C1329.46 741.445 1336.8 752.388 1344.25 763.145C1394.94 835.996 1458.05 904.101 1535.91 946.209C1547.12 952.181 1558.49 957.633 1570.05 962.567C1675.78 1007.6 1804.4 999.423 1887.88 934.385C1933.2 899.094 1961.88 849.845 2012.32 822.473M-79.8606 455.364C4.86343 530.114 119.803 563.704 225.101 561.305C301.604 559.538 373.679 540.066 440.677 510.46C464.729 499.764 487.987 487.863 510.754 475.307C582.892 435.507 650.928 388.62 730.397 361.498C808.839 334.651 899.94 328.028 985.946 360.555C1067.2 391.208 1135.37 453.546 1187.19 521.214C1191.57 526.969 1195.75 532.616 1199.98 538.41C1244.93 600.992 1280.1 668.239 1321.64 732.207C1328.64 743.082 1335.98 754.025 1343.58 764.742C1394.59 837.035 1457.98 904.434 1535.8 945.768C1547 951.74 1558.34 957.046 1570 961.793C1675.74 1005.72 1803.24 996.27 1887.02 931.78C1932.47 896.93 1961.49 848.376 2012.08 821.592M-80.3069 450.76C3.97655 525.628 118.193 560.042 223.433 558.603C299.653 557.542 371.816 538.99 438.972 509.973C462.956 499.609 486.44 487.963 509.246 475.553C581.581 436.488 649.96 390.297 729.48 363.948C807.824 337.914 898.642 331.997 984.315 364.456C1065.27 395.187 1133.48 457.046 1185.47 524.194C1189.81 529.802 1194.18 535.557 1198.26 541.39C1243.38 603.453 1278.96 670.435 1320.67 733.883C1327.82 744.718 1335.12 755.515 1342.86 766.193C1394.34 837.887 1457.91 904.767 1535.83 945.288C1546.99 951.113 1558.43 956.233 1570.1 960.979C1675.82 1003.65 1802.22 993.077 1886.35 929.283C1931.73 894.766 1961.43 846.975 2012.03 820.818M-80.7531 446.156C3.08967 521.143 116.729 556.341 221.618 555.941C297.741 555.693 369.807 537.954 437.121 509.524C461.183 499.454 484.706 487.955 507.591 475.839C580.123 437.509 648.699 392.052 728.376 366.291C806.77 341.031 897.158 335.858 982.537 368.396C1063.2 399.206 1131.44 460.585 1183.5 527.4C1187.83 533.008 1192.21 538.763 1196.4 544.41C1241.73 606.1 1277.63 672.523 1319.7 735.559C1326.86 746.395 1334.26 757.005 1341.96 767.536C1393.76 838.672 1457.66 904.993 1535.63 944.554C1546.9 950.193 1558.2 955.351 1569.82 959.951C1675.42 1001.56 1800.88 989.817 1885.31 926.571C1930.8 892.495 1961.03 845.506 2011.61 819.829M-81.16 441.7C2.09527 516.843 115.157 552.826 220.028 553.533C296.015 553.952 368.171 537.134 435.534 509.477C459.636 499.554 483.09 488.388 506.054 476.566C578.783 438.97 647.663 394.061 727.243 369.113C805.648 344.48 895.792 340.16 980.73 372.816C1061.1 403.705 1129.22 464.643 1181.64 531.046C1185.97 536.654 1190.31 542.262 1194.5 547.909C1240.05 609.227 1276.31 675.238 1318.71 737.715C1325.97 748.365 1333.37 758.975 1341.08 769.506C1393.2 840.083 1457.37 905.698 1535.44 944.446C1546.71 950.085 1558.08 954.911 1569.66 959.364C1675.24 999.714 1799.61 986.85 1884.35 924.152C1929.92 890.37 1960.68 844.184 2011.23 818.987M-81.6063 437.096C1.24775 512.505 113.733 549.272 218.36 550.831C294.063 551.955 366.269 535.911 433.829 508.989C458.01 499.36 481.504 488.341 504.507 476.666C577.393 439.657 646.509 395.63 726.286 371.416C804.741 347.557 894.455 343.982 979.099 376.717C1059.18 407.684 1127.32 468.142 1179.77 534.066C1184.25 539.634 1188.59 545.242 1192.78 550.889C1238.5 611.688 1275.13 677.287 1317.7 739.245C1324.96 749.894 1332.47 760.318 1340.32 770.81C1392.77 840.828 1457.26 905.885 1535.39 943.672C1546.62 949.164 1558.14 953.95 1569.68 958.257C1675.27 997.501 1798.71 983.472 1883.6 921.361C1929.29 888.02 1960.43 842.676 2011.1 817.919M-82.0526 432.493C0.360881 508.019 112.269 545.571 216.692 548.13C292.298 550.067 364.554 534.797 432.124 508.502C456.384 499.166 479.956 488.441 502.999 476.913C576.081 440.639 645.394 397.345 725.182 373.759C803.54 350.713 892.97 347.843 977.321 380.657C1057.11 411.703 1125.13 471.72 1177.94 537.232C1182.43 542.8 1186.72 548.261 1191.06 553.869C1237 614.295 1273.94 679.336 1316.88 740.882C1324.25 751.345 1331.8 761.916 1339.57 772.114C1392.38 841.72 1457.3 906.031 1535.38 943.045C1546.57 948.39 1558.05 953.03 1569.74 957.297C1675.2 995.473 1797.65 980.133 1882.71 918.61C1928.48 885.562 1960.15 841.021 2010.82 816.891M-82.4988 427.889C-0.525998 503.534 110.805 541.869 215.17 545.389C290.64 547.992 362.838 533.682 430.605 508.121C454.905 498.933 478.556 488.501 501.677 477.267C574.956 441.727 644.574 398.982 724.45 376.317C802.858 354.045 891.859 351.92 975.916 384.812C1055.41 415.937 1123.46 475.474 1176.45 540.466C1180.89 545.888 1185.23 551.496 1189.52 556.957C1235.64 616.863 1272.99 681.639 1316.1 742.666C1323.46 753.129 1331.13 763.513 1338.9 773.711C1392.03 842.759 1457.24 906.365 1535.41 942.565C1546.71 947.724 1558.18 952.363 1569.65 956.376C1675.09 993.298 1796.5 976.98 1881.85 916.005C1927.59 883.437 1959.94 839.659 2010.73 815.97M-82.9451 423.285C-1.55975 499.088 109.195 538.208 213.395 542.873C288.581 546.182 361.015 532.753 428.793 507.82C453.171 498.925 476.861 488.64 500.061 477.7C573.537 442.895 643.352 400.884 723.239 378.845C801.697 357.347 890.267 355.968 973.991 388.792C1053.19 419.995 1121.12 479.092 1174.33 543.711C1178.77 549.133 1183.21 554.555 1187.55 560.163C1233.88 619.696 1271.4 683.953 1315.02 744.528C1322.5 754.805 1330.16 765.189 1338.08 775.348C1391.53 843.837 1457.06 906.884 1535.29 942.125C1546.59 947.283 1557.99 951.629 1569.6 955.602C1675.06 991.417 1795.34 973.827 1881.03 913.547C1926.85 881.273 1959.58 838.337 2010.54 815.236M-83.3914 418.682C-2.40727 494.749 107.584 534.546 211.766 540.318C286.855 544.441 359.153 531.678 427.167 507.626C451.477 499.064 475.206 488.927 498.485 478.28C572.158 444.209 642.248 403.227 722.253 381.629C800.603 360.317 889.048 360.23 972.331 393.173C1051.23 424.455 1119.24 483.218 1172.58 547.172C1177.02 552.593 1181.47 558.015 1185.76 563.476C1232.31 622.637 1270.15 686.335 1314.13 746.498C1321.61 756.775 1329.38 766.973 1337.25 776.985C1391.03 844.915 1456.85 907.257 1535.07 941.87C1546.33 946.882 1557.87 951.188 1569.44 955.015C1674.73 989.615 1794.11 971.007 1880.07 911.129C1925.97 879.149 1959.27 837.162 2010.19 814.541M-83.691 414.039C-3.14749 490.224 106.306 530.952 210.244 537.577C285.051 542.405 357.584 530.524 425.609 507.099C449.958 498.684 473.806 488.987 497.084 478.34C570.954 445.004 641.269 404.276 721.256 383.785C799.628 363.727 887.671 363.906 970.66 396.927C1049.27 428.288 1117.3 486.571 1170.86 550.152C1175.45 555.534 1179.74 560.995 1184.15 566.27C1230.87 624.912 1269.12 688.344 1313.27 747.988C1320.89 758.226 1328.62 768.277 1336.65 778.25C1390.75 845.621 1456.88 907.403 1535.16 941.057C1546.53 945.883 1557.89 950.081 1569.57 953.721C1674.88 987.215 1793.12 967.335 1879.43 908.152C1925.45 876.612 1959.24 835.281 2010.13 813.14M-84.1372 409.435C-4.03437 485.739 104.696 527.291 208.576 534.876C283.246 540.37 355.722 529.449 423.904 506.611C448.332 498.49 472.219 488.94 495.576 478.587C569.643 445.985 640.155 405.992 720.338 386.235C798.76 366.951 886.373 367.875 969.069 400.974C1047.53 432.375 1115.3 490.257 1169.03 553.318C1173.58 558.553 1178.02 563.975 1182.32 569.436C1229.26 627.705 1267.83 690.579 1312.3 749.664C1319.89 759.755 1327.76 769.767 1335.79 779.74C1390.21 846.552 1456.63 907.629 1535.01 940.469C1546.37 945.295 1557.84 949.308 1569.33 952.84C1674.66 985.227 1791.96 964.182 1878.43 905.586C1924.38 874.38 1958.84 833.812 2009.75 812.298M-84.5835 404.832C-4.92125 481.253 103.232 523.589 206.947 532.321C281.52 538.628 354.046 528.481 422.278 506.417C446.784 498.59 470.711 489.187 494.147 479.127C568.41 447.26 639.079 407.854 719.313 388.872C797.784 370.361 884.968 372.03 967.37 405.208C1045.54 436.687 1113.34 494.089 1167.28 556.778C1171.83 562.013 1176.28 567.435 1180.68 572.71C1227.79 630.46 1266.76 693.069 1311.42 751.635C1319.15 761.686 1326.98 771.551 1334.97 781.377C1389.86 847.591 1456.6 908.109 1534.93 940.176C1546.26 944.854 1557.83 948.681 1569.32 952.213C1674.48 983.385 1790.84 961.176 1877.61 903.128C1923.68 872.363 1958.53 832.637 2009.55 811.564M-85.0298 400.228C-5.91563 476.954 101.768 519.888 205.278 529.619C279.569 536.632 352.145 527.259 420.573 505.929C445.119 498.249 469.124 489.14 492.639 479.374C567.099 448.241 638.112 409.531 718.395 391.322C796.73 373.477 883.67 375.999 965.738 409.109C1043.61 440.667 1111.29 497.628 1165.56 559.758C1170.11 564.993 1174.52 570.268 1178.96 575.69C1226.29 633.067 1265.58 695.117 1310.59 753.272C1318.29 763.176 1326.27 773.002 1334.4 782.788C1389.32 848.522 1456.39 908.482 1534.77 939.588C1546.21 944.081 1557.63 947.946 1569.23 951.292C1674.41 981.358 1789.65 957.876 1876.76 900.524C1922.9 870.052 1958.28 831.129 2009.46 810.643M-85.476 395.624C-6.8025 472.468 100.157 516.226 203.649 527.064C277.803 534.744 350.469 526.291 418.947 505.735C443.571 498.349 467.509 489.572 491.063 479.954C565.719 449.556 636.89 411.432 717.37 393.958C795.755 376.888 882.264 380.154 964.039 413.343C1041.62 444.979 1109.33 501.461 1163.66 563.257C1168.22 568.493 1172.77 573.728 1177.17 579.003C1224.71 636.008 1264.33 697.499 1309.71 755.242C1317.54 765.107 1325.38 774.972 1333.62 784.572C1389.15 849.668 1456.5 908.922 1534.98 939.216C1546.38 943.561 1557.95 947.387 1569.48 950.44C1674.63 979.251 1788.82 954.791 1876.2 897.84C1922.46 867.809 1958.37 829.689 2009.52 809.683M-85.9223 391.021C-7.68939 467.983 98.6934 512.525 201.981 524.363C276.038 532.855 348.606 525.216 417.242 505.248C441.945 498.155 465.922 489.525 489.515 480.054C564.369 450.39 635.883 412.962 716.266 396.301C794.701 380.004 880.887 383.829 962.261 417.283C1039.55 448.998 1107.14 505.039 1161.84 566.424C1166.39 571.659 1170.9 576.748 1175.3 582.023C1223.02 638.508 1263.04 699.734 1308.59 756.957C1316.39 766.675 1324.37 776.501 1332.57 785.954C1388.43 850.492 1456.1 909.187 1534.64 938.521C1546.04 942.866 1557.53 946.399 1569.2 949.412C1674.23 977.155 1787.43 951.384 1875.01 895.167C1921.2 865.469 1957.79 828.112 2008.95 808.733M-86.3686 386.417C-8.57627 463.497 97.0827 508.864 200.313 521.661C274.086 530.859 346.852 523.954 415.537 504.76C440.28 497.814 464.335 489.478 488.007 480.301C563.018 451.224 634.768 414.677 715.309 398.604C793.794 383.081 879.55 387.651 960.63 421.184C1037.62 452.978 1105.24 508.538 1160.12 569.404C1164.78 574.453 1169.18 579.728 1173.73 584.963C1221.66 641.076 1262 701.744 1307.92 758.555C1315.72 768.273 1323.81 777.912 1332.15 787.326C1387.93 851.57 1456.03 909.52 1534.52 938.08C1546.03 942.239 1557.52 945.772 1569 948.677C1674.05 975.314 1786.17 948.417 1874.05 892.749C1920.36 863.491 1957.33 826.976 2008.61 808.038M-86.8148 381.814C-9.57065 459.198 95.6583 505.309 198.537 519.145C272.174 529.01 344.882 523.065 413.617 504.645C438.292 498.032 462.533 489.804 486.284 480.92C561.492 452.578 633.399 416.619 714.029 401.466C792.378 386.609 877.891 392.032 958.677 425.643C1035.38 457.516 1102.88 512.636 1157.97 573.129C1162.63 578.178 1167.14 583.267 1171.54 588.541C1219.65 644.135 1260.2 704.43 1306.48 760.829C1314.43 770.508 1322.48 780.001 1330.82 789.414C1387.33 852.835 1455.75 910.226 1534.19 938.012C1545.65 942.024 1557.11 945.41 1568.7 948.129C1673.73 973.512 1784.9 945.45 1872.94 890.37C1919.33 861.406 1956.83 825.694 2008.08 807.236M-87.2611 377.21C-10.4575 454.712 94.1944 501.608 196.869 516.444C270.409 527.122 343.166 521.95 411.913 504.157C436.666 497.838 460.946 489.757 484.776 481.166C560.18 453.559 632.432 418.295 713.072 403.769C791.47 389.686 876.553 395.854 957.007 429.397C1033.41 461.349 1100.94 515.988 1156.21 575.962C1160.87 581.011 1165.38 586.1 1169.89 591.188C1218.21 646.409 1259.13 706.293 1305.69 761.986C1313.59 771.518 1321.79 780.971 1330.25 790.199C1387.07 853.06 1455.78 909.746 1534.32 936.718C1545.78 940.731 1557.34 943.93 1568.89 946.502C1673.79 970.818 1783.98 941.445 1872.36 887.059C1918.83 858.389 1956.9 823.627 2008.13 805.648M-87.7073 372.606C-11.3444 450.227 92.5837 497.946 195.24 513.889C268.497 525.272 341.344 521.022 410.394 503.777C435.186 497.605 459.438 490.003 483.307 481.56C558.908 454.687 631.317 420.011 712.047 406.405C790.495 393.097 875.148 400.009 955.307 433.631C1031.42 465.661 1098.98 519.821 1154.31 579.462C1158.97 584.511 1163.63 589.56 1167.99 594.688C1216.53 649.536 1257.77 708.861 1304.69 764.142C1312.74 773.635 1320.9 782.941 1329.36 792.169C1386.55 854.619 1455.54 910.599 1534.17 936.758C1545.74 940.584 1557.26 943.636 1568.81 946.209C1673.69 969.27 1782.84 938.919 1871.52 885.081C1917.96 856.892 1956.67 822.745 2008.05 805.355M-88.1536 368.003C-12.2313 445.741 91.1199 494.245 193.571 511.187C266.692 523.237 339.589 519.76 408.582 503.475C433.453 497.597 457.744 490.143 481.652 481.846C557.45 455.708 630.056 421.766 710.943 408.748C789.255 396.105 873.664 403.871 953.529 437.571C1029.35 469.68 1096.79 523.399 1152.44 582.481C1157.1 587.53 1161.72 592.432 1166.23 597.521C1214.95 651.85 1256.59 710.91 1303.68 765.672C1311.7 775.017 1320.01 784.284 1328.46 793.512C1385.97 855.403 1455.28 910.824 1533.97 936.023C1545.5 939.703 1557.03 942.755 1568.54 945.18C1673.43 967.135 1781.45 935.512 1870.44 882.222C1916.96 854.326 1956.05 821.022 2007.59 804.219M-88.5999 363.399C-13.0788 441.403 89.5093 490.583 191.903 508.486C264.741 521.241 337.727 518.685 406.877 502.987C431.827 497.403 456.157 490.095 480.144 482.093C556.139 456.689 629.049 423.295 709.839 411.09C788.201 399.222 872.326 407.693 951.752 441.511C1027.28 473.699 1094.75 526.938 1150.62 585.647C1155.24 590.55 1159.89 595.599 1164.51 600.501C1213.44 654.458 1255.4 712.958 1302.86 767.309C1311.02 776.615 1319.33 785.882 1327.85 794.776C1385.83 856.069 1455.28 910.824 1534.07 935.21C1545.56 938.743 1557.19 941.609 1568.66 943.887C1673.43 964.774 1780.47 931.839 1869.8 879.245C1916.44 851.79 1956.06 819.288 2007.57 802.965M-89.0461 358.796C-14.1126 436.957 88.0454 486.882 190.274 505.931C263.015 519.499 335.904 517.756 405.251 502.793C430.24 497.356 454.649 490.342 478.715 482.633C554.906 457.964 628.013 425.304 709 413.834C787.412 402.74 871.107 411.955 950.239 445.853C1025.47 478.119 1092.82 530.917 1148.87 589.107C1153.63 593.97 1158.25 598.872 1162.76 603.961C1211.87 657.398 1254.19 715.487 1301.87 769.465C1310.03 778.771 1318.44 787.852 1326.96 796.746C1385.27 857.48 1455.19 911.637 1533.88 935.103C1545.52 938.596 1556.97 941.354 1568.55 943.447C1673.29 963.08 1779.28 929.166 1868.87 876.973C1915.59 849.812 1955.74 818.113 2007.26 802.417M-89.4924 354.192C-14.9994 432.471 86.5816 483.181 188.606 503.229C261.21 517.464 334.188 516.642 403.546 502.306C428.614 497.162 453.102 490.442 477.207 482.88C553.595 458.945 627.045 426.981 708.043 416.138C786.504 405.817 869.77 415.777 948.421 449.646C1023.36 481.991 1090.74 534.309 1147 592.127C1151.77 596.99 1156.38 601.892 1161 606.794C1210.32 659.859 1253.01 717.536 1301.01 770.955C1309.28 780.075 1317.69 789.156 1326.21 798.05C1384.84 858.225 1455.04 911.677 1533.87 934.476C1545.47 937.822 1557.02 940.394 1568.6 942.486C1673.37 961.013 1778.23 925.827 1868.17 874.329C1914.82 847.501 1955.53 816.752 2007.13 801.349M-89.8993 349.735C-15.847 428.132 85.0103 479.666 187.016 500.821C259.337 515.762 332.365 515.713 401.92 502.112C426.919 497.301 451.447 490.728 475.591 483.313C552.176 460.112 625.784 428.736 706.871 418.813C785.196 409.159 868.218 419.972 946.575 453.919C1021.22 486.343 1088.48 538.221 1145.06 595.479C1149.83 600.342 1154.41 605.098 1159.03 610C1208.56 662.692 1251.57 719.81 1299.89 772.671C1308.16 781.791 1316.68 790.685 1325.35 799.54C1384.3 859.157 1454.82 912.049 1533.71 933.888C1545.28 937.087 1556.83 939.66 1568.33 941.458C1672.92 958.77 1776.99 922.38 1866.98 871.657C1913.74 845.269 1954.95 815.175 2006.56 800.4M-90.3456 345.132C-16.6945 423.794 83.5464 475.965 185.348 498.119C257.572 513.873 330.65 514.599 400.254 501.771C425.293 497.107 449.899 490.828 474.123 483.706C550.904 461.24 624.709 430.598 705.953 421.263C784.328 412.382 866.92 423.941 944.984 457.967C1019.33 490.469 1086.62 541.867 1143.28 598.792C1148 603.508 1152.77 608.371 1157.39 613.274C1207.1 665.447 1250.47 722.153 1299 774.641C1307.38 783.574 1315.9 792.469 1324.53 801.177C1383.8 860.235 1454.61 912.422 1533.6 933.447C1545.27 936.46 1556.78 938.886 1568.28 940.684C1672.89 956.889 1775.87 919.374 1866.12 869.052C1912.97 842.958 1954.75 813.814 2006.47 799.479M-90.7919 340.528C-17.7282 419.348 82.0826 472.264 183.68 495.418C255.767 511.838 328.788 513.523 398.549 501.283C423.667 496.913 448.313 490.781 472.615 483.953C549.554 462.075 623.702 432.128 704.888 423.753C783.313 415.646 865.622 427.91 943.245 462.054C1017.3 494.635 1084.47 545.592 1141.45 601.959C1146.17 606.675 1150.94 611.538 1155.52 616.293C1205.3 668.133 1249.03 724.427 1298.04 776.317C1306.41 785.251 1315.04 793.959 1323.82 802.628C1383.41 861.127 1454.54 912.755 1533.48 933.007C1545.15 936.02 1556.77 938.259 1568.23 939.911C1672.86 955.008 1774.71 916.221 1865.31 866.594C1912.27 840.941 1954.54 812.452 2006.28 798.744M-91.2381 335.924C-18.6151 414.862 80.5113 468.749 182.051 492.863C253.855 509.988 327.112 512.556 396.923 501.089C422.12 497.013 446.844 491.174 471.185 484.494C548.321 463.35 622.627 433.99 704.01 426.35C782.406 418.723 864.363 432.026 941.693 466.249C1015.46 498.908 1082.66 549.385 1139.85 605.38C1144.57 610.096 1149.3 614.812 1154.03 619.528C1203.98 670.848 1248.07 726.731 1297.29 778.248C1305.78 786.995 1314.26 795.743 1323.18 804.372C1383.1 862.313 1454.66 913.196 1533.55 932.674C1545.18 935.54 1556.76 937.632 1568.33 939.097C1672.79 952.981 1773.7 913.029 1864.64 864.097C1911.53 838.777 1954.37 811.238 2006.23 797.971M-91.6844 331.321C-19.502 410.377 79.0475 465.048 180.382 490.161C252.051 507.953 325.21 511.333 395.218 500.601C420.454 496.672 445.11 491.167 469.677 484.74C547.01 464.331 621.62 435.52 702.945 428.839C781.244 422.025 862.918 436.034 939.915 470.189C1013.38 502.927 1080.61 552.924 1137.87 608.585C1142.74 613.262 1147.47 617.978 1152.05 622.733C1202.22 673.681 1246.68 729.152 1296.22 780.11C1304.7 788.858 1313.29 797.419 1322.18 805.902C1382.41 863.283 1454.3 913.607 1533.24 932.125C1544.83 934.845 1556.56 936.898 1567.94 938.255C1672.43 951.032 1772.24 909.955 1863.45 861.424C1910.42 836.398 1953.79 809.661 2005.66 797.021M-92.1306 326.717C-20.3495 406.038 77.6518 461.014 178.714 487.459C250.246 505.918 323.495 510.219 393.514 500.113C418.828 496.478 443.524 491.12 467.983 484.88C545.512 465.205 620.319 437.128 701.802 431.035C780.151 424.995 861.395 439.749 938.098 473.982C1011.27 506.799 1078.39 556.355 1135.96 611.458C1140.84 616.134 1145.53 620.704 1150.25 625.42C1200.64 675.995 1245.41 730.907 1295.32 781.453C1303.95 790.162 1312.54 798.723 1321.53 807.019C1382.09 863.842 1454.26 913.461 1533.3 931.165C1545.04 933.845 1556.54 935.644 1568.07 936.962C1672.53 948.485 1771.26 906.283 1862.81 858.447C1909.9 833.861 1953.8 807.927 2005.64 795.767M-92.4299 322.074C-21.0894 401.513 76.2275 457.459 177.085 484.905C248.481 504.029 321.672 509.29 391.888 499.919C417.281 496.578 442.016 491.366 466.554 485.42C544.28 466.479 619.244 438.99 700.816 433.818C779.215 428.552 860.029 444.051 936.438 478.363C1009.32 511.259 1076.46 560.335 1134.11 615.104C1138.94 619.634 1143.67 624.35 1148.36 628.919C1198.92 678.975 1244.06 733.475 1294.14 783.502C1302.73 792.063 1311.46 800.585 1320.46 808.882C1381.48 865.106 1453.93 914.019 1532.97 931.097C1544.67 933.63 1556.31 935.389 1567.8 936.561C1672.14 947.016 1769.88 903.502 1861.74 856.215C1908.76 831.962 1953.34 806.792 2005.15 795.111M-92.8762 317.471C-22.1231 397.067 74.6168 453.797 175.417 482.203C246.676 501.994 319.957 508.175 390.183 499.432C415.469 496.276 440.468 491.466 465.046 485.667C542.969 467.461 618.276 440.666 699.859 436.121C778.269 431.482 858.692 447.873 934.807 482.264C1007.36 515.091 1074.42 563.874 1132.39 618.084C1137.22 622.614 1142.06 627.144 1146.78 631.86C1197.56 681.543 1243.06 735.631 1293.46 785.1C1302.05 793.661 1310.9 801.997 1319.85 810.146C1381.2 865.812 1453.93 914.019 1533.06 930.284C1544.87 932.631 1556.33 934.282 1567.93 935.268C1672.28 944.615 1768.86 899.683 1861.1 853.237C1908.2 829.279 1953.16 804.95 2005.27 793.818M-93.3224 312.867C-22.9706 392.728 73.153 450.096 173.788 479.648C244.804 500.291 318.094 507.1 388.517 499.091C413.882 496.229 438.921 491.566 463.577 486.06C541.697 468.589 617.201 442.529 698.834 438.758C777.146 434.932 857.433 451.988 933.108 486.497C1005.51 519.365 1072.45 567.706 1130.64 621.544C1135.47 626.074 1140.31 630.604 1144.99 635.173C1195.95 684.337 1241.81 738.013 1292.43 787.109C1301.13 795.484 1309.97 803.82 1319.07 811.93C1380.74 867.037 1453.8 914.686 1532.99 929.99C1544.75 932.19 1556.36 933.802 1567.92 934.641C1672.25 942.735 1767.78 896.824 1860.32 850.926C1907.5 827.261 1953.03 803.883 2005.11 793.231M-93.7687 308.263C-23.8575 388.243 71.5423 446.435 172.12 476.946C242.999 498.256 316.379 505.985 386.852 498.75C412.295 496.182 437.226 491.705 461.961 486.493C540.278 469.756 615.94 444.284 697.769 441.247C776.132 438.195 855.988 455.997 931.33 490.438C1003.44 523.383 1070.26 571.284 1128.62 624.603C1133.46 629.133 1138.25 633.516 1143.09 638.045C1194.25 686.837 1240.44 739.955 1291.42 788.639C1300.12 797.014 1309.07 805.163 1318.17 813.273C1380.2 867.968 1453.5 914.764 1532.83 929.403C1544.59 931.602 1556.27 932.882 1567.68 933.759C1672.03 940.746 1766.58 893.524 1859.13 848.254C1906.43 825.029 1952.45 802.306 2004.55 792.281M-94.2149 303.66C-24.8913 383.797 70.0785 442.733 170.491 474.391C241.087 496.407 314.556 505.057 385.186 498.409C410.669 495.988 435.679 491.805 460.453 486.74C538.967 470.737 614.972 445.96 696.852 443.697C775.264 441.419 854.69 459.966 929.738 494.485C1001.55 527.51 1068.41 574.931 1126.98 627.877C1131.93 632.22 1136.76 636.75 1141.45 641.319C1192.83 689.738 1239.38 742.444 1290.68 790.569C1299.48 798.758 1308.44 806.907 1317.5 814.87C1379.85 869.007 1453.48 915.244 1532.71 928.962C1544.44 931.015 1556.11 932.294 1567.59 932.838C1671.77 938.611 1765.38 890.224 1858.28 845.649C1905.51 822.758 1952.24 800.945 2004.31 791.4M-94.6612 299.056C-25.7781 379.311 68.6541 439.179 168.823 471.69C239.321 494.518 312.841 503.942 383.521 498.068C409.082 495.941 434.171 492.052 458.985 487.134C537.695 471.865 613.857 447.676 695.787 446.187C774.21 444.535 853.246 463.974 928 498.572C999.52 531.676 1066.26 578.656 1125.16 631.043C1130.1 635.387 1134.93 639.916 1139.73 644.299C1191.28 692.199 1238.05 744.532 1289.71 792.245C1298.52 800.434 1307.58 808.397 1316.78 816.321C1379.46 869.899 1453.55 915.538 1532.7 928.335C1544.53 930.202 1556.17 931.334 1567.65 931.878C1671.85 936.544 1764.37 887.032 1857.53 842.858C1904.88 820.407 1951.96 799.289 2004.18 790.332M-95.1075 294.453C-26.6257 374.972 67.0434 435.517 167.154 468.988C237.517 492.483 310.939 502.72 381.816 497.58C407.456 495.747 432.584 492.004 457.476 487.38C536.383 472.846 612.89 449.352 694.869 448.637C773.195 447.799 851.948 467.943 926.408 502.62C997.634 535.802 1064.4 582.302 1123.37 634.356C1128.31 638.7 1133.1 643.083 1138.05 647.426C1189.82 694.953 1236.94 746.875 1288.89 793.882C1297.84 802.032 1306.86 809.848 1316.07 817.772C1379.07 870.791 1453.45 915.724 1532.69 927.708C1544.48 929.428 1556.12 930.56 1567.71 930.918C1671.93 934.477 1763.32 883.693 1856.82 840.214C1904.25 818.057 1951.9 797.889 2004.05 789.265M-95.5537 289.849C-27.5125 370.487 65.5795 431.816 165.525 466.433C235.605 490.634 309.263 501.752 380.151 497.24C405.83 495.553 431.037 492.104 456.008 487.774C535.072 473.828 611.815 451.215 693.804 451.126C772.18 451.062 850.463 471.804 924.669 506.707C995.602 539.968 1062.4 585.988 1121.54 637.523C1126.48 641.866 1131.42 646.21 1136.22 650.592C1188.17 697.6 1235.65 749.11 1287.81 795.745C1296.73 803.747 1305.93 811.671 1315.21 819.262C1378.53 871.722 1453.23 916.097 1532.57 927.267C1544.37 928.987 1556.07 929.786 1567.51 930.184C1671.56 932.528 1762.05 880.726 1855.86 837.795C1903.41 816.079 1951.54 796.567 2003.85 788.53M-96 285.245C18.9173 422.752 206.063 506.108 378.485 496.899C485.425 491.226 584.656 452.668 692.74 453.616C852.392 454.914 1010.63 543.182 1134.39 653.759C1195.47 708.396 1250.74 768.997 1314.39 820.899C1378.04 872.8 1453.02 916.469 1532.45 926.827C1706.15 949.394 1836.24 811.565 2003.62 787.649" stroke="url(#paint45_linear_90_4331)" stroke-width="0.75" stroke-miterlimit="10"/>
</g>
<defs>
<linearGradient id="paint0_linear_90_4331" x1="960.276" y1="1010.32" x2="960.276" y2="1015.79" gradientUnits="userSpaceOnUse">
<stop stop-color="#501C52"/>
<stop offset="1" stop-color="#3F2E98"/>
</linearGradient>
<linearGradient id="paint1_linear_90_4331" x1="960.276" y1="997.997" x2="960.276" y2="1003.47" gradientUnits="userSpaceOnUse">
<stop stop-color="#501C52"/>
<stop offset="1" stop-color="#3F2E98"/>
</linearGradient>
<linearGradient id="paint2_linear_90_4331" x1="960.276" y1="1010.32" x2="960.276" y2="1015.79" gradientUnits="userSpaceOnUse">
<stop stop-color="#501C52"/>
<stop offset="1" stop-color="#3F2E98"/>
</linearGradient>
<linearGradient id="paint3_linear_90_4331" x1="960.276" y1="1032.21" x2="960.276" y2="1037.69" gradientUnits="userSpaceOnUse">
<stop stop-color="#501C52"/>
<stop offset="1" stop-color="#3F2E98"/>
</linearGradient>
<linearGradient id="paint4_linear_90_4331" x1="960.276" y1="997.997" x2="960.276" y2="1003.47" gradientUnits="userSpaceOnUse">
<stop stop-color="#501C52"/>
<stop offset="1" stop-color="#3F2E98"/>
</linearGradient>
<linearGradient id="paint5_linear_90_4331" x1="960.276" y1="1021.11" x2="960.276" y2="1026.59" gradientUnits="userSpaceOnUse">
<stop stop-color="#501C52"/>
<stop offset="1" stop-color="#3F2E98"/>
</linearGradient>
<linearGradient id="paint6_linear_90_4331" x1="959.303" y1="1012.6" x2="959.303" y2="1018.37" gradientUnits="userSpaceOnUse">
<stop stop-color="#501C52"/>
<stop offset="1" stop-color="#3F2E98"/>
</linearGradient>
<linearGradient id="paint7_linear_90_4331" x1="959.303" y1="999.518" x2="959.303" y2="1005.3" gradientUnits="userSpaceOnUse">
<stop stop-color="#501C52"/>
<stop offset="1" stop-color="#3F2E98"/>
</linearGradient>
<linearGradient id="paint8_linear_90_4331" x1="959.303" y1="1011.38" x2="959.303" y2="1017.16" gradientUnits="userSpaceOnUse">
<stop stop-color="#501C52"/>
<stop offset="1" stop-color="#3F2E98"/>
</linearGradient>
<linearGradient id="paint9_linear_90_4331" x1="959.303" y1="995.108" x2="959.303" y2="1000.89" gradientUnits="userSpaceOnUse">
<stop stop-color="#501C52"/>
<stop offset="1" stop-color="#3F2E98"/>
</linearGradient>
<linearGradient id="paint10_linear_90_4331" x1="960.276" y1="1044.53" x2="960.276" y2="1050.01" gradientUnits="userSpaceOnUse">
<stop stop-color="#501C52"/>
<stop offset="1" stop-color="#3F2E98"/>
</linearGradient>
<linearGradient id="paint11_linear_90_4331" x1="960.276" y1="1010.32" x2="960.276" y2="1015.79" gradientUnits="userSpaceOnUse">
<stop stop-color="#501C52"/>
<stop offset="1" stop-color="#3F2E98"/>
</linearGradient>
<linearGradient id="paint12_linear_90_4331" x1="960.276" y1="1033.43" x2="960.276" y2="1038.9" gradientUnits="userSpaceOnUse">
<stop stop-color="#501C52"/>
<stop offset="1" stop-color="#3F2E98"/>
</linearGradient>
<linearGradient id="paint13_linear_90_4331" x1="960.276" y1="999.67" x2="960.276" y2="1005.14" gradientUnits="userSpaceOnUse">
<stop stop-color="#501C52"/>
<stop offset="1" stop-color="#3F2E98"/>
</linearGradient>
<linearGradient id="paint14_linear_90_4331" x1="965.631" y1="1" x2="965.631" y2="1129" gradientUnits="userSpaceOnUse">
<stop stop-color="#501C52"/>
<stop offset="1" stop-color="#3F2E98"/>
</linearGradient>
<linearGradient id="paint15_linear_90_4331" x1="965.403" y1="7.39124" x2="965.403" y2="1121.27" gradientUnits="userSpaceOnUse">
<stop stop-color="#501C52"/>
<stop offset="1" stop-color="#3F2E98"/>
</linearGradient>
<linearGradient id="paint16_linear_90_4331" x1="965.326" y1="13.9302" x2="965.326" y2="1114.13" gradientUnits="userSpaceOnUse">
<stop stop-color="#501C52"/>
<stop offset="1" stop-color="#3F2E98"/>
</linearGradient>
<linearGradient id="paint17_linear_90_4331" x1="965.251" y1="20.3231" x2="965.251" y2="1106.71" gradientUnits="userSpaceOnUse">
<stop stop-color="#501C52"/>
<stop offset="1" stop-color="#3F2E98"/>
</linearGradient>
<linearGradient id="paint18_linear_90_4331" x1="964.871" y1="26.8405" x2="964.871" y2="1099.89" gradientUnits="userSpaceOnUse">
<stop stop-color="#501C52"/>
<stop offset="1" stop-color="#3F2E98"/>
</linearGradient>
<linearGradient id="paint19_linear_90_4331" x1="964.566" y1="33.2228" x2="964.566" y2="1092.92" gradientUnits="userSpaceOnUse">
<stop stop-color="#501C52"/>
<stop offset="1" stop-color="#3F2E98"/>
</linearGradient>
<linearGradient id="paint20_linear_90_4331" x1="964.414" y1="39.7286" x2="964.414" y2="1086.36" gradientUnits="userSpaceOnUse">
<stop stop-color="#501C52"/>
<stop offset="1" stop-color="#3F2E98"/>
</linearGradient>
<linearGradient id="paint21_linear_90_4331" x1="964.186" y1="46.0989" x2="964.186" y2="1080.16" gradientUnits="userSpaceOnUse">
<stop stop-color="#501C52"/>
<stop offset="1" stop-color="#3F2E98"/>
</linearGradient>
<linearGradient id="paint22_linear_90_4331" x1="964.11" y1="52.6003" x2="964.11" y2="1074.29" gradientUnits="userSpaceOnUse">
<stop stop-color="#501C52"/>
<stop offset="1" stop-color="#3F2E98"/>
</linearGradient>
<linearGradient id="paint23_linear_90_4331" x1="963.958" y1="58.9463" x2="963.958" y2="1069.05" gradientUnits="userSpaceOnUse">
<stop stop-color="#501C52"/>
<stop offset="1" stop-color="#3F2E98"/>
</linearGradient>
<linearGradient id="paint24_linear_90_4331" x1="963.654" y1="65.2924" x2="963.654" y2="1064.01" gradientUnits="userSpaceOnUse">
<stop stop-color="#501C52"/>
<stop offset="1" stop-color="#3F2E98"/>
</linearGradient>
<linearGradient id="paint25_linear_90_4331" x1="963.578" y1="71.7611" x2="963.578" y2="1059.79" gradientUnits="userSpaceOnUse">
<stop stop-color="#501C52"/>
<stop offset="1" stop-color="#3F2E98"/>
</linearGradient>
<linearGradient id="paint26_linear_90_4331" x1="963.122" y1="78.0884" x2="963.122" y2="1056.08" gradientUnits="userSpaceOnUse">
<stop stop-color="#501C52"/>
<stop offset="1" stop-color="#3F2E98"/>
</linearGradient>
<linearGradient id="paint27_linear_90_4331" x1="962.893" y1="84.5444" x2="962.893" y2="1053.08" gradientUnits="userSpaceOnUse">
<stop stop-color="#501C52"/>
<stop offset="1" stop-color="#3F2E98"/>
</linearGradient>
<linearGradient id="paint28_linear_90_4331" x1="962.818" y1="90.842" x2="962.818" y2="1050.59" gradientUnits="userSpaceOnUse">
<stop stop-color="#501C52"/>
<stop offset="1" stop-color="#3F2E98"/>
</linearGradient>
<linearGradient id="paint29_linear_90_4331" x1="962.437" y1="97.2727" x2="962.437" y2="1048.55" gradientUnits="userSpaceOnUse">
<stop stop-color="#501C52"/>
<stop offset="1" stop-color="#3F2E98"/>
</linearGradient>
<linearGradient id="paint30_linear_90_4331" x1="962.362" y1="103.544" x2="962.362" y2="1047.39" gradientUnits="userSpaceOnUse">
<stop stop-color="#501C52"/>
<stop offset="1" stop-color="#3F2E98"/>
</linearGradient>
<linearGradient id="paint31_linear_90_4331" x1="962.362" y1="109.946" x2="962.362" y2="1046.57" gradientUnits="userSpaceOnUse">
<stop stop-color="#501C52"/>
<stop offset="1" stop-color="#3F2E98"/>
</linearGradient>
<linearGradient id="paint32_linear_90_4331" x1="962.058" y1="116.19" x2="962.058" y2="1046.43" gradientUnits="userSpaceOnUse">
<stop stop-color="#501C52"/>
<stop offset="1" stop-color="#3F2E98"/>
</linearGradient>
<linearGradient id="paint33_linear_90_4331" x1="961.83" y1="122.41" x2="961.83" y2="1046.82" gradientUnits="userSpaceOnUse">
<stop stop-color="#501C52"/>
<stop offset="1" stop-color="#3F2E98"/>
</linearGradient>
<linearGradient id="paint34_linear_90_4331" x1="961.677" y1="128.753" x2="961.677" y2="1047.52" gradientUnits="userSpaceOnUse">
<stop stop-color="#501C52"/>
<stop offset="1" stop-color="#3F2E98"/>
</linearGradient>
<linearGradient id="paint35_linear_90_4331" x1="961.449" y1="134.932" x2="961.449" y2="1048.52" gradientUnits="userSpaceOnUse">
<stop stop-color="#501C52"/>
<stop offset="1" stop-color="#3F2E98"/>
</linearGradient>
<linearGradient id="paint36_linear_90_4331" x1="960.917" y1="141.248" x2="960.917" y2="1049.84" gradientUnits="userSpaceOnUse">
<stop stop-color="#501C52"/>
<stop offset="1" stop-color="#3F2E98"/>
</linearGradient>
<linearGradient id="paint37_linear_90_4331" x1="961.069" y1="147.366" x2="961.069" y2="1051.36" gradientUnits="userSpaceOnUse">
<stop stop-color="#501C52"/>
<stop offset="1" stop-color="#3F2E98"/>
</linearGradient>
<linearGradient id="paint38_linear_90_4331" x1="960.841" y1="153.587" x2="960.841" y2="1053.09" gradientUnits="userSpaceOnUse">
<stop stop-color="#501C52"/>
<stop offset="1" stop-color="#3F2E98"/>
</linearGradient>
<linearGradient id="paint39_linear_90_4331" x1="960.841" y1="159.63" x2="960.841" y2="1055.06" gradientUnits="userSpaceOnUse">
<stop stop-color="#501C52"/>
<stop offset="1" stop-color="#3F2E98"/>
</linearGradient>
<linearGradient id="paint40_linear_90_4331" x1="960.613" y1="165.766" x2="960.613" y2="1057.46" gradientUnits="userSpaceOnUse">
<stop stop-color="#501C52"/>
<stop offset="1" stop-color="#3F2E98"/>
</linearGradient>
<linearGradient id="paint41_linear_90_4331" x1="960.385" y1="171.709" x2="960.385" y2="1059.6" gradientUnits="userSpaceOnUse">
<stop stop-color="#501C52"/>
<stop offset="1" stop-color="#3F2E98"/>
</linearGradient>
<linearGradient id="paint42_linear_90_4331" x1="960.005" y1="177.73" x2="960.005" y2="1061.95" gradientUnits="userSpaceOnUse">
<stop stop-color="#501C52"/>
<stop offset="1" stop-color="#3F2E98"/>
</linearGradient>
<linearGradient id="paint43_linear_90_4331" x1="960.081" y1="183.584" x2="960.081" y2="1064.14" gradientUnits="userSpaceOnUse">
<stop stop-color="#501C52"/>
<stop offset="1" stop-color="#3F2E98"/>
</linearGradient>
<linearGradient id="paint44_linear_90_4331" x1="959.701" y1="189.438" x2="959.701" y2="1066.77" gradientUnits="userSpaceOnUse">
<stop stop-color="#501C52"/>
<stop offset="1" stop-color="#3F2E98"/>
</linearGradient>
<linearGradient id="paint45_linear_90_4331" x1="820.695" y1="39.5803" x2="1096.28" y2="1067.93" gradientUnits="userSpaceOnUse">
<stop stop-color="#501C52"/>
<stop offset="1" stop-color="#3F2E98"/>
</linearGradient>
</defs>
</svg>
