<svg width="491" height="399" viewBox="0 0 491 399" fill="none" xmlns="http://www.w3.org/2000/svg">
<path opacity="0.1" fill-rule="evenodd" clip-rule="evenodd" d="M0 -71H537V399H0V-71ZM0.839063 -70.1607H66.2859V-4.69643H0.839063V-70.1607ZM67.9641 -70.1607H133.411V-4.69643H67.9641V-70.1607ZM200.536 -70.1607H135.089V-4.69643H200.536V-70.1607ZM202.214 -70.1607H267.661V-4.69643H202.214V-70.1607ZM334.786 -70.1607H269.339V-4.69643H334.786V-70.1607ZM336.464 -70.1607H401.911V-4.69643H336.464V-70.1607ZM469.036 -70.1607H403.589V-4.69643H469.036V-70.1607ZM470.714 -70.1607H536.161V-4.69643H470.714V-70.1607ZM66.2859 -3.01785H0.839063V62.4464H66.2859V-3.01785ZM67.9641 -3.01785H133.411V62.4464H67.9641V-3.01785ZM200.536 -3.01785H135.089V62.4464H200.536V-3.01785ZM202.214 -3.01785H267.661V62.4464H202.214V-3.01785ZM334.786 -3.01785H269.339V62.4464H334.786V-3.01785ZM336.464 -3.01785H401.911V62.4464H336.464V-3.01785ZM469.036 -3.01785H403.589V62.4464H469.036V-3.01785ZM470.714 -3.01785H536.161V62.4464H470.714V-3.01785ZM66.2859 64.125H0.839063V129.589H66.2859V64.125ZM67.9641 64.125H133.411V129.589H67.9641V64.125ZM200.536 64.125H135.089V129.589H200.536V64.125ZM202.214 64.125H267.661V129.589H202.214V64.125ZM334.786 64.125H269.339V129.589H334.786V64.125ZM336.464 64.125H401.911V129.589H336.464V64.125ZM469.036 64.125H403.589V129.589H469.036V64.125ZM470.714 64.125H536.161V129.589H470.714V64.125ZM66.2859 131.268H0.839063V196.732H66.2859V131.268ZM67.9641 131.268H133.411V196.732H67.9641V131.268ZM200.536 131.268H135.089V196.732H200.536V131.268ZM202.214 131.268H267.661V196.732H202.214V131.268ZM334.786 131.268H269.339V196.732H334.786V131.268ZM336.464 131.268H401.911V196.732H336.464V131.268ZM469.036 131.268H403.589V196.732H469.036V131.268ZM470.714 131.268H536.161V196.732H470.714V131.268ZM66.2859 198.411H0.839063V263.875H66.2859V198.411ZM67.9641 198.411H133.411V263.875H67.9641V198.411ZM200.536 198.411H135.089V263.875H200.536V198.411ZM202.214 198.411H267.661V263.875H202.214V198.411ZM334.786 198.411H269.339V263.875H334.786V198.411ZM336.464 198.411H401.911V263.875H336.464V198.411ZM469.036 198.411H403.589V263.875H469.036V198.411ZM470.714 198.411H536.161V263.875H470.714V198.411ZM66.2859 265.554H0.839063V331.018H66.2859V265.554ZM67.9641 265.554H133.411V331.018H67.9641V265.554ZM200.536 265.554H135.089V331.018H200.536V265.554ZM202.214 265.554H267.661V331.018H202.214V265.554ZM334.786 265.554H269.339V331.018H334.786V265.554ZM336.464 265.554H401.911V331.018H336.464V265.554ZM469.036 265.554H403.589V331.018H469.036V265.554ZM470.714 265.554H536.161V331.018H470.714V265.554ZM66.2859 332.696H0.839063V398.161H66.2859V332.696ZM67.9641 332.696H133.411V398.161H67.9641V332.696ZM200.536 332.696H135.089V398.161H200.536V332.696ZM202.214 332.696H267.661V398.161H202.214V332.696ZM334.786 332.696H269.339V398.161H334.786V332.696ZM336.464 332.696H401.911V398.161H336.464V332.696ZM469.036 332.696H403.589V398.161H469.036V332.696ZM470.714 332.696H536.161V398.161H470.714V332.696Z" fill="url(#paint0_linear_2_172)" fill-opacity="0.3"/>
<defs>
<linearGradient id="paint0_linear_2_172" x1="268.5" y1="-71" x2="75.019" y2="147.017" gradientUnits="userSpaceOnUse">
<stop stop-color="white"/>
<stop offset="1" stop-color="white" stop-opacity="0"/>
</linearGradient>
</defs>
</svg>
