<svg width="36.000000" height="36.000000" viewBox="0 0 36 36" fill="none" xmlns="http://www.w3.org/2000/svg" xmlns:xlink="http://www.w3.org/1999/xlink">
	<desc>
			Created with Pixso.
	</desc>
	<defs>
		<filter id="filter_7_452_dd" x="0.000000" y="0.000000" width="36.000000" height="36.000000" filterUnits="userSpaceOnUse" color-interpolation-filters="sRGB">
			<feFlood flood-opacity="0" result="BackgroundImageFix"/>
			<feBlend mode="normal" in="SourceGraphic" in2="BackgroundImageFix" result="shape"/>
			<feColorMatrix in="SourceAlpha" type="matrix" values="0 0 0 0 0 0 0 0 0 0 0 0 0 0 0 0 0 0 127 0" result="hardAlpha"/>
			<feOffset dx="0" dy="4"/>
			<feGaussianBlur stdDeviation="1.33333"/>
			<feComposite in2="hardAlpha" operator="arithmetic" k2="-1" k3="1"/>
			<feColorMatrix type="matrix" values="0 0 0 0 1 0 0 0 0 1 0 0 0 0 1 0 0 0 0.25 0"/>
			<feBlend mode="normal" in2="shape" result="effect_innerShadow_1"/>
		</filter>
		<clipPath id="clip7_452">
			<rect id="Frame 12138264" rx="3.000000" width="35.000000" height="35.000000" transform="translate(0.500000 0.500000)" fill="white" fill-opacity="0"/>
		</clipPath>
		<linearGradient id="paint_linear_7_452_0" x1="18.000000" y1="0.000000" x2="18.000000" y2="7.411765" gradientUnits="userSpaceOnUse">
			<stop stop-color="#FFFFFF" stop-opacity="0.501961"/>
			<stop offset="1.000000" stop-color="#FFFFFF" stop-opacity="0.000000"/>
		</linearGradient>
	</defs>
	<g filter="url(#filter_7_452_dd)">
		<rect id="Frame 12138264" rx="3.000000" width="35.000000" height="35.000000" transform="translate(0.500000 0.500000)" fill="#F3BA2F" fill-opacity="1.000000"/>
		<g clip-path="url(#clip7_452)">
			<path id="Vector" d="M17.6223 7.5459L11.8909 13.2767C11.6742 13.4934 11.6742 13.8292 11.8909 14.0459L13.2885 15.4434C13.5052 15.66 13.8411 15.66 14.0578 15.4434L17.6223 11.8792C17.839 11.6626 18.1749 11.6626 18.3916 11.8792L21.9561 15.4434C22.1728 15.66 22.5087 15.66 22.7254 15.4434L24.123 14.0459C24.3397 13.8292 24.3397 13.4934 24.123 13.2767L18.3916 7.5459C18.1749 7.34009 17.8282 7.34009 17.6223 7.5459Z" fill="#0B0F15" fill-opacity="1.000000" fill-rule="nonzero"/>
			<path id="Vector" d="M17.6223 28.4543L11.8909 22.7234C11.6742 22.5068 11.6742 22.171 11.8909 21.9543L13.2885 20.5568C13.5052 20.3401 13.8411 20.3401 14.0578 20.5568L17.6223 24.121C17.839 24.3376 18.1749 24.3376 18.3916 24.121L21.9561 20.5568C22.1728 20.3401 22.5087 20.3401 22.7254 20.5568L24.123 21.9543C24.3397 22.171 24.3397 22.5068 24.123 22.7234L18.3916 28.4543C18.1749 28.6601 17.8282 28.6601 17.6223 28.4543Z" fill="#0B0F15" fill-opacity="1.000000" fill-rule="nonzero"/>
			<path id="Vector" d="M26.7785 15.9416L28.447 17.6099C28.6637 17.8266 28.6637 18.1624 28.447 18.3791L26.7785 20.0474C26.5618 20.2641 26.2259 20.2641 26.0092 20.0474L24.3407 18.3791C24.1241 18.1624 24.1241 17.8266 24.3407 17.6099L26.0092 15.9416C26.2259 15.7358 26.5726 15.7358 26.7785 15.9416Z" fill="#0B0F15" fill-opacity="1.000000" fill-rule="nonzero"/>
			<path id="Vector" d="M9.98265 15.9416L11.6512 17.6099C11.8678 17.8266 11.8678 18.1624 11.6512 18.3791L9.98265 20.0474C9.76597 20.2641 9.43009 20.2641 9.2134 20.0474L7.5449 18.3791C7.32821 18.1624 7.32821 17.8266 7.5449 17.6099L9.2134 15.9416C9.43009 15.7358 9.7768 15.7358 9.98265 15.9416Z" fill="#0B0F15" fill-opacity="1.000000" fill-rule="nonzero"/>
			<path id="Vector" d="M18.378 15.7032L20.2957 17.6208C20.5124 17.8375 20.5124 18.1733 20.2957 18.39L18.378 20.3074C18.1613 20.5241 17.8254 20.5241 17.6087 20.3074L15.691 18.39C15.4743 18.1733 15.4743 17.8375 15.691 17.6208L17.6087 15.7032C17.8254 15.4866 18.1721 15.4866 18.378 15.7032Z" fill="#0B0F15" fill-opacity="1.000000" fill-rule="nonzero"/>
			<g opacity="0.000000"/>
		</g>
	</g>
	<rect id="Frame 12138264" rx="3.000000" width="35.000000" height="35.000000" transform="translate(0.500000 0.500000)" stroke="url(#paint_linear_7_452_0)" stroke-opacity="1.000000" stroke-width="1.000000" style=""/>
</svg>
