<svg width="36.000000" height="36.000000" viewBox="0 0 36 36" fill="none" xmlns="http://www.w3.org/2000/svg" xmlns:xlink="http://www.w3.org/1999/xlink">
	<desc>
			Created with Pixso.
	</desc>
	<defs>
		<filter id="filter_7_450_dd" x="0.000000" y="0.000000" width="36.000000" height="36.000000" filterUnits="userSpaceOnUse" color-interpolation-filters="sRGB">
			<feFlood flood-opacity="0" result="BackgroundImageFix"/>
			<feBlend mode="normal" in="SourceGraphic" in2="BackgroundImageFix" result="shape"/>
			<feColorMatrix in="SourceAlpha" type="matrix" values="0 0 0 0 0 0 0 0 0 0 0 0 0 0 0 0 0 0 127 0" result="hardAlpha"/>
			<feOffset dx="0" dy="4"/>
			<feGaussianBlur stdDeviation="1.33333"/>
			<feComposite in2="hardAlpha" operator="arithmetic" k2="-1" k3="1"/>
			<feColorMatrix type="matrix" values="0 0 0 0 1 0 0 0 0 1 0 0 0 0 1 0 0 0 0.25 0"/>
			<feBlend mode="normal" in2="shape" result="effect_innerShadow_1"/>
		</filter>
		<clipPath id="clip7_450">
			<rect id="Frame 12138263" rx="3.000000" width="35.000000" height="35.000000" transform="translate(0.500000 0.500000)" fill="white" fill-opacity="0"/>
		</clipPath>
		<linearGradient id="paint_linear_7_450_0" x1="18.000000" y1="0.000000" x2="18.000000" y2="7.411765" gradientUnits="userSpaceOnUse">
			<stop stop-color="#FFFFFF" stop-opacity="0.501961"/>
			<stop offset="1.000000" stop-color="#FFFFFF" stop-opacity="0.000000"/>
		</linearGradient>
	</defs>
	<g filter="url(#filter_7_450_dd)">
		<rect id="Frame 12138263" rx="3.000000" width="35.000000" height="35.000000" transform="translate(0.500000 0.500000)" fill="#196DEA" fill-opacity="1.000000"/>
		<g clip-path="url(#clip7_450)">
			<path id="Shape" d="M18.1965 8.02985L18.1965 8.03973C18.2065 8.08948 18.2065 8.14911 18.2065 8.20874L18.2065 15.3757C18.1965 15.4155 18.1664 15.4254 18.1363 15.4453C17.9258 15.5447 17.7253 15.6342 17.5147 15.7236C17.224 15.8528 16.9232 15.992 16.6325 16.1212L15.5798 16.5984C15.289 16.7276 14.9983 16.8568 14.7176 16.986C14.3767 17.1451 14.0258 17.2942 13.6849 17.4532C13.3942 17.5825 13.1034 17.7216 12.8027 17.8508C12.5621 17.9602 12.3214 18.0596 12.0909 18.1689C12.0708 18.1789 12.0508 18.1888 12.0307 18.1888C12.0207 18.1888 12.0207 18.1888 12.0107 18.1789L12.2813 17.7316C12.8027 16.8767 13.314 16.0318 13.8353 15.1769C14.3867 14.2624 14.9482 13.3479 15.4996 12.4334C16.0109 11.5884 16.5322 10.7435 17.0435 9.89862C17.4145 9.28229 17.7955 8.66602 18.1664 8.04968C18.1764 8.02985 18.1865 8.0199 18.1865 8L18.1965 8C18.1865 8.00995 18.1965 8.0199 18.1965 8.02985Z" fill="#FFFFFF" fill-opacity="1.000000" fill-rule="nonzero"/>
			<path id="Shape" d="M24.3547 18.179L24.3648 18.1889L22.891 19.0537L18.2592 21.7674C18.2391 21.7773 18.2191 21.7873 18.209 21.7972C18.179 21.7972 18.179 21.7674 18.179 21.7574L18.179 21.668L18.179 15.5249C18.179 15.4951 18.179 15.4553 18.189 15.4255C18.199 15.3857 18.2291 15.3957 18.2592 15.4056C18.3895 15.4653 18.5299 15.5249 18.6602 15.5845C19.0512 15.7635 19.4422 15.9424 19.8332 16.1114C20.1741 16.2605 20.5049 16.4196 20.8458 16.5686C21.1866 16.7177 21.5275 16.8768 21.8684 17.0259C22.1591 17.1551 22.4599 17.2943 22.7506 17.4235C23.0414 17.5527 23.3422 17.6919 23.6329 17.8211C23.8635 17.9205 24.0941 18.0298 24.3247 18.1293C24.3247 18.1591 24.3347 18.169 24.3547 18.179Z" fill="#FFFFFF" fill-opacity="1.000000" fill-rule="nonzero"/>
			<path id="Shape" d="M18.1965 27.9702C18.1965 27.9801 18.1865 27.9901 18.1865 28L18.1764 28C18.1764 27.9801 18.1564 27.9702 18.1464 27.9503C17.5248 27.0855 16.9032 26.2108 16.2816 25.3459C15.65 24.4612 15.0083 23.5667 14.3767 22.6819C13.7651 21.8271 13.1436 20.9623 12.532 20.1074C12.3716 19.8788 12.2112 19.6601 12.0508 19.4315C12.0407 19.4116 12.0307 19.4017 12.0107 19.3718C12.0407 19.3718 12.0608 19.3917 12.0708 19.4017C12.943 19.9086 13.8052 20.4155 14.6775 20.9225C15.68 21.509 16.6726 22.0955 17.6751 22.6819L18.1865 22.9802C18.2065 23.0001 18.2065 23.0199 18.2065 23.0398L18.2065 27.831C18.2065 27.8807 18.2065 27.9304 18.1965 27.9702Z" fill="#FFFFFF" fill-opacity="1.000000" fill-rule="nonzero"/>
			<path id="Path" d="M12 18.1989L12 18.1889C12.3208 18.0497 12.6316 17.9006 12.9524 17.7615C13.3635 17.5726 13.7745 17.3937 14.1856 17.2048C14.4964 17.0657 14.8172 16.9166 15.128 16.7774C15.5892 16.5687 16.0403 16.3698 16.5015 16.1611C16.8123 16.0219 17.1231 15.8828 17.4439 15.7336C17.6645 15.6343 17.8951 15.5349 18.1156 15.4354C18.1357 15.4255 18.1658 15.4156 18.1758 15.3957C18.1858 15.3957 18.1858 15.4056 18.1758 15.4156L18.1758 21.7277C18.1758 21.7574 18.1658 21.7873 18.1858 21.8071C18.1658 21.837 18.1457 21.8071 18.1357 21.7972C18.0455 21.7475 17.9552 21.6978 17.865 21.6382C15.93 20.505 13.9851 19.3619 12.0501 18.2286C12.0401 18.2188 12.0201 18.2088 12 18.1989Z" fill="#FFFFFF" fill-opacity="1.000000" fill-rule="nonzero"/>
			<path id="Path" d="M24.3318 19.3718L24.3418 19.3718C24.3418 19.3917 24.3218 19.4116 24.3118 19.4315C22.467 22.006 20.6223 24.5905 18.7776 27.165C18.5871 27.4334 18.3866 27.7018 18.1961 27.9702C18.1861 27.9602 18.1861 27.9503 18.1861 27.9403L18.1861 27.8807L18.1861 23.0597L18.1861 22.9702C18.6071 22.7217 19.0182 22.4832 19.4393 22.2346C21.0634 21.2803 22.6876 20.3361 24.3017 19.3818C24.3118 19.3917 24.3218 19.3818 24.3318 19.3718Z" fill="#FFFFFF" fill-opacity="1.000000" fill-rule="nonzero"/>
			<g opacity="0.750000">
				<path id="Shape" d="M18.1884 15.4157L18.1884 15.3958L18.1884 15.3362L18.1884 8.11951C18.1884 8.08966 18.1783 8.06982 18.1984 8.03998C20.2336 11.3899 22.2688 14.7298 24.294 18.0797C24.314 18.1096 24.3441 18.1493 24.3541 18.1891C24.2138 18.1393 24.0835 18.0698 23.9531 18.0101C23.7927 17.9406 23.6223 17.861 23.4619 17.7914C23.3616 17.7418 23.2513 17.702 23.1511 17.6523C22.9806 17.5728 22.8102 17.5032 22.6398 17.4236C22.5395 17.3839 22.4392 17.3342 22.339 17.2845L21.6773 16.9863C21.567 16.9366 21.4567 16.8869 21.3364 16.8372L20.8552 16.6284C20.7549 16.5887 20.6547 16.5389 20.5544 16.4893L19.8927 16.191C19.7824 16.1414 19.6722 16.0917 19.5518 16.0419L19.0706 15.8332C18.9603 15.7835 18.8601 15.7338 18.7498 15.6841C18.5593 15.5947 18.3688 15.5052 18.1683 15.4257C18.1984 15.4157 18.1884 15.4157 18.1884 15.4157Z" fill="#FFFFFF" fill-opacity="1.000000" fill-rule="nonzero"/>
			</g>
		</g>
	</g>
	<rect id="Frame 12138263" rx="3.000000" width="35.000000" height="35.000000" transform="translate(0.500000 0.500000)" stroke="url(#paint_linear_7_450_0)" stroke-opacity="1.000000" stroke-width="1.000000" style=""/>
</svg>
