<svg width="36.000000" height="36.000000" viewBox="0 0 36 36" fill="none" xmlns="http://www.w3.org/2000/svg" xmlns:xlink="http://www.w3.org/1999/xlink">
	<desc>
			Created with Pixso.
	</desc>
	<defs>
		<filter id="filter_7_460_dd" x="0.000000" y="0.000000" width="36.000000" height="36.000000" filterUnits="userSpaceOnUse" color-interpolation-filters="sRGB">
			<feFlood flood-opacity="0" result="BackgroundImageFix"/>
			<feBlend mode="normal" in="SourceGraphic" in2="BackgroundImageFix" result="shape"/>
			<feColorMatrix in="SourceAlpha" type="matrix" values="0 0 0 0 0 0 0 0 0 0 0 0 0 0 0 0 0 0 127 0" result="hardAlpha"/>
			<feOffset dx="0" dy="4"/>
			<feGaussianBlur stdDeviation="1.33333"/>
			<feComposite in2="hardAlpha" operator="arithmetic" k2="-1" k3="1"/>
			<feColorMatrix type="matrix" values="0 0 0 0 1 0 0 0 0 1 0 0 0 0 1 0 0 0 0.25 0"/>
			<feBlend mode="normal" in2="shape" result="effect_innerShadow_1"/>
		</filter>
		<clipPath id="clip7_460">
			<rect id="Frame 12138265" rx="3.000000" width="35.000000" height="35.000000" transform="translate(0.500000 0.500000)" fill="white" fill-opacity="0"/>
		</clipPath>
		<linearGradient id="paint_linear_7_460_0" x1="18.000000" y1="0.000000" x2="18.000000" y2="7.411765" gradientUnits="userSpaceOnUse">
			<stop stop-color="#FFFFFF" stop-opacity="0.501961"/>
			<stop offset="1.000000" stop-color="#FFFFFF" stop-opacity="0.000000"/>
		</linearGradient>
	</defs>
	<g filter="url(#filter_7_460_dd)">
		<rect id="Frame 12138265" rx="3.000000" width="35.000000" height="35.000000" transform="translate(0.500000 0.500000)" fill="#8247E5" fill-opacity="1.000000"/>
		<g clip-path="url(#clip7_460)">
			<path id="Vector" d="M23.9295 13.3353C23.4726 13.0504 22.8851 13.0504 22.3629 13.3353L18.7076 15.6854L16.2272 17.181L12.6371 19.5311C12.1802 19.816 11.5927 19.816 11.0705 19.5311L8.26371 17.6796C7.80679 17.3947 7.48042 16.825 7.48042 16.184L7.48042 12.6232C7.48042 12.0535 7.74151 11.4836 8.26371 11.1276L11.0705 9.34717C11.5274 9.06226 12.1149 9.06226 12.6371 9.34717L15.4439 11.1989C15.9008 11.4836 16.2272 12.0535 16.2272 12.6943L16.2272 15.0446L18.7076 13.4778L18.7076 11.0564C18.7076 10.4867 18.4465 9.91687 17.9243 9.56079L12.7024 6.21362C12.2454 5.92883 11.658 5.92883 11.1358 6.21362L5.78329 9.63208C5.2611 9.91687 5 10.4867 5 11.0564L5 17.7507C5 18.3204 5.2611 18.8903 5.78329 19.2463L11.0705 22.5935C11.5274 22.8783 12.1149 22.8783 12.6371 22.5935L16.2272 20.3146L18.7076 18.7478L22.2977 16.4689C22.7546 16.184 23.342 16.184 23.8642 16.4689L26.671 18.2493C27.1279 18.5342 27.4543 19.1039 27.4543 19.7448L27.4543 23.3057C27.4543 23.8754 27.1932 24.4451 26.671 24.8011L23.9295 26.5815C23.4726 26.8665 22.8851 26.8665 22.3629 26.5815L19.5561 24.8011C19.0992 24.5164 18.7728 23.9465 18.7728 23.3057L18.7728 21.0267L16.2924 22.5935L16.2924 24.9436C16.2924 25.5133 16.5535 26.0831 17.0757 26.4392L22.3629 29.7864C22.8198 30.0712 23.4073 30.0712 23.9295 29.7864L29.2167 26.4392C29.6736 26.1543 30 25.5846 30 24.9436L30 18.1781C30 17.6083 29.7389 17.0386 29.2167 16.6825L23.9295 13.3353Z" fill="#FFFFFF" fill-opacity="1.000000" fill-rule="nonzero"/>
		</g>
	</g>
	<rect id="Frame 12138265" rx="3.000000" width="35.000000" height="35.000000" transform="translate(0.500000 0.500000)" stroke="url(#paint_linear_7_460_0)" stroke-opacity="1.000000" stroke-width="1.000000" style=""/>
</svg>
