<svg width="30.000000" height="29.000000" viewBox="0 0 30 29" fill="none" xmlns="http://www.w3.org/2000/svg" xmlns:xlink="http://www.w3.org/1999/xlink">
	<desc>
			Created with Pixso.
	</desc>
	<defs/>
	<path id="Vector" d="M30 14.5364C30 6.51221 23.28 0 15 0C6.72 0 0 6.51221 0 14.5364C0 21.572 5.16 27.4302 12 28.782L12 18.8972L9 18.8972L9 14.5364L12 14.5364L12 10.9023C12 8.09668 14.355 5.81445 17.25 5.81445L21 5.81445L21 10.1755L18 10.1755C17.175 10.1755 16.5 10.8296 16.5 11.6292L16.5 14.5364L21 14.5364L21 18.8972L16.5 18.8972L16.5 29C24.075 28.2732 30 22.0808 30 14.5364Z" fill="#3C4867" fill-opacity="1.000000" fill-rule="nonzero"/>
</svg>
