<svg width="197.000000" height="35.000000" viewBox="0 0 197 35" fill="none" xmlns="http://www.w3.org/2000/svg" xmlns:xlink="http://www.w3.org/1999/xlink">
	<desc>
			Created with Pixso.
	</desc>
	<defs>
		<filter id="filter_12_149_dd" x="47.000000" y="8.000000" width="150.000000" height="18.000000" filterUnits="userSpaceOnUse" color-interpolation-filters="sRGB">
			<feFlood flood-opacity="0" result="BackgroundImageFix"/>
			<feBlend mode="normal" in="SourceGraphic" in2="BackgroundImageFix" result="shape"/>
			<feColorMatrix in="SourceAlpha" type="matrix" values="0 0 0 0 0 0 0 0 0 0 0 0 0 0 0 0 0 0 127 0" result="hardAlpha"/>
			<feOffset dx="0" dy="1"/>
			<feGaussianBlur stdDeviation="1.66667"/>
			<feComposite in2="hardAlpha" operator="arithmetic" k2="-1" k3="1"/>
			<feColorMatrix type="matrix" values="0 0 0 0 1 0 0 0 0 1 0 0 0 0 1 0 0 0 0.6 0"/>
			<feBlend mode="normal" in2="shape" result="effect_innerShadow_1"/>
		</filter>
		<linearGradient id="paint_linear_12_146_0" x1="17.500000" y1="0.000000" x2="17.500000" y2="3.000000" gradientUnits="userSpaceOnUse">
			<stop stop-color="#FFFFFF" stop-opacity="0.478431"/>
			<stop offset="1.000000" stop-color="#FFFFFF" stop-opacity="0.000000"/>
		</linearGradient>
	</defs>
	<mask id="mask_12_146" fill="white">
		<path d="M4 0L31 0C33.2091 0 35 1.79077 35 4L35 31C35 33.2092 33.2091 35 31 35L24.8636 35L32.4205 32.1841C32.7336 32.0674 32.9412 31.7686 32.9412 31.4346L32.9412 26.2778C32.9412 25.9438 32.7336 25.6448 32.4205 25.5283L0 13.4478L0 9.22559L31.8618 21.0979C32.3846 21.2927 32.9412 20.9062 32.9412 20.3484L32.9412 15.9185C32.9412 15.5845 32.7336 15.2854 32.4205 15.1687L0.0961982 3.12402C0.495596 1.33618 2.09175 0 4 0ZM0 21.6306L0 31C0 33.0708 1.57343 34.7739 3.58993 34.9792L21.039 29.6208C21.7926 29.3896 21.7926 28.3228 21.039 28.0913L0 21.6306Z" clip-rule="evenodd" fill="" fill-opacity="1.000000" fill-rule="evenodd"/>
	</mask>
	<path d="M4 0L31 0C33.2091 0 35 1.79077 35 4L35 31C35 33.2092 33.2091 35 31 35L24.8636 35L32.4205 32.1841C32.7336 32.0674 32.9412 31.7686 32.9412 31.4346L32.9412 26.2778C32.9412 25.9438 32.7336 25.6448 32.4205 25.5283L0 13.4478L0 9.22559L31.8618 21.0979C32.3846 21.2927 32.9412 20.9062 32.9412 20.3484L32.9412 15.9185C32.9412 15.5845 32.7336 15.2854 32.4205 15.1687L0.0961982 3.12402C0.495596 1.33618 2.09175 0 4 0ZM0 21.6306L0 31C0 33.0708 1.57343 34.7739 3.58993 34.9792L21.039 29.6208C21.7926 29.3896 21.7926 28.3228 21.039 28.0913L0 21.6306Z" clip-rule="evenodd" fill="#27314A" fill-opacity="1.000000" fill-rule="evenodd" mask="url(#mask_12_146)"/>
	<path d="M31 0L4 0C2.09175 0 0.495596 1.33618 0.0961982 3.12402L32.4205 15.1687C32.7336 15.2854 32.9412 15.5845 32.9412 15.9185L32.9412 20.3484C32.9412 20.9062 32.3846 21.2927 31.8618 21.0979L0.3 9.33737L0 9.22559L0 13.4478L32.4205 25.5283C32.7336 25.6448 32.9412 25.9438 32.9412 26.2778L32.9412 31.4346C32.9412 31.7686 32.7336 32.0674 32.4205 32.1841L24.8636 35L31 35C33.2091 35 35 33.2092 35 31L35 4C35 1.79077 33.2091 0 31 0ZM26.5278 34.7L31 34.7Q31.4205 34.7 31.8205 34.6093Q32.1367 34.5377 32.4401 34.4094Q32.7506 34.278 33.0278 34.0961Q33.3436 33.8889 33.6163 33.6162Q33.8899 33.3426 34.0975 33.0258Q34.2785 32.7495 34.4094 32.4402Q34.5381 32.1357 34.6099 31.8183Q34.7 31.4193 34.7 31L34.7 4Q34.7 3.58066 34.6098 3.18168Q34.5381 2.8643 34.4094 2.55981Q34.2785 2.25054 34.0975 1.97417Q33.8899 1.65736 33.6163 1.38379Q33.3435 1.11105 33.0278 0.903869Q32.7505 0.721954 32.4401 0.590576Q32.1367 0.462278 31.8204 0.390637Q31.4205 0.300049 31 0.300049L4 0.300049Q3.61963 0.300049 3.25455 0.374762Q2.99494 0.42789 2.74305 0.518799Q2.47469 0.615778 2.22724 0.75104Q1.93461 0.911004 1.67124 1.12451Q1.42104 1.32752 1.21219 1.56665Q1.01868 1.78821 0.860657 2.04077Q0.68403 2.32319 0.562429 2.62759Q0.501622 2.77981 0.454574 2.93752L32.5253 14.8877Q32.6868 14.9479 32.8167 15.0488Q32.9464 15.1496 33.0446 15.291Q33.143 15.4326 33.1921 15.5895Q33.2412 15.7463 33.2412 15.9185L33.2412 20.3484Q33.2412 20.5046 33.2003 20.6492Q33.1679 20.7637 33.11 20.8708Q33.0517 20.9786 32.9733 21.0689Q32.8841 21.1716 32.7687 21.2517Q32.6525 21.3325 32.524 21.3803Q32.4129 21.4217 32.2925 21.4385Q32.1712 21.4555 32.0521 21.4457Q31.9028 21.4334 31.7571 21.3792L0.3 9.65741L0.3 13.2393L32.5253 25.2471Q32.6868 25.3073 32.8167 25.4082Q32.9464 25.509 33.0446 25.6504Q33.143 25.7919 33.1921 25.9489Q33.2412 26.1057 33.2412 26.2778L33.2412 31.4346Q33.2412 31.6067 33.1921 31.7635Q33.143 31.9205 33.0446 32.062Q32.9464 32.2034 32.8167 32.3042Q32.6868 32.4051 32.5253 32.4653L26.5278 34.7ZM0 21.6306L0 31C0 33.0708 1.57343 34.7739 3.58993 34.9792L21.039 29.6208C21.7926 29.3896 21.7926 28.3228 21.039 28.0913L0.3 21.7227L0 21.6306ZM0.3 22.0366L0.3 31Q0.3 31.403 0.383528 31.7878Q0.446358 32.0772 0.55645 32.3564Q0.670698 32.6462 0.829348 32.9092Q1.01476 33.2165 1.26081 33.4873Q1.50077 33.7514 1.78109 33.9618Q2.03194 34.15 2.31511 34.2952Q2.61448 34.4485 2.9313 34.5439Q3.23804 34.6362 3.56114 34.6742L20.951 29.3342Q21.0714 29.2972 21.1533 29.2197Q21.1882 29.1866 21.2162 29.1462Q21.2475 29.1009 21.2677 29.0511Q21.3042 28.961 21.3042 28.8562Q21.3042 28.7514 21.2677 28.6613Q21.2475 28.6115 21.2162 28.5662Q21.1882 28.5258 21.1533 28.4927Q21.0714 28.4152 20.951 28.3782L0.3 22.0366Z" clip-rule="evenodd" fill="url(#paint_linear_12_146_0)" fill-opacity="1.000000" fill-rule="evenodd"/>
	<g filter="url(#filter_12_149_dd)">
		<path d="M72.3004 13.3215C72.3004 14.6785 71.8745 15.8638 71.0228 16.8774C71.6768 17.6621 72.0798 18.5696 72.2319 19.5994C72.384 20.6294 72.2624 21.6267 71.8669 22.5913C71.4715 23.5559 70.8631 24.3242 70.0418 24.8965C69.2205 25.4524 68.3232 25.7302 67.3498 25.7302L47 25.7302L47 8L67.3498 8C68.7186 8 69.8821 8.52319 70.8403 9.56958C71.8137 10.5994 72.3004 11.8501 72.3004 13.3215ZM67.6692 21.4878C68.0342 21.4878 68.346 21.3489 68.6046 21.0708C68.8631 20.793 68.9924 20.4578 68.9924 20.0654C68.9924 19.6731 68.8631 19.3379 68.6046 19.0601C68.346 18.782 68.0342 18.6431 67.6692 18.6431L50.9468 18.6431L50.9468 21.4878L67.6692 21.4878ZM67.6692 15.0872C68.0342 15.0872 68.346 14.9482 68.6046 14.6704C68.8631 14.3923 68.9924 14.0571 68.9924 13.6648C68.9924 13.2725 68.8631 12.9456 68.6046 12.6838C68.346 12.406 68.0342 12.2671 67.6692 12.2671L50.9468 12.2671L50.9468 15.0872L67.6692 15.0872Z" fill="#27314A" fill-opacity="1.000000" fill-rule="nonzero"/>
		<path d="M79.8289 25.7302L75.8821 25.7302L75.8821 8L79.8289 8L79.8289 25.7302Z" fill="#27314A" fill-opacity="1.000000" fill-rule="nonzero"/>
		<path d="M107.479 12.2671L97.4183 12.2671L97.4183 25.7302L93.4715 25.7302L93.4715 12.2671L83.4106 12.2671L83.4106 8L107.479 8L107.479 12.2671Z" fill="#27314A" fill-opacity="1.000000" fill-rule="nonzero"/>
		<path d="M111.061 8L115.008 8L115.008 21.4878L131.844 21.4878L131.844 25.7302L111.061 25.7302L111.061 8Z" fill="#27314A" fill-opacity="1.000000" fill-rule="nonzero"/>
		<path d="M139.373 25.7302L135.426 25.7302L135.426 8L139.373 8L139.373 25.7302Z" fill="#27314A" fill-opacity="1.000000" fill-rule="nonzero"/>
		<path d="M157.966 15.2834C158.817 15.3977 159.471 15.4878 159.928 15.5532C160.384 15.6184 161.03 15.7166 161.867 15.8474C162.719 15.9619 163.388 16.0681 163.875 16.1663C164.361 16.2644 164.97 16.395 165.7 16.5586C166.445 16.7058 167.038 16.8611 167.479 17.0244C167.92 17.188 168.422 17.376 168.985 17.5886C169.548 17.7847 169.981 18.0054 170.285 18.2507C170.605 18.4795 170.909 18.7412 171.198 19.0354C171.502 19.3132 171.707 19.624 171.814 19.9673C171.92 20.2942 171.951 20.6458 171.905 21.0217C171.89 21.823 171.532 22.5259 170.833 23.1309C170.118 23.7683 169.144 24.2915 167.913 24.7002C166.452 25.158 164.954 25.4768 163.418 25.6567C161.471 25.8855 159.586 26 157.76 26C156.011 26 154.217 25.8611 152.376 25.583C150.825 25.3706 149.266 24.9863 147.7 24.4304C146.285 23.8911 145.183 23.2861 144.392 22.6157C144.011 22.2888 143.684 21.8066 143.411 21.1689C143.137 20.5149 142.985 19.9509 142.954 19.4768L146.262 19.5259L149.707 19.5503L149.707 19.5994C149.753 19.9919 149.875 20.3923 150.072 20.801C150.392 21.4714 151.243 22.0273 152.627 22.4688C154.011 22.8938 155.738 23.1062 157.806 23.1062C159.875 23.1062 161.646 22.9019 163.122 22.4932C164.612 22.0681 165.418 21.5449 165.54 20.9236C165.57 20.6948 165.433 20.4905 165.129 20.3105C164.825 20.1145 164.354 19.9509 163.715 19.8201C163.076 19.6731 162.399 19.5503 161.684 19.4524C160.985 19.3379 160.118 19.2153 159.084 19.0845C159.053 19.0845 159.03 19.0845 159.015 19.0845C159 19.0845 158.977 19.0845 158.947 19.0845C158.916 19.0681 158.886 19.0601 158.856 19.0601C154.445 18.4878 151.297 17.9075 149.411 17.3188C145.958 16.2397 144.217 14.6948 144.186 12.6838C144.171 12.5532 144.179 12.3652 144.209 12.1199L144.232 12.1199C144.308 11.5312 144.62 11 145.167 10.5259C145.791 10.0027 146.681 9.55322 147.837 9.177C149.251 8.76831 150.635 8.49048 151.989 8.34326C153.738 8.14722 155.502 8.04907 157.281 8.04907C158.802 8.04907 160.316 8.12256 161.821 8.26978C162.977 8.38428 164.125 8.58032 165.266 8.8584C166.118 9.05444 166.939 9.34888 167.73 9.74121C168.262 9.98633 168.817 10.3459 169.395 10.8201C169.654 11.0491 169.882 11.2942 170.08 11.5559C170.46 11.9319 170.741 12.8147 170.924 14.2043L164.422 14.2043C164.407 14.188 164.392 14.1553 164.376 14.1062C164.361 14.0571 164.354 14.0244 164.354 14.0081C164.247 13.6812 164.118 13.4277 163.966 13.248C163.433 12.4795 162.62 11.9482 161.525 11.6541C160.43 11.3596 159.023 11.2126 157.304 11.2126C155.51 11.2126 153.966 11.417 152.673 11.8257C151.38 12.218 150.673 12.7002 150.551 13.2725C150.521 13.6812 151.046 14.0327 152.125 14.3269C153.008 14.5723 154.954 14.8911 157.966 15.2834Z" fill="#27314A" fill-opacity="1.000000" fill-rule="nonzero"/>
		<path d="M197 12.2671L186.939 12.2671L186.939 25.7302L182.992 25.7302L182.992 12.2671L172.932 12.2671L172.932 8L197 8L197 12.2671Z" fill="#27314A" fill-opacity="1.000000" fill-rule="nonzero"/>
	</g>
</svg>
