<svg width="30.000000" height="30.000000" viewBox="0 0 30 30" fill="none" xmlns="http://www.w3.org/2000/svg" xmlns:xlink="http://www.w3.org/1999/xlink">
	<desc>
			Created with Pixso.
	</desc>
	<defs/>
	<path id="Vector" d="M15 0C6.72 0 0 6.71997 0 15C0 23.28 6.72 30 15 30C23.28 30 30 23.28 30 15C30 6.71997 23.28 0 15 0ZM21.96 10.2C21.735 12.5701 20.76 18.3301 20.265 20.9851C20.055 22.1101 19.635 22.4851 19.245 22.53C18.375 22.605 17.715 21.96 16.875 21.405C15.555 20.5349 14.805 19.9951 13.53 19.155C12.045 18.1799 13.005 17.6399 13.86 16.77C14.085 16.5449 17.925 13.05 18 12.7351C18.0104 12.6873 18.009 12.6377 17.996 12.5908C17.9829 12.5437 17.9585 12.5005 17.925 12.4651C17.835 12.3899 17.715 12.4199 17.61 12.4351C17.475 12.4651 15.375 13.8601 11.28 16.6201C10.68 17.0249 10.14 17.2351 9.66 17.22C9.12 17.2051 8.1 16.9199 7.335 16.665C6.39 16.365 5.655 16.2 5.715 15.675C5.745 15.405 6.12 15.135 6.825 14.8501C11.205 12.9451 14.115 11.6851 15.57 11.085C19.74 9.34497 20.595 9.04492 21.165 9.04492C21.285 9.04492 21.57 9.07495 21.75 9.2251C21.9 9.34497 21.945 9.51001 21.96 9.62988C21.945 9.71997 21.975 9.98999 21.96 10.2Z" fill="#3C4867" fill-opacity="1.000000" fill-rule="nonzero"/>
</svg>
