<svg width="38.461540" height="38.461426" viewBox="0 0 38.4615 38.4614" fill="none" xmlns="http://www.w3.org/2000/svg" xmlns:xlink="http://www.w3.org/1999/xlink">
	<desc>
			Created with Pixso.
	</desc>
	<defs/>
	<path id="Vector" d="M19.2308 0C8.60978 0 0 8.60986 0 19.2307C0 29.8518 8.60978 38.4614 19.2308 38.4614C29.8518 38.4614 38.4615 29.8518 38.4615 19.2307C38.4615 8.60986 29.8518 0 19.2308 0ZM27.0533 15.7532C27.0613 15.9175 27.0633 16.0818 27.0633 16.2419C27.0633 21.25 23.2552 27.0212 16.2881 27.0212C14.2294 27.0247 12.2135 26.4333 10.4828 25.3186C10.7772 25.3545 11.0797 25.3687 11.3862 25.3687C13.1611 25.3687 14.7937 24.7656 16.0897 23.748C15.2999 23.7324 14.5346 23.4709 13.9005 22.9998C13.2663 22.5288 12.795 21.8716 12.5521 21.1199C13.1193 21.2275 13.7036 21.2051 14.2608 21.0537C13.4035 20.8804 12.6326 20.4158 12.0787 19.739C11.5249 19.062 11.2222 18.2144 11.222 17.3398L11.222 17.2937C11.7328 17.5762 12.3177 17.7483 12.9387 17.7683C12.135 17.2334 11.5661 16.4116 11.3482 15.4709C11.1304 14.5305 11.2802 13.5422 11.7668 12.7083C12.7183 13.8782 13.9048 14.8352 15.2495 15.5173C16.5943 16.1997 18.0674 16.5918 19.5733 16.6687C19.3819 15.856 19.4643 15.0029 19.8077 14.2417C20.1512 13.4807 20.7364 12.8545 21.4725 12.4604C22.2086 12.0664 23.0542 11.9265 23.878 12.0627C24.7018 12.1987 25.4575 12.6033 26.0276 13.2131C26.8753 13.0454 27.6883 12.7344 28.4315 12.2937C28.149 13.1714 27.5574 13.9165 26.7668 14.3911C27.5177 14.3005 28.2509 14.0986 28.9423 13.792C28.4345 14.553 27.7947 15.2173 27.0533 15.7532Z" fill="#3C4867" fill-opacity="1.000000" fill-rule="nonzero"/>
</svg>
