<svg width="134" height="59" viewBox="0 0 134 59" fill="none" xmlns="http://www.w3.org/2000/svg">
<rect width="90.5557" height="72.2666" transform="matrix(1 0 -0.579213 0.815176 42.5077 0)" fill="#E0E245"/>
<path d="M90.3299 6.85074C89.2838 5.98331 87.8462 5.76009 86.5864 6.26945L43.9266 23.4919C42.0501 24.2643 41.155 26.4117 41.9274 28.2881C42.3269 29.2586 43.1221 30.0118 44.1127 30.3581L53.3156 33.5575L58.3031 50.0476C58.3131 50.0811 58.3439 50.1016 58.3569 50.1339C58.4085 50.2654 58.4839 50.3865 58.5791 50.4908C58.6145 50.5328 58.6532 50.5722 58.6945 50.6085C58.8187 50.7117 58.963 50.788 59.1182 50.8325C59.1419 50.8394 59.1577 50.8605 59.1819 50.866L59.1958 50.8654L59.2028 50.8683C59.2823 50.8861 59.3634 50.8947 59.4446 50.8939C59.5508 50.8901 59.6562 50.8718 59.7573 50.8394C59.777 50.8341 59.7967 50.8355 59.8159 50.8291C59.9887 50.7682 60.1448 50.6681 60.2719 50.5364C60.2868 50.5216 60.3093 50.519 60.3235 50.5033L67.499 42.5861L77.9668 50.6916C78.6029 51.1889 79.3871 51.4591 80.1943 51.4589C81.9405 51.4586 83.4478 50.2355 83.8076 48.5269L91.5761 10.3896C91.8453 9.0704 91.3662 7.71018 90.3299 6.85074ZM60.9073 36.6849L59.2234 44.8677L55.7119 33.2538L73.1283 24.1847L61.2305 36.0827C61.066 36.2473 60.9536 36.4567 60.9073 36.6849ZM81.4757 48.0479C81.3844 48.4862 81.0717 48.8456 80.6502 48.9966C80.2384 49.155 79.7733 49.0844 79.4272 48.8106L68.0851 40.0285C67.594 39.6483 66.8931 39.71 66.476 40.1703L61.4864 45.6755L63.1673 37.515L80.2828 20.3971C80.748 19.9328 80.7488 19.1795 80.2844 18.7144C79.9172 18.3463 79.3535 18.2594 78.8924 18.4998L54.2177 31.3491L44.8916 28.1074C44.3832 27.9401 44.0375 27.4682 44.0313 26.9331C44.0067 26.3943 44.3257 25.8989 44.8265 25.6985L87.4792 8.47835C87.9248 8.28929 88.4389 8.36849 88.8069 8.68297C89.1731 8.97855 89.3414 9.45536 89.2417 9.9153L81.4757 48.0479Z" fill="black"/>
</svg>
