<svg width="133" height="59" viewBox="0 0 133 59" fill="none" xmlns="http://www.w3.org/2000/svg">
<rect width="90.5557" height="72.2666" transform="matrix(1 0 -0.579213 0.815176 41.8578 0)" fill="#E0E245"/>
<path d="M91.65 13.8765C89.7709 14.6917 87.7836 15.2307 85.75 15.4765C87.8955 14.1948 89.5032 12.1785 90.275 9.8015C88.2589 11.0017 86.0519 11.8472 83.75 12.3015C82.2114 10.6329 80.1624 9.52224 77.9245 9.14363C75.6866 8.76502 73.3864 9.1399 71.3845 10.2095C69.3826 11.2791 67.7924 12.9828 66.8631 15.0536C65.9339 17.1244 65.7183 19.445 66.25 21.6515C62.1736 21.4453 58.1861 20.3839 54.5467 18.5362C50.9072 16.6884 47.6971 14.0957 45.125 10.9265C44.2229 12.5019 43.7488 14.2861 43.75 16.1015C43.7468 17.7875 44.1606 19.448 44.9544 20.9354C45.7483 22.4228 46.8976 23.6908 48.3 24.6265C46.67 24.5822 45.0747 24.1447 43.65 23.3515V23.4765C43.6622 25.8387 44.49 28.1242 45.9933 29.9464C47.4966 31.7686 49.5832 33.0156 51.9 33.4765C51.0082 33.7479 50.0822 33.891 49.15 33.9015C48.5047 33.894 47.8611 33.8354 47.225 33.7265C47.8848 35.7585 49.1616 37.5344 50.8777 38.8069C52.5938 40.0794 54.664 40.7854 56.8 40.8265C53.193 43.6647 48.7397 45.2136 44.15 45.2265C43.3144 45.2292 42.4794 45.1791 41.65 45.0765C46.3361 48.1021 51.7971 49.7083 57.375 49.7015C61.2243 49.7415 65.0429 49.014 68.6078 47.5617C72.1728 46.1094 75.4126 43.9612 78.138 41.2427C80.8635 38.5243 83.0199 35.29 84.4814 31.7288C85.9429 28.1676 86.6801 24.3508 86.65 20.5015C86.65 20.0765 86.65 19.6265 86.65 19.1765C88.6118 17.7135 90.3037 15.9201 91.65 13.8765Z" fill="black"/>
</svg>
